# Model exported from LeoCAD
#

mtllib 1X3X2-CURVED.mtl

v 4.00 0.00 48.00
v 3.70 1.53 48.00
v 2.83 2.83 48.00
v 1.53 3.70 48.00
v 0.00 4.00 48.00
v -1.53 3.70 48.00
v -2.83 2.83 48.00
v -3.70 1.53 48.00
v -4.00 0.00 48.00
v -3.70 -1.53 48.00
v -2.83 -2.83 48.00
v -1.53 -3.70 48.00
v 0.00 -4.00 48.00
v 1.53 -3.70 48.00
v 2.83 -2.83 48.00
v 3.70 -1.53 48.00
v 6.00 0.00 48.00
v 5.54 2.30 48.00
v 4.24 4.24 48.00
v 2.30 5.54 48.00
v 0.00 6.00 48.00
v -2.30 5.54 48.00
v -4.24 4.24 48.00
v -5.54 2.30 48.00
v -6.00 0.00 48.00
v -5.54 -2.30 48.00
v -4.24 -4.24 48.00
v -2.30 -5.54 48.00
v 0.00 -6.00 48.00
v 2.30 -5.54 48.00
v 4.24 -4.24 48.00
v 5.54 -2.30 48.00
v 4.00 0.00 52.00
v 3.70 1.53 52.00
v 2.83 2.83 52.00
v 1.53 3.70 52.00
v 0.00 4.00 52.00
v -1.53 3.70 52.00
v -2.83 2.83 52.00
v -3.70 1.53 52.00
v -4.00 0.00 52.00
v -3.70 -1.53 52.00
v -2.83 -2.83 52.00
v -1.53 -3.70 52.00
v 0.00 -4.00 52.00
v 1.53 -3.70 52.00
v 2.83 -2.83 52.00
v 3.70 -1.53 52.00
v 6.00 0.00 52.00
v 5.54 2.30 52.00
v 4.24 4.24 52.00
v 2.30 5.54 52.00
v 0.00 6.00 52.00
v -2.30 5.54 52.00
v -4.24 4.24 52.00
v -5.54 2.30 52.00
v -6.00 0.00 52.00
v -5.54 -2.30 52.00
v -4.24 -4.24 52.00
v -2.30 -5.54 52.00
v 0.00 -6.00 52.00
v 2.30 -5.54 52.00
v 4.24 -4.24 52.00
v 5.54 -2.30 52.00
v -2.30 5.54 52.00
v -1.53 3.70 52.00
v 0.00 4.00 52.00
v 0.00 6.00 52.00
v -4.24 4.24 52.00
v -2.83 2.83 52.00
v -5.54 2.30 52.00
v -3.70 1.53 52.00
v -6.00 0.00 52.00
v -4.00 0.00 52.00
v -5.54 -2.30 52.00
v -3.70 -1.53 52.00
v -4.24 -4.24 52.00
v -2.83 -2.83 52.00
v -2.30 -5.54 52.00
v -1.53 -3.70 52.00
v 0.00 -6.00 52.00
v 0.00 -4.00 52.00
v 2.30 -5.54 52.00
v 1.53 -3.70 52.00
v 4.24 -4.24 52.00
v 2.83 -2.83 52.00
v 5.54 -2.30 52.00
v 3.70 -1.53 52.00
v 6.00 0.00 52.00
v 4.00 0.00 52.00
v 5.54 2.30 52.00
v 3.70 1.53 52.00
v 4.24 4.24 52.00
v 2.83 2.83 52.00
v 2.30 5.54 52.00
v 1.53 3.70 52.00
v 10.00 -10.00 48.00
v 10.00 10.00 48.00
v -10.00 10.00 48.00
v -10.00 -10.00 48.00
v 10.00 10.00 0.00
v -10.00 10.00 0.00
v -10.00 10.00 48.00
v 10.00 10.00 48.00
v -10.00 10.00 48.00
v -10.00 -10.00 48.00
v -10.00 -10.00 8.00
v -10.00 10.00 0.00
v 10.00 -10.00 8.00
v 10.00 -10.00 48.00
v 10.00 10.00 48.00
v 10.00 10.00 0.00
v -10.00 -50.00 0.00
v 10.00 -50.00 0.00
v -10.00 -50.00 8.00
v 10.00 -50.00 8.00
v -10.00 10.00 0.00
v -10.00 6.00 0.00
v 10.00 6.00 0.00
v 10.00 10.00 0.00
v -10.00 -50.00 0.00
v 10.00 -50.00 0.00
v 10.00 -46.00 0.00
v -10.00 -46.00 0.00
v -6.00 -46.00 0.00
v -6.00 6.00 0.00
v 6.00 6.00 0.00
v 6.00 -46.00 0.00
v 6.00 -10.00 44.00
v 6.00 6.00 44.00
v -6.00 6.00 44.00
v -6.00 -10.00 44.00
v -6.00 6.00 0.00
v 6.00 6.00 0.00
v 6.00 6.00 44.00
v -6.00 6.00 44.00
v -6.00 6.00 44.00
v -6.00 6.00 0.00
v -6.00 -10.00 8.00
v -6.00 -10.00 44.00
v 6.00 -10.00 44.00
v 6.00 -10.00 7.00
v 6.00 6.00 0.00
v 6.00 6.00 44.00
v 6.00 -46.00 8.00
v 6.00 -46.00 0.00
v -6.00 -46.00 0.00
v -6.00 -46.00 8.00
v -6.00 -21.00 4.00
v -6.00 -19.00 4.00
v 6.00 -19.00 4.00
v 6.00 -21.00 4.00
v -6.00 -21.00 4.00
v 6.00 -21.00 4.00
v 6.00 -21.00 42.10
v -6.00 -21.00 42.10
v 6.00 -19.00 4.00
v -6.00 -19.00 4.00
v -6.00 -19.00 42.71
v 6.00 -19.00 42.71
v -6.00 -38.00 1.00
v -4.00 -35.00 1.00
v -6.00 -32.00 1.00
v -6.00 -28.00 1.00
v -4.00 -25.00 1.00
v -6.00 -22.00 1.00
v -6.00 -18.00 1.00
v -4.00 -15.00 1.00
v -6.00 -12.00 1.00
v -6.00 -8.00 1.00
v -4.00 -5.00 1.00
v -6.00 -2.00 1.00
v 6.00 -32.00 1.00
v 4.00 -35.00 1.00
v 6.00 -38.00 1.00
v 6.00 -22.00 1.00
v 4.00 -25.00 1.00
v 6.00 -28.00 1.00
v 6.00 -12.00 1.00
v 4.00 -15.00 1.00
v 6.00 -18.00 1.00
v 6.00 -2.00 1.00
v 4.00 -5.00 1.00
v 6.00 -8.00 1.00
v -4.00 -5.00 1.00
v -4.00 -5.00 44.00
v -6.00 -2.00 44.00
v -6.00 -2.00 1.00
v -6.00 -8.00 1.00
v -6.00 -8.00 44.00
v -4.00 -5.00 44.00
v -4.00 -5.00 1.00
v 4.00 -5.00 1.00
v 4.00 -5.00 44.00
v 6.00 -2.00 44.00
v 6.00 -2.00 1.00
v 4.00 -5.00 1.00
v 4.00 -5.00 44.00
v 6.00 -8.00 44.00
v 6.00 -8.00 1.00
v -6.00 -12.00 43.80
v -6.00 -12.00 1.00
v -4.00 -15.00 1.00
v -4.00 -15.00 43.51
v -4.00 -15.00 43.51
v -4.00 -15.00 1.00
v -5.35 -17.02 1.00
v -5.35 -17.02 43.31
v -6.00 -18.00 1.00
v -6.00 -18.00 43.01
v 4.00 -15.00 1.00
v 6.00 -12.00 1.00
v 6.00 -12.00 43.80
v 4.00 -15.00 43.51
v 5.35 -17.02 1.00
v 4.00 -15.00 1.00
v 4.00 -15.00 43.51
v 5.35 -17.02 43.31
v 6.00 -18.00 1.00
v 6.00 -18.00 43.01
v -6.00 -22.00 41.80
v -6.00 -22.00 1.00
v -4.81 -23.78 1.00
v -4.81 -23.78 41.26
v -4.00 -25.00 1.00
v -4.00 -25.00 40.61
v -4.00 -25.00 40.61
v -4.00 -25.00 1.00
v -6.00 -28.00 1.00
v -6.00 -28.00 39.00
v 4.81 -23.78 1.00
v 6.00 -22.00 1.00
v 6.00 -22.00 41.80
v 4.81 -23.78 41.26
v 4.00 -25.00 1.00
v 4.00 -25.00 40.61
v 6.00 -28.00 1.00
v 4.00 -25.00 1.00
v 4.00 -25.00 40.61
v 6.00 -28.00 39.00
v -6.00 -32.00 36.29
v -6.00 -32.00 1.00
v -4.00 -35.00 1.00
v -4.00 -35.00 33.84
v -4.00 -35.00 33.84
v -4.00 -35.00 1.00
v -4.31 -35.46 1.00
v -4.31 -35.46 33.46
v -6.00 -38.00 1.00
v -6.00 -38.00 30.36
v 4.00 -35.00 1.00
v 6.00 -32.00 1.00
v 6.00 -32.00 36.29
v 4.00 -35.00 33.84
v 4.31 -35.46 1.00
v 4.00 -35.00 1.00
v 4.00 -35.00 33.84
v 4.31 -35.46 33.46
v 6.00 -38.00 1.00
v 6.00 -38.00 30.36
v -10.00 -15.22 47.66
v -10.00 -20.35 46.64
v -10.00 -25.31 44.96
v -10.00 -30.00 42.64
v -10.00 -34.35 39.74
v -10.00 -38.28 36.28
v -10.00 -41.74 32.35
v -10.00 -44.64 28.00
v -10.00 -46.96 23.31
v -10.00 -48.64 18.35
v -10.00 -49.66 13.22
v -10.00 -50.00 8.00
v -10.00 -50.00 0.00
v 10.00 -15.22 47.66
v 10.00 -20.35 46.64
v 10.00 -25.31 44.96
v 10.00 -30.00 42.64
v 10.00 -34.35 39.74
v 10.00 -38.28 36.28
v 10.00 -41.74 32.35
v 10.00 -44.64 28.00
v 10.00 -46.96 23.31
v 10.00 -48.64 18.35
v 10.00 -49.66 13.22
v 10.00 -50.00 8.00
v 10.00 -50.00 0.00
v 10.00 -15.22 47.66
v -10.00 -15.22 47.66
v 10.00 -20.35 46.64
v -10.00 -20.35 46.64
v 10.00 -25.31 44.96
v -10.00 -25.31 44.96
v 10.00 -30.00 42.64
v -10.00 -30.00 42.64
v 10.00 -34.35 39.74
v -10.00 -34.35 39.74
v 10.00 -38.28 36.28
v -10.00 -38.28 36.28
v 10.00 -41.74 32.35
v -10.00 -41.74 32.35
v 10.00 -44.64 28.00
v -10.00 -44.64 28.00
v 10.00 -46.96 23.31
v -10.00 -46.96 23.31
v 10.00 -48.64 18.35
v -10.00 -48.64 18.35
v 10.00 -49.66 13.22
v -10.00 -49.66 13.22
v -6.00 -14.70 43.69
v -6.00 -19.32 42.77
v -6.00 -23.78 41.26
v -6.00 -28.00 39.18
v -6.00 -31.92 36.56
v -6.00 -35.46 33.46
v -6.00 -38.56 29.92
v -6.00 -41.18 26.00
v -6.00 -43.26 21.78
v -6.00 -44.77 17.32
v -6.00 -45.69 12.70
v -6.00 -46.00 8.00
v -6.00 -46.00 0.00
v 6.00 -10.00 8.00
v 6.00 -14.70 43.69
v 6.00 -19.32 42.77
v 6.00 -23.78 41.26
v 6.00 -28.00 39.18
v 6.00 -31.92 36.56
v 6.00 -35.46 33.46
v 6.00 -38.56 29.92
v 6.00 -41.18 26.00
v 6.00 -43.26 21.78
v 6.00 -44.77 17.32
v 6.00 -45.69 12.70
v 6.00 -46.00 8.00
v 6.00 -46.00 0.00
v 6.00 -14.70 43.69
v -6.00 -14.70 43.69
v 6.00 -19.32 42.77
v -6.00 -19.32 42.77
v 6.00 -23.78 41.26
v -6.00 -23.78 41.26
v 6.00 -28.00 39.18
v -6.00 -28.00 39.18
v 6.00 -31.92 36.56
v -6.00 -31.92 36.56
v 6.00 -35.46 33.46
v -6.00 -35.46 33.46
v 6.00 -38.56 29.92
v -6.00 -38.56 29.92
v 6.00 -41.18 26.00
v -6.00 -41.18 26.00
v 6.00 -43.26 21.78
v -6.00 -43.26 21.78
v 6.00 -44.77 17.32
v -6.00 -44.77 17.32
v 6.00 -45.69 12.70
v -6.00 -45.69 12.70
#

vn -1.00 0.00 0.00
vn -0.92 -0.38 0.00
vn -0.70 -0.70 0.00
vn -0.38 -0.92 0.00
vn 0.00 -1.00 0.00
vn 0.38 -0.92 0.00
vn 0.70 -0.70 0.00
vn 0.92 -0.38 0.00
vn 1.00 0.00 0.00
vn 0.92 0.38 0.00
vn 0.70 0.70 0.00
vn 0.38 0.92 0.00
vn 0.00 1.00 0.00
vn -0.38 0.92 0.00
vn -0.70 0.70 0.00
vn -0.92 0.38 0.00
vn 1.00 0.00 0.00
vn 0.92 0.38 0.00
vn 0.70 0.70 0.00
vn 0.38 0.92 0.00
vn 0.00 1.00 0.00
vn -0.38 0.92 0.00
vn -0.70 0.70 0.00
vn -0.92 0.38 0.00
vn -1.00 0.00 0.00
vn -0.92 -0.38 0.00
vn -0.70 -0.70 0.00
vn -0.38 -0.92 0.00
vn 0.00 -1.00 0.00
vn 0.38 -0.92 0.00
vn 0.70 -0.70 0.00
vn 0.92 -0.38 0.00
vn -1.00 0.00 0.00
vn -0.92 -0.38 0.00
vn -0.70 -0.70 0.00
vn -0.38 -0.92 0.00
vn 0.00 -1.00 0.00
vn 0.38 -0.92 0.00
vn 0.70 -0.70 0.00
vn 0.92 -0.38 0.00
vn 1.00 0.00 0.00
vn 0.92 0.38 0.00
vn 0.70 0.70 0.00
vn 0.38 0.92 0.00
vn 0.00 1.00 0.00
vn -0.38 0.92 0.00
vn -0.70 0.70 0.00
vn -0.92 0.38 0.00
vn 1.00 0.00 0.00
vn 0.92 0.38 0.00
vn 0.70 0.70 0.00
vn 0.38 0.92 0.00
vn 0.00 1.00 0.00
vn -0.38 0.92 0.00
vn -0.70 0.70 0.00
vn -0.92 0.38 0.00
vn -1.00 0.00 0.00
vn -0.92 -0.38 0.00
vn -0.70 -0.70 0.00
vn -0.38 -0.92 0.00
vn 0.00 -1.00 0.00
vn 0.38 -0.92 0.00
vn 0.70 -0.70 0.00
vn 0.92 -0.38 0.00
vn 0.00 0.00 1.00
vn 0.00 0.00 1.00
vn 0.00 0.00 1.00
vn 0.00 0.00 1.00
vn 0.00 0.00 1.00
vn 0.00 0.00 1.00
vn 0.00 0.00 1.00
vn 0.00 0.00 1.00
vn 0.00 0.00 1.00
vn 0.00 0.00 1.00
vn 0.00 0.00 1.00
vn 0.00 0.00 1.00
vn 0.00 0.00 1.00
vn 0.00 0.00 1.00
vn 0.00 0.00 1.00
vn 0.00 0.00 1.00
vn 0.00 0.00 1.00
vn 0.00 0.00 1.00
vn 0.00 0.00 1.00
vn 0.00 0.00 1.00
vn 0.00 0.00 1.00
vn 0.00 0.00 1.00
vn 0.00 0.00 1.00
vn 0.00 0.00 1.00
vn 0.00 0.00 1.00
vn 0.00 0.00 1.00
vn 0.00 0.00 1.00
vn 0.00 0.00 1.00
vn 0.00 0.00 1.00
vn 0.00 0.00 1.00
vn 0.00 0.00 1.00
vn 0.00 0.00 1.00
vn 0.00 -0.03 0.99
vn 0.00 0.00 1.00
vn 0.00 0.00 1.00
vn 0.00 -0.03 0.99
vn 0.00 1.00 0.00
vn 0.00 1.00 0.00
vn 0.00 1.00 0.00
vn 0.00 1.00 0.00
vn -1.00 0.00 0.00
vn -1.00 0.00 0.00
vn -1.00 0.00 0.00
vn -1.00 0.00 0.00
vn 1.00 0.00 0.00
vn 1.00 0.00 0.00
vn 1.00 0.00 0.00
vn 1.00 0.00 0.00
vn 0.00 -1.00 0.00
vn 0.00 -1.00 0.00
vn 0.00 -0.99 0.03
vn 0.00 -0.99 0.03
vn 0.00 0.00 -1.00
vn 0.00 0.00 -1.00
vn 0.00 0.00 -1.00
vn 0.00 0.00 -1.00
vn 0.00 0.00 -1.00
vn 0.00 0.00 -1.00
vn 0.00 0.00 -1.00
vn 0.00 0.00 -1.00
vn 0.00 0.00 -1.00
vn 0.00 0.00 -1.00
vn 0.00 0.00 -1.00
vn 0.00 0.00 -1.00
vn 0.00 0.03 -0.99
vn 0.00 0.00 -1.00
vn 0.00 0.00 -1.00
vn 0.00 0.03 -0.99
vn 0.00 -1.00 0.00
vn 0.00 -1.00 0.00
vn 0.00 -1.00 0.00
vn 0.00 -1.00 0.00
vn 1.00 0.00 0.00
vn 1.00 0.00 0.00
vn 1.00 0.00 0.00
vn 1.00 0.00 0.00
vn -1.00 0.00 0.00
vn -1.00 0.00 0.00
vn -1.00 0.00 0.00
vn -1.00 0.00 0.00
vn 0.00 0.99 -0.03
vn 0.00 1.00 0.00
vn 0.00 1.00 0.00
vn 0.00 0.99 -0.03
vn 0.00 0.00 -1.00
vn 0.00 0.00 -1.00
vn 0.00 0.00 -1.00
vn 0.00 0.00 -1.00
vn 0.00 -1.00 0.00
vn 0.00 -1.00 0.00
vn 0.00 -1.00 0.00
vn 0.00 -1.00 0.00
vn 0.00 1.00 0.00
vn 0.00 1.00 0.00
vn 0.00 1.00 0.00
vn 0.00 1.00 0.00
vn 0.00 0.00 -1.00
vn 0.00 0.00 -1.00
vn 0.00 0.00 -1.00
vn 0.00 0.00 -1.00
vn 0.00 0.00 -1.00
vn 0.00 0.00 -1.00
vn 0.00 0.00 -1.00
vn 0.00 0.00 -1.00
vn 0.00 0.00 -1.00
vn 0.00 0.00 -1.00
vn 0.00 0.00 -1.00
vn 0.00 0.00 -1.00
vn 0.00 0.00 -1.00
vn 0.00 0.00 -1.00
vn 0.00 0.00 -1.00
vn 0.00 0.00 -1.00
vn 0.00 0.00 -1.00
vn 0.00 0.00 -1.00
vn 0.00 0.00 -1.00
vn 0.00 0.00 -1.00
vn 0.00 0.00 -1.00
vn 0.00 0.00 -1.00
vn 0.00 0.00 -1.00
vn 0.00 0.00 -1.00
vn 0.83 0.55 0.00
vn 0.83 0.55 0.00
vn 0.83 0.55 0.00
vn 0.83 0.55 0.00
vn 0.83 -0.55 0.00
vn 0.83 -0.55 0.00
vn 0.83 -0.55 0.00
vn 0.83 -0.55 0.00
vn -0.83 0.55 0.00
vn -0.83 0.55 0.00
vn -0.83 0.55 0.00
vn -0.83 0.55 0.00
vn -0.83 -0.55 0.00
vn -0.83 -0.55 0.00
vn -0.83 -0.55 0.00
vn -0.83 -0.55 0.00
vn 0.83 0.55 0.00
vn 0.83 0.55 0.00
vn 0.83 0.55 0.00
vn 0.83 0.55 0.00
vn 0.83 -0.55 0.00
vn 0.83 -0.55 0.00
vn 0.83 -0.55 0.00
vn 0.83 -0.55 0.00
vn 0.83 -0.55 0.00
vn 0.83 -0.55 0.00
vn -0.83 0.55 0.00
vn -0.83 0.55 0.00
vn -0.83 0.55 0.00
vn -0.83 0.55 0.00
vn -0.83 -0.55 0.00
vn -0.83 -0.55 0.00
vn -0.83 -0.55 0.00
vn -0.83 -0.55 0.00
vn -0.83 -0.55 0.00
vn -0.83 -0.55 0.00
vn 0.83 0.55 0.00
vn 0.83 0.55 0.00
vn 0.83 0.55 0.00
vn 0.83 0.55 0.00
vn 0.83 0.55 0.00
vn 0.83 0.55 0.00
vn 0.83 -0.55 0.00
vn 0.83 -0.55 0.00
vn 0.83 -0.55 0.00
vn 0.83 -0.55 0.00
vn -0.83 0.55 0.00
vn -0.83 0.55 0.00
vn -0.83 0.55 0.00
vn -0.83 0.55 0.00
vn -0.83 0.55 0.00
vn -0.83 0.55 0.00
vn -0.83 -0.55 0.00
vn -0.83 -0.55 0.00
vn -0.83 -0.55 0.00
vn -0.83 -0.55 0.00
vn 0.83 0.55 0.00
vn 0.83 0.55 0.00
vn 0.83 0.55 0.00
vn 0.83 0.55 0.00
vn 0.83 -0.55 0.00
vn 0.83 -0.55 0.00
vn 0.83 -0.55 0.00
vn 0.83 -0.55 0.00
vn 0.83 -0.55 0.00
vn 0.83 -0.55 0.00
vn -0.83 0.55 0.00
vn -0.83 0.55 0.00
vn -0.83 0.55 0.00
vn -0.83 0.55 0.00
vn -0.83 -0.55 0.00
vn -0.83 -0.55 0.00
vn -0.83 -0.55 0.00
vn -0.83 -0.55 0.00
vn -0.83 -0.55 0.00
vn -0.83 -0.55 0.00
vn -1.00 0.00 0.00
vn -1.00 0.00 0.00
vn -1.00 0.00 0.00
vn -1.00 0.00 0.00
vn -1.00 0.00 0.00
vn -1.00 0.00 0.00
vn -1.00 0.00 0.00
vn -1.00 0.00 0.00
vn -1.00 0.00 0.00
vn -1.00 0.00 0.00
vn -1.00 0.00 0.00
vn -1.00 0.00 0.00
vn -1.00 0.00 0.00
vn 1.00 0.00 0.00
vn 1.00 0.00 0.00
vn 1.00 0.00 0.00
vn 1.00 0.00 0.00
vn 1.00 0.00 0.00
vn 1.00 0.00 0.00
vn 1.00 0.00 0.00
vn 1.00 0.00 0.00
vn 1.00 0.00 0.00
vn 1.00 0.00 0.00
vn 1.00 0.00 0.00
vn 1.00 0.00 0.00
vn 1.00 0.00 0.00
vn 0.00 -0.13 0.98
vn 0.00 -0.13 0.98
vn 0.00 -0.25 0.96
vn 0.00 -0.25 0.96
vn 0.00 -0.38 0.92
vn 0.00 -0.38 0.92
vn 0.00 -0.50 0.86
vn 0.00 -0.50 0.86
vn 0.00 -0.61 0.79
vn 0.00 -0.61 0.79
vn 0.00 -0.70 0.70
vn 0.00 -0.70 0.70
vn 0.00 -0.79 0.61
vn 0.00 -0.79 0.61
vn 0.00 -0.86 0.50
vn 0.00 -0.86 0.50
vn 0.00 -0.92 0.38
vn 0.00 -0.92 0.38
vn 0.00 -0.96 0.25
vn 0.00 -0.96 0.25
vn 0.00 -0.98 0.13
vn 0.00 -0.98 0.13
vn 1.00 0.00 0.00
vn 1.00 0.00 0.00
vn 1.00 0.00 0.00
vn 1.00 0.00 0.00
vn 1.00 0.00 0.00
vn 1.00 0.00 0.00
vn 1.00 0.00 0.00
vn 1.00 0.00 0.00
vn 1.00 0.00 0.00
vn 1.00 0.00 0.00
vn 1.00 0.00 0.00
vn 1.00 0.00 0.00
vn 1.00 0.00 0.00
vn -1.00 0.00 0.00
vn -1.00 0.00 0.00
vn -1.00 0.00 0.00
vn -1.00 0.00 0.00
vn -1.00 0.00 0.00
vn -1.00 0.00 0.00
vn -1.00 0.00 0.00
vn -1.00 0.00 0.00
vn -1.00 0.00 0.00
vn -1.00 0.00 0.00
vn -1.00 0.00 0.00
vn -1.00 0.00 0.00
vn -1.00 0.00 0.00
vn -1.00 0.00 0.00
vn 0.00 0.13 -0.98
vn 0.00 0.13 -0.98
vn 0.00 0.25 -0.96
vn 0.00 0.25 -0.96
vn 0.00 0.38 -0.92
vn 0.00 0.38 -0.92
vn 0.00 0.50 -0.86
vn 0.00 0.50 -0.86
vn 0.00 0.61 -0.79
vn 0.00 0.61 -0.79
vn 0.00 0.70 -0.70
vn 0.00 0.70 -0.70
vn 0.00 0.79 -0.61
vn 0.00 0.79 -0.61
vn 0.00 0.86 -0.50
vn 0.00 0.86 -0.50
vn 0.00 0.92 -0.38
vn 0.00 0.92 -0.38
vn 0.00 0.96 -0.25
vn 0.00 0.96 -0.25
vn 0.00 0.98 -0.13
vn 0.00 0.98 -0.13
#

g Piece000
usemtl Light_Grey
f 1//1 33//33 34//34
f 34//34 2//2 1//1
f 2//2 34//34 35//35
f 35//35 3//3 2//2
f 3//3 35//35 36//36
f 36//36 4//4 3//3
f 4//4 36//36 37//37
f 37//37 5//5 4//4
f 5//5 37//37 38//38
f 38//38 6//6 5//5
f 6//6 38//38 39//39
f 39//39 7//7 6//6
f 7//7 39//39 40//40
f 40//40 8//8 7//7
f 8//8 40//40 41//41
f 41//41 9//9 8//8
f 9//9 41//41 42//42
f 42//42 10//10 9//9
f 10//10 42//42 43//43
f 43//43 11//11 10//10
f 11//11 43//43 44//44
f 44//44 12//12 11//11
f 12//12 44//44 45//45
f 45//45 13//13 12//12
f 13//13 45//45 46//46
f 46//46 14//14 13//13
f 14//14 46//46 47//47
f 47//47 15//15 14//14
f 15//15 47//47 48//48
f 48//48 16//16 15//15
f 16//16 48//48 33//33
f 33//33 1//1 16//16
f 50//50 49//49 17//17
f 17//17 18//18 50//50
f 51//51 50//50 18//18
f 18//18 19//19 51//51
f 52//52 51//51 19//19
f 19//19 20//20 52//52
f 53//53 52//52 20//20
f 20//20 21//21 53//53
f 54//54 53//53 21//21
f 21//21 22//22 54//54
f 55//55 54//54 22//22
f 22//22 23//23 55//55
f 56//56 55//55 23//23
f 23//23 24//24 56//56
f 57//57 56//56 24//24
f 24//24 25//25 57//57
f 58//58 57//57 25//25
f 25//25 26//26 58//58
f 59//59 58//58 26//26
f 26//26 27//27 59//59
f 60//60 59//59 27//27
f 27//27 28//28 60//60
f 61//61 60//60 28//28
f 28//28 29//29 61//61
f 62//62 61//61 29//29
f 29//29 30//30 62//62
f 63//63 62//62 30//30
f 30//30 31//31 63//63
f 64//64 63//63 31//31
f 31//31 32//32 64//64
f 49//49 64//64 32//32
f 32//32 17//17 49//49
f 67//67 68//68 65//65
f 65//65 66//66 67//67
f 66//66 65//65 69//69
f 69//69 70//70 66//66
f 70//70 69//69 71//71
f 71//71 72//72 70//70
f 72//72 71//71 73//73
f 73//73 74//74 72//72
f 74//74 73//73 75//75
f 75//75 76//76 74//74
f 76//76 75//75 77//77
f 77//77 78//78 76//76
f 78//78 77//77 79//79
f 79//79 80//80 78//78
f 80//80 79//79 81//81
f 81//81 82//82 80//80
f 82//82 81//81 83//83
f 83//83 84//84 82//82
f 84//84 83//83 85//85
f 85//85 86//86 84//84
f 86//86 85//85 87//87
f 87//87 88//88 86//86
f 88//88 87//87 89//89
f 89//89 90//90 88//88
f 90//90 89//89 91//91
f 91//91 92//92 90//90
f 92//92 91//91 93//93
f 93//93 94//94 92//92
f 94//94 93//93 95//95
f 95//95 96//96 94//94
f 96//96 95//95 68//68
f 68//68 67//67 96//96
f 100//100 97//97 98//98
f 98//98 99//99 100//100
f 104//104 101//101 102//102
f 102//102 103//103 104//104
f 105//105 108//108 107//107
f 107//107 106//106 105//105
f 109//109 112//112 111//111
f 111//111 110//110 109//109
f 115//115 113//113 114//114
f 114//114 116//116 115//115
f 117//117 120//120 119//119
f 119//119 118//118 117//117
f 121//121 124//124 123//123
f 123//123 122//122 121//121
f 118//118 126//126 125//125
f 125//125 124//124 118//118
f 127//127 119//119 123//123
f 123//123 128//128 127//127
f 130//130 129//129 132//132
f 132//132 131//131 130//130
f 136//136 133//133 134//134
f 134//134 135//135 136//136
f 137//137 140//140 139//139
f 139//139 138//138 137//137
f 141//141 144//144 143//143
f 143//143 142//142 141//141
f 148//148 145//145 146//146
f 146//146 147//147 148//148
f 152//152 149//149 150//150
f 150//150 151//151 152//152
f 156//156 153//153 154//154
f 154//154 155//155 156//156
f 160//160 157//157 158//158
f 158//158 159//159 160//160
f 163//163 162//162 161//161
f 166//166 165//165 164//164
f 169//169 168//168 167//167
f 172//172 171//171 170//170
f 175//175 174//174 173//173
f 178//178 177//177 176//176
f 181//181 180//180 179//179
f 184//184 183//183 182//182
f 186//186 185//185 188//188
f 188//188 187//187 186//186
f 190//190 189//189 192//192
f 192//192 191//191 190//190
f 196//196 193//193 194//194
f 194//194 195//195 196//196
f 198//198 197//197 200//200
f 200//200 199//199 198//198
f 201//201 204//204 203//203
f 203//203 202//202 201//201
f 205//205 208//208 207//207
f 207//207 206//206 205//205
f 208//208 210//210 209//209
f 209//209 207//207 208//208
f 211//211 214//214 213//213
f 213//213 212//212 211//211
f 215//215 218//218 217//217
f 217//217 216//216 215//215
f 219//219 220//220 218//218
f 218//218 215//215 219//219
f 221//221 224//224 223//223
f 223//223 222//222 221//221
f 224//224 226//226 225//225
f 225//225 223//223 224//224
f 227//227 230//230 229//229
f 229//229 228//228 227//227
f 231//231 234//234 233//233
f 233//233 232//232 231//231
f 235//235 236//236 234//234
f 234//234 231//231 235//235
f 237//237 240//240 239//239
f 239//239 238//238 237//237
f 241//241 244//244 243//243
f 243//243 242//242 241//241
f 245//245 248//248 247//247
f 247//247 246//246 245//245
f 248//248 250//250 249//249
f 249//249 247//247 248//248
f 251//251 254//254 253//253
f 253//253 252//252 251//251
f 255//255 258//258 257//257
f 257//257 256//256 255//255
f 259//259 260//260 258//258
f 258//258 255//255 259//259
f 107//107 262//262 261//261
f 261//261 106//106 107//107
f 107//107 264//264 263//263
f 263//263 262//262 107//107
f 107//107 266//266 265//265
f 265//265 264//264 107//107
f 107//107 268//268 267//267
f 267//267 266//266 107//107
f 107//107 270//270 269//269
f 269//269 268//268 107//107
f 107//107 272//272 271//271
f 271//271 270//270 107//107
f 107//107 108//108 273//273
f 273//273 272//272 107//107
f 274//274 275//275 109//109
f 109//109 110//110 274//274
f 276//276 277//277 109//109
f 109//109 275//275 276//276
f 278//278 279//279 109//109
f 109//109 277//277 278//278
f 280//280 281//281 109//109
f 109//109 279//279 280//280
f 282//282 283//283 109//109
f 109//109 281//281 282//282
f 284//284 285//285 109//109
f 109//109 283//283 284//284
f 109//109 285//285 286//286
f 286//286 112//112 109//109
f 100//100 288//288 287//287
f 287//287 97//97 100//100
f 288//288 290//290 289//289
f 289//289 287//287 288//288
f 290//290 292//292 291//291
f 291//291 289//289 290//290
f 292//292 294//294 293//293
f 293//293 291//291 292//292
f 294//294 296//296 295//295
f 295//295 293//293 294//294
f 296//296 298//298 297//297
f 297//297 295//295 296//296
f 298//298 300//300 299//299
f 299//299 297//297 298//298
f 300//300 302//302 301//301
f 301//301 299//299 300//300
f 302//302 304//304 303//303
f 303//303 301//301 302//302
f 304//304 306//306 305//305
f 305//305 303//303 304//304
f 306//306 308//308 307//307
f 307//307 305//305 306//306
f 308//308 115//115 116//116
f 116//116 307//307 308//308
f 309//309 310//310 139//139
f 139//139 140//140 309//309
f 311//311 312//312 139//139
f 139//139 310//310 311//311
f 313//313 314//314 139//139
f 139//139 312//312 313//313
f 315//315 316//316 139//139
f 139//139 314//314 315//315
f 317//317 318//318 139//139
f 139//139 316//316 317//317
f 319//319 320//320 139//139
f 139//139 318//318 319//319
f 139//139 320//320 321//321
f 321//321 138//138 139//139
f 322//322 324//324 323//323
f 323//323 141//141 322//322
f 322//322 326//326 325//325
f 325//325 324//324 322//322
f 322//322 328//328 327//327
f 327//327 326//326 322//322
f 322//322 330//330 329//329
f 329//329 328//328 322//322
f 322//322 332//332 331//331
f 331//331 330//330 322//322
f 322//322 334//334 333//333
f 333//333 332//332 322//322
f 322//322 143//143 335//335
f 335//335 334//334 322//322
f 336//336 337//337 132//132
f 132//132 129//129 336//336
f 338//338 339//339 337//337
f 337//337 336//336 338//338
f 340//340 341//341 339//339
f 339//339 338//338 340//340
f 342//342 343//343 341//341
f 341//341 340//340 342//342
f 344//344 345//345 343//343
f 343//343 342//342 344//344
f 346//346 347//347 345//345
f 345//345 344//344 346//346
f 348//348 349//349 347//347
f 347//347 346//346 348//348
f 350//350 351//351 349//349
f 349//349 348//348 350//350
f 352//352 353//353 351//351
f 351//351 350//350 352//352
f 354//354 355//355 353//353
f 353//353 352//352 354//354
f 356//356 357//357 355//355
f 355//355 354//354 356//356
f 145//145 148//148 357//357
f 357//357 356//356 145//145

