####
#
# OBJ File Generated by Meshlab
#
####
# Object box.stl.convex.obj
#
# Vertices: 50
# Faces: 96
#
####
vn -1.640944 -0.075260 0.043147
v -0.011285 -0.008139 0.029063
vn -1.178732 -0.054061 0.030994
v -0.011580 -0.000228 0.031634
vn -0.005966 -0.479304 1.200924
v -0.008582 -0.008128 0.031300
vn 0.015990 -0.670985 1.459853
v 0.013568 -0.008821 0.030739
vn -0.230873 -0.341204 0.280714
v -0.009249 -0.012461 0.025484
vn 0.074456 -0.085080 0.000807
v 0.015127 -0.012292 0.002193
vn 0.307610 -0.000793 0.293769
v 0.015546 0.004273 0.032319
vn 0.840700 -0.002168 0.802874
v 0.014119 -0.002156 0.033797
vn 0.163843 -0.236875 0.184611
v 0.015136 -0.012066 0.025184
vn 0.020674 -1.767074 -1.124027
v 0.013568 -0.013482 0.004035
vn 0.002257 0.070107 -0.069594
v -0.008582 0.012200 0.001298
vn -0.000324 0.031063 -0.098160
v 0.013568 0.010018 0.000535
vn -0.414087 0.309494 -0.579569
v -0.011285 0.010419 0.002278
vn -0.023483 0.826156 -0.253392
v -0.010452 0.012792 0.003402
vn 0.373872 0.405430 0.175519
v 0.014696 0.009837 0.029403
vn 0.596121 0.754300 0.198760
v 0.013568 0.012617 0.025382
vn 0.858475 1.086270 0.286234
v 0.016006 0.011191 0.023485
vn -0.322387 -0.053445 0.152778
v -0.010452 -0.005185 0.032279
vn -0.002808 1.192980 0.781711
v -0.008582 0.009349 0.030291
vn -0.000003 -1.667032 0.343861
v -0.008582 -0.013482 0.020535
vn -0.000000 -0.213475 0.044034
v 0.013568 -0.013482 0.020535
vn -0.068082 -0.081244 0.000264
v -0.011506 -0.011061 0.021937
vn -1.537029 -0.047034 -0.447226
v -0.010927 -0.009982 0.001664
vn -2.325435 -0.016779 -0.796196
v -0.012182 -0.002283 0.005166
vn -0.056328 -0.001440 -0.116965
v -0.009249 0.010018 0.000610
vn -0.667753 -0.017073 -1.386599
v -0.008582 -0.009982 0.000535
vn -0.370608 -0.269268 -0.769573
v -0.009883 -0.012486 0.002038
vn -0.887801 -0.441971 -0.482030
v -0.011506 -0.011120 0.003775
vn -0.005540 1.227700 0.211521
v 0.014125 0.013455 0.020535
vn 0.003319 1.201655 0.248315
v -0.009249 0.012497 0.025484
vn -0.027241 1.016301 -0.040082
v -0.008582 0.013518 0.020535
vn -0.621085 -0.275279 1.141794
v -0.008582 0.000018 0.034551
vn 2.496211 -0.200500 -0.029799
v 0.015546 -0.007735 0.030377
vn 0.684833 -0.076768 0.025364
v 0.016033 -0.001881 0.031792
vn 0.363606 -0.040760 0.013467
v 0.016068 -0.010883 0.003601
vn -0.000003 -1.878256 -0.936655
v -0.008582 -0.013482 0.004035
vn -0.394238 0.515640 0.485083
v -0.010452 0.006883 0.031392
vn 0.634660 0.000000 -1.317891
v 0.015523 -0.009982 0.001476
vn 0.681540 0.000000 -1.415240
v 0.013568 -0.009982 0.000535
vn 0.487797 0.016406 -0.664332
v 0.015127 0.011860 0.001725
vn 1.507591 0.691998 -0.004726
v 0.015127 0.012972 0.004035
vn 1.028698 0.524907 -0.252781
v 0.016068 0.010919 0.003601
vn 0.313350 1.047379 -0.011607
v 0.013568 0.013430 0.003256
vn -0.009913 0.604713 1.935657
v 0.011568 0.000485 0.034509
vn -0.004518 0.275623 0.882256
v 0.013568 0.004603 0.033232
vn -0.796537 0.550142 1.519849
v -0.008582 0.005486 0.032878
vn -0.522432 0.395940 1.293751
v -0.010854 0.000600 0.033456
vn -0.231348 0.195238 0.055389
v -0.010927 0.010386 0.027282
vn -0.519254 1.483934 -0.006180
v -0.010452 0.012863 0.020535
vn -0.538222 0.285935 -0.001191
v -0.011506 0.010889 0.023089
# 50 vertices, 0 vertices normals

f 1//1 2//2 24//24
f 1//1 24//24 28//28
f 1//1 28//28 22//22
f 3//3 8//8 32//32
f 4//4 8//8 3//3
f 4//4 3//3 5//5
f 4//4 5//5 9//9
f 50//50 24//24 2//2
f 1//1 22//22 5//5
f 1//1 5//5 3//3
f 39//39 6//6 27//27
f 21//21 9//9 5//5
f 21//21 6//6 9//9
f 25//25 12//12 39//39
f 25//25 39//39 26//26
f 26//26 39//39 27//27
f 13//13 24//24 50//50
f 13//13 50//50 14//14
f 7//7 45//45 8//8
f 7//7 8//8 34//34
f 7//7 34//34 17//17
f 7//7 17//17 15//15
f 7//7 15//15 45//45
f 33//33 34//34 8//8
f 33//33 8//8 4//4
f 33//33 4//4 9//9
f 10//10 6//6 21//21
f 10//10 27//27 6//6
f 11//11 43//43 40//40
f 11//11 40//40 12//12
f 11//11 12//12 25//25
f 11//11 25//25 13//13
f 11//11 13//13 14//14
f 11//11 14//14 43//43
f 16//16 15//15 17//17
f 16//16 17//17 29//29
f 18//18 47//47 2//2
f 18//18 2//2 1//1
f 18//18 1//1 3//3
f 18//18 3//3 32//32
f 19//19 46//46 45//45
f 19//19 45//45 15//15
f 19//19 15//15 16//16
f 19//19 16//16 30//30
f 20//20 21//21 5//5
f 20//20 5//5 22//22
f 22//22 28//28 27//27
f 22//22 27//27 36//36
f 22//22 36//36 20//20
f 23//23 28//28 24//24
f 23//23 24//24 13//13
f 23//23 13//13 25//25
f 23//23 25//25 26//26
f 23//23 26//26 27//27
f 23//23 27//27 28//28
f 30//30 16//16 29//29
f 30//30 29//29 31//31
f 31//31 29//29 43//43
f 31//31 43//43 14//14
f 47//47 37//37 2//2
f 47//47 18//18 32//32
f 35//35 42//42 17//17
f 35//35 17//17 34//34
f 34//34 33//33 9//9
f 34//34 9//9 35//35
f 35//35 9//9 6//6
f 36//36 10//10 21//21
f 36//36 21//21 20//20
f 36//36 27//27 10//10
f 44//44 8//8 45//45
f 44//44 32//32 8//8
f 48//48 50//50 2//2
f 48//48 2//2 37//37
f 48//48 37//37 19//19
f 48//48 19//19 30//30
f 38//38 39//39 12//12
f 38//38 12//12 40//40
f 38//38 40//40 42//42
f 38//38 42//42 35//35
f 38//38 35//35 6//6
f 38//38 6//6 39//39
f 41//41 29//29 17//17
f 41//41 17//17 42//42
f 41//41 42//42 40//40
f 41//41 40//40 43//43
f 41//41 43//43 29//29
f 32//32 44//44 45//45
f 32//32 45//45 46//46
f 46//46 19//19 37//37
f 46//46 37//37 47//47
f 46//46 47//47 32//32
f 49//49 50//50 48//48
f 49//49 48//48 30//30
f 49//49 30//30 31//31
f 49//49 31//31 14//14
f 49//49 14//14 50//50
# 96 faces, 0 coords texture

# End of File