# SSTK version 0.8.0
# 6
mtllib original-6.mtl
o 3dw.be3f5a83e94251a7c1a0f8bf0959443/Model/Group1/mesh1/mesh1-geometry/material_1/component_1#mesh1-geometry
v -0.356703 0.127595 -0.561123
v 0.340789 0.127595 -0.561123
v -0.356703 0.117731 -0.570987
v 0.340789 0.117731 -0.570987
v -0.356703 0.117731 -0.570987
v 0.340789 0.127595 -0.561123
v -0.356703 0.117731 -0.570987
v 0.340789 0.127595 -0.561123
v -0.356703 0.127595 -0.561123
v 0.340789 0.127595 -0.561123
v -0.356703 0.117731 -0.570987
v 0.340789 0.117731 -0.570987
vn 0 0.7071067811865477 -0.7071067811865475
vn 0 -0.7071067811865477 0.7071067811865475
usemtl material_0_0
f 1//1 2//1 3//1
f 4//1 5//1 6//1
usemtl material_1_0
f 7//2 8//2 9//2
f 10//2 11//2 12//2
