# SSTK version 0.8.0
# 4
mtllib original-4.mtl
o 3dw.be3f5a83e94251a7c1a0f8bf0959443/Model/Group1/mesh1/mesh1-geometry/material_0/component_3#mesh1-geometry
v 0.587388 0.374078 -0.561004
v 0.354739 0.127476 -0.561004
v 0.340789 0.127476 -0.561004
v 0.340789 0.127476 -0.561004
v 0.354739 0.127476 -0.561004
v 0.587388 0.374078 -0.561004
v 0.354739 0.127476 -0.561004
v 0.587388 0.374078 -0.561004
v 0.597253 0.364214 -0.561004
v 0.597253 0.364214 -0.561004
v 0.587388 0.374078 -0.561004
v 0.354739 0.127476 -0.561004
v 0.340789 0.127476 0.554983
v 0.587388 0.374078 -0.561004
v 0.340789 0.127476 -0.561004
v 0.340789 0.127476 -0.561004
v 0.587388 0.374078 -0.561004
v 0.340789 0.127476 0.554983
v 0.597253 0.364214 -0.561004
v 0.354739 0.121698 -0.561004
v 0.354739 0.127476 -0.561004
v 0.354739 0.127476 -0.561004
v 0.354739 0.121698 -0.561004
v 0.597253 0.364214 -0.561004
v 0.587388 0.374078 -0.561004
v 0.597253 0.364214 0.554983
v 0.597253 0.364214 -0.561004
v 0.597253 0.364214 -0.561004
v 0.597253 0.364214 0.554983
v 0.587388 0.374078 -0.561004
v 0.587388 0.374078 -0.561004
v 0.340789 0.127476 0.554983
v 0.587388 0.374078 0.554983
v 0.587388 0.374078 0.554983
v 0.340789 0.127476 0.554983
v 0.587388 0.374078 -0.561004
v 0.597253 0.364214 -0.561004
v 0.350653 0.117613 -0.561004
v 0.354739 0.121698 -0.561004
v 0.354739 0.121698 -0.561004
v 0.350653 0.117613 -0.561004
v 0.597253 0.364214 -0.561004
v 0.597253 0.364214 0.554983
v 0.587388 0.374078 -0.561004
v 0.587388 0.374078 0.554983
v 0.587388 0.374078 0.554983
v 0.587388 0.374078 -0.561004
v 0.597253 0.364214 0.554983
v 0.597253 0.364214 0.554983
v 0.350653 0.117613 -0.561004
v 0.597253 0.364214 -0.561004
v 0.597253 0.364214 -0.561004
v 0.350653 0.117613 -0.561004
v 0.597253 0.364214 0.554983
v 0.340789 0.127476 0.554983
v 0.597253 0.364214 0.554983
v 0.587388 0.374078 0.554983
v 0.587388 0.374078 0.554983
v 0.597253 0.364214 0.554983
v 0.340789 0.127476 0.554983
v 0.350653 0.117613 -0.561004
v 0.354739 0.121698 0.554983
v 0.350653 0.117613 0.554983
v 0.350653 0.117613 0.554983
v 0.354739 0.121698 0.554983
v 0.350653 0.117613 -0.561004
v 0.354739 0.121698 0.554983
v 0.340789 0.127476 0.554983
v 0.350653 0.117613 0.554983
v 0.350653 0.117613 0.554983
v 0.340789 0.127476 0.554983
v 0.354739 0.121698 0.554983
v 0.354739 0.121698 0.554983
v 0.350653 0.117613 -0.561004
v 0.597253 0.364214 0.554983
v 0.597253 0.364214 0.554983
v 0.350653 0.117613 -0.561004
v 0.354739 0.121698 0.554983
v 0.340789 0.127476 0.554983
v 0.354739 0.121698 0.554983
v 0.597253 0.364214 0.554983
v 0.597253 0.364214 0.554983
v 0.354739 0.121698 0.554983
v 0.340789 0.127476 0.554983
vn 0 0 -1
vn 0 0 1
vn -0.7071067811865476 0.7071067811865476 0
vn 0.7071067811865476 -0.7071067811865476 0
vn 0.7071067811865476 0.7071067811865476 0
vn -0.7071067811865476 -0.7071067811865476 0
usemtl material_0_0
f 1//1 2//1 3//1
f 4//2 5//2 6//2
f 7//1 8//1 9//1
f 10//2 11//2 12//2
f 13//3 14//3 15//3
f 16//4 17//4 18//4
f 19//1 20//1 21//1
f 22//2 23//2 24//2
f 25//5 26//5 27//5
f 28//6 29//6 30//6
f 31//3 32//3 33//3
f 34//4 35//4 36//4
f 37//4 38//4 39//4
f 40//3 41//3 42//3
f 43//5 44//5 45//5
f 46//6 47//6 48//6
f 49//4 50//4 51//4
f 52//3 53//3 54//3
f 55//2 56//2 57//2
f 58//1 59//1 60//1
f 61//4 62//4 63//4
f 64//3 65//3 66//3
f 67//2 68//2 69//2
f 70//1 71//1 72//1
f 73//4 74//4 75//4
f 76//3 77//3 78//3
f 79//2 80//2 81//2
f 82//1 83//1 84//1
