# SSTK version 0.8.0
# 1
mtllib original-1.mtl
o 3dw.be3f5a83e94251a7c1a0f8bf0959443/Model/Group1/mesh1/mesh1-geometry/material_0/component_0#mesh1-geometry
v -0.613168 0.364214 -0.561004
v -0.370653 0.127476 -0.561004
v -0.370653 0.121698 -0.561004
v -0.370653 0.121698 -0.561004
v -0.370653 0.127476 -0.561004
v -0.613168 0.364214 -0.561004
v -0.370653 0.127476 -0.561004
v -0.613168 0.364214 -0.561004
v -0.356811 0.127476 -0.561004
v -0.356811 0.127476 -0.561004
v -0.613168 0.364214 -0.561004
v -0.370653 0.127476 -0.561004
v -0.366621 0.117666 -0.561004
v -0.613168 0.364214 -0.561004
v -0.370653 0.121698 -0.561004
v -0.370653 0.121698 -0.561004
v -0.613168 0.364214 -0.561004
v -0.366621 0.117666 -0.561004
v -0.356811 0.127476 -0.561004
v -0.613168 0.364214 -0.561004
v -0.356758 0.127529 -0.561004
v -0.356758 0.127529 -0.561004
v -0.613168 0.364214 -0.561004
v -0.603304 0.374078 -0.561004
v -0.356758 0.127529 -0.561004
v -0.613168 0.364214 -0.561004
v -0.356811 0.127476 -0.561004
v -0.603304 0.374078 -0.561004
v -0.613168 0.364214 -0.561004
v -0.356758 0.127529 -0.561004
v -0.366567 0.117613 0.554983
v -0.613168 0.364214 -0.561004
v -0.366621 0.117666 -0.561004
v -0.366621 0.117666 -0.561004
v -0.613168 0.364214 -0.561004
v -0.366567 0.117613 0.554983
v -0.613168 0.364214 0.554983
v -0.603304 0.374078 -0.561004
v -0.613168 0.364214 -0.561004
v -0.613168 0.364214 -0.561004
v -0.603304 0.374078 -0.561004
v -0.613168 0.364214 0.554983
v -0.603304 0.374078 0.554983
v -0.356758 0.127529 -0.561004
v -0.603304 0.374078 -0.561004
v -0.603304 0.374078 -0.561004
v -0.356758 0.127529 -0.561004
v -0.603304 0.374078 0.554983
v -0.370653 0.121698 0.554983
v -0.613168 0.364214 -0.561004
v -0.366567 0.117613 0.554983
v -0.366567 0.117613 0.554983
v -0.613168 0.364214 -0.561004
v -0.370653 0.121698 0.554983
v -0.356758 0.127529 -0.561004
v -0.603304 0.374078 0.554983
v -0.356703 0.127476 0.554983
v -0.356703 0.127476 0.554983
v -0.603304 0.374078 0.554983
v -0.356758 0.127529 -0.561004
v -0.603304 0.374078 -0.561004
v -0.613168 0.364214 0.554983
v -0.603304 0.374078 0.554983
v -0.603304 0.374078 0.554983
v -0.613168 0.364214 0.554983
v -0.603304 0.374078 -0.561004
v -0.613168 0.364214 -0.561004
v -0.370653 0.121698 0.554983
v -0.613168 0.364214 0.554983
v -0.613168 0.364214 0.554983
v -0.370653 0.121698 0.554983
v -0.613168 0.364214 -0.561004
v -0.356703 0.127476 0.554983
v -0.370653 0.121698 0.554983
v -0.366567 0.117613 0.554983
v -0.366567 0.117613 0.554983
v -0.370653 0.121698 0.554983
v -0.356703 0.127476 0.554983
v -0.613168 0.364214 0.554983
v -0.356703 0.127476 0.554983
v -0.603304 0.374078 0.554983
v -0.603304 0.374078 0.554983
v -0.356703 0.127476 0.554983
v -0.613168 0.364214 0.554983
v -0.370653 0.121698 0.554983
v -0.356703 0.127476 0.554983
v -0.613168 0.364214 0.554983
v -0.613168 0.364214 0.554983
v -0.356703 0.127476 0.554983
v -0.370653 0.121698 0.554983
vn 0 0 -1
vn 0 0 1
vn -0.7071067811865476 -0.7071067811865476 0
vn 0.7071067811865476 0.7071067811865476 0
vn -0.7071067811865476 0.7071067811865476 0
vn 0.7071067811865476 -0.7071067811865476 0
usemtl material_0_0
f 1//1 2//1 3//1
f 4//2 5//2 6//2
f 7//1 8//1 9//1
f 10//2 11//2 12//2
f 13//3 14//3 15//3
f 16//4 17//4 18//4
f 19//1 20//1 21//1
f 22//1 23//1 24//1
f 25//2 26//2 27//2
f 28//2 29//2 30//2
f 31//3 32//3 33//3
f 34//4 35//4 36//4
f 37//5 38//5 39//5
f 40//6 41//6 42//6
f 43//4 44//4 45//4
f 46//3 47//3 48//3
f 49//3 50//3 51//3
f 52//4 53//4 54//4
f 55//4 56//4 57//4
f 58//3 59//3 60//3
f 61//5 62//5 63//5
f 64//6 65//6 66//6
f 67//3 68//3 69//3
f 70//4 71//4 72//4
f 73//2 74//2 75//2
f 76//1 77//1 78//1
f 79//2 80//2 81//2
f 82//1 83//1 84//1
f 85//2 86//2 87//2
f 88//1 89//1 90//1
