# SSTK version 0.8.0
# 7
mtllib original-7.mtl
o 3dw.be3f5a83e94251a7c1a0f8bf0959443/Model/Group1/mesh1/mesh1-geometry/material_1/component_2#mesh1-geometry
v 0.340789 0.423397 0.850904
v 0.340789 0.413533 0.860767
v 0.340789 0.423531 0.851039
v 0.340789 0.413667 0.860902
v 0.340789 0.423531 0.851039
v 0.340789 0.413533 0.860767
v 0.340789 0.423531 0.851039
v 0.340789 0.413533 0.860767
v 0.340789 0.423397 0.850904
v 0.340789 0.413533 0.860767
v 0.340789 0.423531 0.851039
v 0.340789 0.413667 0.860902
vn -1 0 0
vn 1 0 0
usemtl material_0_0
f 1//1 2//1 3//1
f 4//1 5//1 6//1
usemtl material_1_0
f 7//2 8//2 9//2
f 10//2 11//2 12//2
