# Model exported from LeoCAD
#

mtllib 3X1X1.mtl

v 24.00 0.00 0.00
v 23.70 1.53 0.00
v 22.83 2.83 0.00
v 21.53 3.70 0.00
v 20.00 4.00 0.00
v 18.47 3.70 0.00
v 17.17 2.83 0.00
v 16.30 1.53 0.00
v 16.00 0.00 0.00
v 16.30 -1.53 0.00
v 17.17 -2.83 0.00
v 18.47 -3.70 0.00
v 20.00 -4.00 0.00
v 21.53 -3.70 0.00
v 22.83 -2.83 0.00
v 23.70 -1.53 0.00
v 24.00 0.00 20.00
v 23.70 1.53 20.00
v 22.83 2.83 20.00
v 21.53 3.70 20.00
v 20.00 4.00 20.00
v 18.47 3.70 20.00
v 17.17 2.83 20.00
v 16.30 1.53 20.00
v 16.00 0.00 20.00
v 16.30 -1.53 20.00
v 17.17 -2.83 20.00
v 18.47 -3.70 20.00
v 20.00 -4.00 20.00
v 21.53 -3.70 20.00
v 22.83 -2.83 20.00
v 23.70 -1.53 20.00
v 20.00 0.00 0.00
v 23.70 1.53 0.00
v 24.00 0.00 0.00
v 22.83 2.83 0.00
v 21.53 3.70 0.00
v 20.00 4.00 0.00
v 18.47 3.70 0.00
v 17.17 2.83 0.00
v 16.30 1.53 0.00
v 16.00 0.00 0.00
v 16.30 -1.53 0.00
v 17.17 -2.83 0.00
v 18.47 -3.70 0.00
v 20.00 -4.00 0.00
v 21.53 -3.70 0.00
v 22.83 -2.83 0.00
v 23.70 -1.53 0.00
v 4.00 0.00 0.00
v 3.70 1.53 0.00
v 2.83 2.83 0.00
v 1.53 3.70 0.00
v 0.00 4.00 0.00
v -1.53 3.70 0.00
v -2.83 2.83 0.00
v -3.70 1.53 0.00
v -4.00 0.00 0.00
v -3.70 -1.53 0.00
v -2.83 -2.83 0.00
v -1.53 -3.70 0.00
v 0.00 -4.00 0.00
v 1.53 -3.70 0.00
v 2.83 -2.83 0.00
v 3.70 -1.53 0.00
v 4.00 0.00 20.00
v 3.70 1.53 20.00
v 2.83 2.83 20.00
v 1.53 3.70 20.00
v 0.00 4.00 20.00
v -1.53 3.70 20.00
v -2.83 2.83 20.00
v -3.70 1.53 20.00
v -4.00 0.00 20.00
v -3.70 -1.53 20.00
v -2.83 -2.83 20.00
v -1.53 -3.70 20.00
v 0.00 -4.00 20.00
v 1.53 -3.70 20.00
v 2.83 -2.83 20.00
v 3.70 -1.53 20.00
v 0.00 0.00 0.00
v 3.70 1.53 0.00
v 4.00 0.00 0.00
v 2.83 2.83 0.00
v 1.53 3.70 0.00
v 0.00 4.00 0.00
v -1.53 3.70 0.00
v -2.83 2.83 0.00
v -3.70 1.53 0.00
v -4.00 0.00 0.00
v -3.70 -1.53 0.00
v -2.83 -2.83 0.00
v -1.53 -3.70 0.00
v 0.00 -4.00 0.00
v 1.53 -3.70 0.00
v 2.83 -2.83 0.00
v 3.70 -1.53 0.00
v 36.00 6.00 20.00
v -16.00 6.00 20.00
v -16.00 -6.00 20.00
v 36.00 -6.00 20.00
v 36.00 6.00 0.00
v -16.00 6.00 0.00
v -16.00 -6.00 0.00
v 36.00 -6.00 0.00
v -16.00 6.00 20.00
v 36.00 6.00 20.00
v -16.00 -6.00 20.00
v -16.00 6.00 0.00
v -16.00 6.00 20.00
v 36.00 -6.00 20.00
v -16.00 -6.00 0.00
v -16.00 -6.00 20.00
v 36.00 6.00 20.00
v 36.00 6.00 0.00
v 36.00 -6.00 0.00
v 36.00 -6.00 20.00
v 40.00 10.00 0.00
v 36.00 6.00 0.00
v -16.00 6.00 0.00
v -20.00 10.00 0.00
v -16.00 -6.00 0.00
v -20.00 -10.00 0.00
v 36.00 -6.00 0.00
v 40.00 -10.00 0.00
v 40.00 10.00 24.00
v -20.00 10.00 24.00
v -20.00 -10.00 24.00
v 40.00 -10.00 24.00
v 40.00 10.00 0.00
v -20.00 10.00 0.00
v -20.00 -10.00 0.00
v 40.00 -10.00 0.00
v 40.00 10.00 24.00
v -20.00 10.00 24.00
v -20.00 10.00 24.00
v -20.00 -10.00 24.00
v -20.00 10.00 0.00
v 40.00 -10.00 24.00
v 40.00 10.00 24.00
v 40.00 10.00 0.00
v 36.00 0.00 24.00
v 35.54 2.30 24.00
v 34.24 4.24 24.00
v 32.30 5.54 24.00
v 30.00 6.00 24.00
v 27.70 5.54 24.00
v 25.76 4.24 24.00
v 24.46 2.30 24.00
v 24.00 0.00 24.00
v 24.46 -2.30 24.00
v 25.76 -4.24 24.00
v 27.70 -5.54 24.00
v 30.00 -6.00 24.00
v 32.30 -5.54 24.00
v 34.24 -4.24 24.00
v 35.54 -2.30 24.00
v 36.00 0.00 28.00
v 35.54 2.30 28.00
v 34.24 4.24 28.00
v 32.30 5.54 28.00
v 30.00 6.00 28.00
v 27.70 5.54 28.00
v 25.76 4.24 28.00
v 24.46 2.30 28.00
v 24.00 0.00 28.00
v 24.46 -2.30 28.00
v 25.76 -4.24 28.00
v 27.70 -5.54 28.00
v 30.00 -6.00 28.00
v 32.30 -5.54 28.00
v 34.24 -4.24 28.00
v 35.54 -2.30 28.00
v 30.00 0.00 28.00
v 36.00 0.00 28.00
v 35.54 2.30 28.00
v 34.24 4.24 28.00
v 32.30 5.54 28.00
v 30.00 6.00 28.00
v 27.70 5.54 28.00
v 25.76 4.24 28.00
v 24.46 2.30 28.00
v 24.00 0.00 28.00
v 24.46 -2.30 28.00
v 25.76 -4.24 28.00
v 27.70 -5.54 28.00
v 30.00 -6.00 28.00
v 32.30 -5.54 28.00
v 34.24 -4.24 28.00
v 35.54 -2.30 28.00
v 16.00 0.00 24.00
v 15.54 2.30 24.00
v 14.24 4.24 24.00
v 12.30 5.54 24.00
v 10.00 6.00 24.00
v 7.70 5.54 24.00
v 5.76 4.24 24.00
v 4.46 2.30 24.00
v 4.00 0.00 24.00
v 4.46 -2.30 24.00
v 5.76 -4.24 24.00
v 7.70 -5.54 24.00
v 10.00 -6.00 24.00
v 12.30 -5.54 24.00
v 14.24 -4.24 24.00
v 15.54 -2.30 24.00
v 16.00 0.00 28.00
v 15.54 2.30 28.00
v 14.24 4.24 28.00
v 12.30 5.54 28.00
v 10.00 6.00 28.00
v 7.70 5.54 28.00
v 5.76 4.24 28.00
v 4.46 2.30 28.00
v 4.00 0.00 28.00
v 4.46 -2.30 28.00
v 5.76 -4.24 28.00
v 7.70 -5.54 28.00
v 10.00 -6.00 28.00
v 12.30 -5.54 28.00
v 14.24 -4.24 28.00
v 15.54 -2.30 28.00
v 10.00 0.00 28.00
v 16.00 0.00 28.00
v 15.54 2.30 28.00
v 14.24 4.24 28.00
v 12.30 5.54 28.00
v 10.00 6.00 28.00
v 7.70 5.54 28.00
v 5.76 4.24 28.00
v 4.46 2.30 28.00
v 4.00 0.00 28.00
v 4.46 -2.30 28.00
v 5.76 -4.24 28.00
v 7.70 -5.54 28.00
v 10.00 -6.00 28.00
v 12.30 -5.54 28.00
v 14.24 -4.24 28.00
v 15.54 -2.30 28.00
v -4.00 0.00 24.00
v -4.46 2.30 24.00
v -5.76 4.24 24.00
v -7.70 5.54 24.00
v -10.00 6.00 24.00
v -12.30 5.54 24.00
v -14.24 4.24 24.00
v -15.54 2.30 24.00
v -16.00 0.00 24.00
v -15.54 -2.30 24.00
v -14.24 -4.24 24.00
v -12.30 -5.54 24.00
v -10.00 -6.00 24.00
v -7.70 -5.54 24.00
v -5.76 -4.24 24.00
v -4.46 -2.30 24.00
v -4.00 0.00 28.00
v -4.46 2.30 28.00
v -5.76 4.24 28.00
v -7.70 5.54 28.00
v -10.00 6.00 28.00
v -12.30 5.54 28.00
v -14.24 4.24 28.00
v -15.54 2.30 28.00
v -16.00 0.00 28.00
v -15.54 -2.30 28.00
v -14.24 -4.24 28.00
v -12.30 -5.54 28.00
v -10.00 -6.00 28.00
v -7.70 -5.54 28.00
v -5.76 -4.24 28.00
v -4.46 -2.30 28.00
v -10.00 0.00 28.00
v -4.00 0.00 28.00
v -4.46 2.30 28.00
v -5.76 4.24 28.00
v -7.70 5.54 28.00
v -10.00 6.00 28.00
v -12.30 5.54 28.00
v -14.24 4.24 28.00
v -15.54 2.30 28.00
v -16.00 0.00 28.00
v -15.54 -2.30 28.00
v -14.24 -4.24 28.00
v -12.30 -5.54 28.00
v -10.00 -6.00 28.00
v -7.70 -5.54 28.00
v -5.76 -4.24 28.00
v -4.46 -2.30 28.00
v 40.00 -10.00 24.00
v -20.00 -10.00 24.00
v -20.00 -10.00 0.00
v 40.00 -10.00 0.00
#

vn 0.00 0.00 -1.00
vn 0.00 0.00 -1.00
vn 0.00 0.00 -1.00
vn 0.00 0.00 -1.00
vn 0.00 0.00 -1.00
vn 0.00 0.00 -1.00
vn 0.00 0.00 -1.00
vn 0.00 0.00 -1.00
vn 0.00 0.00 -1.00
vn 0.00 0.00 -1.00
vn 0.00 0.00 -1.00
vn 0.00 0.00 -1.00
vn 0.00 0.00 -1.00
vn 0.00 0.00 -1.00
vn 0.00 0.00 -1.00
vn 0.00 0.00 -1.00
vn 1.00 0.00 0.00
vn 0.92 0.38 0.00
vn 0.70 0.70 0.00
vn 0.38 0.92 0.00
vn 0.00 1.00 0.00
vn -0.38 0.92 0.00
vn -0.70 0.70 0.00
vn -0.92 0.38 0.00
vn -1.00 0.00 0.00
vn -0.92 -0.38 0.00
vn -0.70 -0.70 0.00
vn -0.38 -0.92 0.00
vn 0.00 -1.00 0.00
vn 0.38 -0.92 0.00
vn 0.70 -0.70 0.00
vn 0.92 -0.38 0.00
vn 0.00 0.00 -1.00
vn 0.92 0.38 0.00
vn 1.00 0.00 0.00
vn 0.70 0.70 0.00
vn 0.38 0.92 0.00
vn 0.00 1.00 0.00
vn -0.38 0.92 0.00
vn -0.70 0.70 0.00
vn -0.92 0.38 0.00
vn -1.00 0.00 0.00
vn -0.92 -0.38 0.00
vn -0.70 -0.70 0.00
vn -0.38 -0.92 0.00
vn 0.00 -1.00 0.00
vn 0.38 -0.92 0.00
vn 0.70 -0.70 0.00
vn 0.92 -0.38 0.00
vn 0.00 0.00 -1.00
vn 0.00 0.00 -1.00
vn 0.00 0.00 -1.00
vn 0.00 0.00 -1.00
vn 0.00 0.00 -1.00
vn 0.00 0.00 -1.00
vn 0.00 0.00 -1.00
vn 0.00 0.00 -1.00
vn 0.00 0.00 -1.00
vn 0.00 0.00 -1.00
vn 0.00 0.00 -1.00
vn 0.00 0.00 -1.00
vn 0.00 0.00 -1.00
vn 0.00 0.00 -1.00
vn 0.00 0.00 -1.00
vn 0.00 0.00 -1.00
vn 1.00 0.00 0.00
vn 0.92 0.38 0.00
vn 0.70 0.70 0.00
vn 0.38 0.92 0.00
vn 0.00 1.00 0.00
vn -0.38 0.92 0.00
vn -0.70 0.70 0.00
vn -0.92 0.38 0.00
vn -1.00 0.00 0.00
vn -0.92 -0.38 0.00
vn -0.70 -0.70 0.00
vn -0.38 -0.92 0.00
vn 0.00 -1.00 0.00
vn 0.38 -0.92 0.00
vn 0.70 -0.70 0.00
vn 0.92 -0.38 0.00
vn 0.00 0.00 -1.00
vn 0.92 0.38 0.00
vn 1.00 0.00 0.00
vn 0.70 0.70 0.00
vn 0.38 0.92 0.00
vn 0.00 1.00 0.00
vn -0.38 0.92 0.00
vn -0.70 0.70 0.00
vn -0.92 0.38 0.00
vn -1.00 0.00 0.00
vn -0.92 -0.38 0.00
vn -0.70 -0.70 0.00
vn -0.38 -0.92 0.00
vn 0.00 -1.00 0.00
vn 0.38 -0.92 0.00
vn 0.70 -0.70 0.00
vn 0.92 -0.38 0.00
vn 0.00 0.00 -1.00
vn 0.00 0.00 -1.00
vn 0.00 0.00 -1.00
vn 0.00 0.00 -1.00
vn 0.00 -1.00 0.00
vn 0.00 -1.00 0.00
vn 0.99 0.00 0.00
vn 0.00 1.00 0.00
vn 0.00 -1.00 0.00
vn 0.00 -1.00 0.00
vn 0.99 0.00 0.00
vn 0.99 0.00 0.00
vn 0.99 0.00 0.00
vn 0.00 1.00 0.00
vn 0.00 1.00 0.00
vn 0.00 1.00 0.00
vn -0.99 0.00 0.00
vn -0.99 0.00 0.00
vn -0.99 0.00 0.00
vn -0.99 0.00 0.00
vn 0.00 0.00 -1.00
vn 0.00 0.00 -1.00
vn 0.00 0.00 -1.00
vn 0.00 0.00 -1.00
vn 0.00 0.00 -1.00
vn 0.00 0.00 -1.00
vn 0.00 0.00 -1.00
vn 0.00 0.00 -1.00
vn 0.00 0.00 1.00
vn 0.00 0.00 1.00
vn 0.00 0.00 1.00
vn 0.00 0.00 1.00
vn 0.00 1.00 0.00
vn 0.00 1.00 0.00
vn -1.00 0.00 0.00
vn 1.00 0.00 0.00
vn 0.00 1.00 0.00
vn 0.00 1.00 0.00
vn -1.00 0.00 0.00
vn -1.00 0.00 0.00
vn -1.00 0.00 0.00
vn 1.00 0.00 0.00
vn 1.00 0.00 0.00
vn 1.00 0.00 0.00
vn 1.00 0.00 0.00
vn 0.92 0.38 0.00
vn 0.70 0.70 0.00
vn 0.38 0.92 0.00
vn 0.00 1.00 0.00
vn -0.38 0.92 0.00
vn -0.70 0.70 0.00
vn -0.92 0.38 0.00
vn -1.00 0.00 0.00
vn -0.92 -0.38 0.00
vn -0.70 -0.70 0.00
vn -0.38 -0.92 0.00
vn 0.00 -1.00 0.00
vn 0.38 -0.92 0.00
vn 0.70 -0.70 0.00
vn 0.92 -0.38 0.00
vn 1.00 0.00 0.00
vn 0.92 0.38 0.00
vn 0.70 0.70 0.00
vn 0.38 0.92 0.00
vn 0.00 1.00 0.00
vn -0.38 0.92 0.00
vn -0.70 0.70 0.00
vn -0.92 0.38 0.00
vn -1.00 0.00 0.00
vn -0.92 -0.38 0.00
vn -0.70 -0.70 0.00
vn -0.38 -0.92 0.00
vn 0.00 -1.00 0.00
vn 0.38 -0.92 0.00
vn 0.70 -0.70 0.00
vn 0.92 -0.38 0.00
vn 0.00 0.00 1.00
vn 0.00 0.00 1.00
vn 0.00 0.00 1.00
vn 0.00 0.00 1.00
vn 0.00 0.00 1.00
vn 0.00 0.00 1.00
vn 0.00 0.00 1.00
vn 0.00 0.00 1.00
vn 0.00 0.00 1.00
vn 0.00 0.00 1.00
vn 0.00 0.00 1.00
vn 0.00 0.00 1.00
vn 0.00 0.00 1.00
vn 0.00 0.00 1.00
vn 0.00 0.00 1.00
vn 0.00 0.00 1.00
vn 0.00 0.00 1.00
vn 1.00 0.00 0.00
vn 0.92 0.38 0.00
vn 0.70 0.70 0.00
vn 0.38 0.92 0.00
vn 0.00 1.00 0.00
vn -0.38 0.92 0.00
vn -0.70 0.70 0.00
vn -0.92 0.38 0.00
vn -1.00 0.00 0.00
vn -0.92 -0.38 0.00
vn -0.70 -0.70 0.00
vn -0.38 -0.92 0.00
vn 0.00 -1.00 0.00
vn 0.38 -0.92 0.00
vn 0.70 -0.70 0.00
vn 0.92 -0.38 0.00
vn 1.00 0.00 0.00
vn 0.92 0.38 0.00
vn 0.70 0.70 0.00
vn 0.38 0.92 0.00
vn 0.00 1.00 0.00
vn -0.38 0.92 0.00
vn -0.70 0.70 0.00
vn -0.92 0.38 0.00
vn -1.00 0.00 0.00
vn -0.92 -0.38 0.00
vn -0.70 -0.70 0.00
vn -0.38 -0.92 0.00
vn 0.00 -1.00 0.00
vn 0.38 -0.92 0.00
vn 0.70 -0.70 0.00
vn 0.92 -0.38 0.00
vn 0.00 0.00 1.00
vn 0.00 0.00 1.00
vn 0.00 0.00 1.00
vn 0.00 0.00 1.00
vn 0.00 0.00 1.00
vn 0.00 0.00 1.00
vn 0.00 0.00 1.00
vn 0.00 0.00 1.00
vn 0.00 0.00 1.00
vn 0.00 0.00 1.00
vn 0.00 0.00 1.00
vn 0.00 0.00 1.00
vn 0.00 0.00 1.00
vn 0.00 0.00 1.00
vn 0.00 0.00 1.00
vn 0.00 0.00 1.00
vn 0.00 0.00 1.00
vn 1.00 0.00 0.00
vn 0.92 0.38 0.00
vn 0.70 0.70 0.00
vn 0.38 0.92 0.00
vn 0.00 1.00 0.00
vn -0.38 0.92 0.00
vn -0.70 0.70 0.00
vn -0.92 0.38 0.00
vn -1.00 0.00 0.00
vn -0.92 -0.38 0.00
vn -0.70 -0.70 0.00
vn -0.38 -0.92 0.00
vn 0.00 -1.00 0.00
vn 0.38 -0.92 0.00
vn 0.70 -0.70 0.00
vn 0.92 -0.38 0.00
vn 1.00 0.00 0.00
vn 0.92 0.38 0.00
vn 0.70 0.70 0.00
vn 0.38 0.92 0.00
vn 0.00 1.00 0.00
vn -0.38 0.92 0.00
vn -0.70 0.70 0.00
vn -0.92 0.38 0.00
vn -1.00 0.00 0.00
vn -0.92 -0.38 0.00
vn -0.70 -0.70 0.00
vn -0.38 -0.92 0.00
vn 0.00 -1.00 0.00
vn 0.38 -0.92 0.00
vn 0.70 -0.70 0.00
vn 0.92 -0.38 0.00
vn 0.00 0.00 1.00
vn 0.00 0.00 1.00
vn 0.00 0.00 1.00
vn 0.00 0.00 1.00
vn 0.00 0.00 1.00
vn 0.00 0.00 1.00
vn 0.00 0.00 1.00
vn 0.00 0.00 1.00
vn 0.00 0.00 1.00
vn 0.00 0.00 1.00
vn 0.00 0.00 1.00
vn 0.00 0.00 1.00
vn 0.00 0.00 1.00
vn 0.00 0.00 1.00
vn 0.00 0.00 1.00
vn 0.00 0.00 1.00
vn 0.00 0.00 1.00
vn 0.00 -1.00 0.00
vn 0.00 -1.00 0.00
vn 0.00 -1.00 0.00
vn 0.00 -1.00 0.00
#

g Piece000
usemtl Light_Grey
f 2//2 1//1 33//33
f 3//3 2//2 33//33
f 4//4 3//3 33//33
f 5//5 4//4 33//33
f 6//6 5//5 33//33
f 7//7 6//6 33//33
f 8//8 7//7 33//33
f 9//9 8//8 33//33
f 10//10 9//9 33//33
f 11//11 10//10 33//33
f 12//12 11//11 33//33
f 13//13 12//12 33//33
f 14//14 13//13 33//33
f 15//15 14//14 33//33
f 16//16 15//15 33//33
f 1//1 16//16 33//33
f 17//17 35//35 34//34
f 34//34 18//18 17//17
f 18//18 34//34 36//36
f 36//36 19//19 18//18
f 19//19 36//36 37//37
f 37//37 20//20 19//19
f 20//20 37//37 38//38
f 38//38 21//21 20//20
f 21//21 38//38 39//39
f 39//39 22//22 21//21
f 22//22 39//39 40//40
f 40//40 23//23 22//22
f 23//23 40//40 41//41
f 41//41 24//24 23//23
f 24//24 41//41 42//42
f 42//42 25//25 24//24
f 25//25 42//42 43//43
f 43//43 26//26 25//25
f 26//26 43//43 44//44
f 44//44 27//27 26//26
f 27//27 44//44 45//45
f 45//45 28//28 27//27
f 28//28 45//45 46//46
f 46//46 29//29 28//28
f 29//29 46//46 47//47
f 47//47 30//30 29//29
f 30//30 47//47 48//48
f 48//48 31//31 30//30
f 31//31 48//48 49//49
f 49//49 32//32 31//31
f 32//32 49//49 35//35
f 35//35 17//17 32//32
f 51//51 50//50 82//82
f 52//52 51//51 82//82
f 53//53 52//52 82//82
f 54//54 53//53 82//82
f 55//55 54//54 82//82
f 56//56 55//55 82//82
f 57//57 56//56 82//82
f 58//58 57//57 82//82
f 59//59 58//58 82//82
f 60//60 59//59 82//82
f 61//61 60//60 82//82
f 62//62 61//61 82//82
f 63//63 62//62 82//82
f 64//64 63//63 82//82
f 65//65 64//64 82//82
f 50//50 65//65 82//82
f 66//66 84//84 83//83
f 83//83 67//67 66//66
f 67//67 83//83 85//85
f 85//85 68//68 67//67
f 68//68 85//85 86//86
f 86//86 69//69 68//68
f 69//69 86//86 87//87
f 87//87 70//70 69//69
f 70//70 87//87 88//88
f 88//88 71//71 70//70
f 71//71 88//88 89//89
f 89//89 72//72 71//71
f 72//72 89//89 90//90
f 90//90 73//73 72//72
f 73//73 90//90 91//91
f 91//91 74//74 73//73
f 74//74 91//91 92//92
f 92//92 75//75 74//74
f 75//75 92//92 93//93
f 93//93 76//76 75//75
f 76//76 93//93 94//94
f 94//94 77//77 76//76
f 77//77 94//94 95//95
f 95//95 78//78 77//77
f 78//78 95//95 96//96
f 96//96 79//79 78//78
f 79//79 96//96 97//97
f 97//97 80//80 79//79
f 80//80 97//97 98//98
f 98//98 81//81 80//80
f 81//81 98//98 84//84
f 84//84 66//66 81//81
f 102//102 101//101 100//100
f 100//100 99//99 102//102
f 103//103 108//108 107//107
f 107//107 104//104 103//103
f 110//110 111//111 109//109
f 109//109 105//105 110//110
f 113//113 114//114 112//112
f 112//112 106//106 113//113
f 117//117 118//118 115//115
f 115//115 116//116 117//117
f 121//121 122//122 119//119
f 119//119 120//120 121//121
f 123//123 124//124 122//122
f 122//122 121//121 123//123
f 125//125 126//126 124//124
f 124//124 123//123 125//125
f 120//120 119//119 126//126
f 126//126 125//125 120//120
f 127//127 128//128 129//129
f 129//129 130//130 127//127
f 135//135 131//131 132//132
f 132//132 136//136 135//135
f 137//137 139//139 133//133
f 133//133 138//138 137//137
f 140//140 134//134 142//142
f 142//142 141//141 140//140
f 159//159 143//143 144//144
f 144//144 160//160 159//159
f 160//160 144//144 145//145
f 145//145 161//161 160//160
f 161//161 145//145 146//146
f 146//146 162//162 161//161
f 162//162 146//146 147//147
f 147//147 163//163 162//162
f 163//163 147//147 148//148
f 148//148 164//164 163//163
f 164//164 148//148 149//149
f 149//149 165//165 164//164
f 165//165 149//149 150//150
f 150//150 166//166 165//165
f 166//166 150//150 151//151
f 151//151 167//167 166//166
f 167//167 151//151 152//152
f 152//152 168//168 167//167
f 168//168 152//152 153//153
f 153//153 169//169 168//168
f 169//169 153//153 154//154
f 154//154 170//170 169//169
f 170//170 154//154 155//155
f 155//155 171//171 170//170
f 171//171 155//155 156//156
f 156//156 172//172 171//171
f 172//172 156//156 157//157
f 157//157 173//173 172//172
f 173//173 157//157 158//158
f 158//158 174//174 173//173
f 174//174 158//158 143//143
f 143//143 159//159 174//174
f 175//175 176//176 177//177
f 175//175 177//177 178//178
f 175//175 178//178 179//179
f 175//175 179//179 180//180
f 175//175 180//180 181//181
f 175//175 181//181 182//182
f 175//175 182//182 183//183
f 175//175 183//183 184//184
f 175//175 184//184 185//185
f 175//175 185//185 186//186
f 175//175 186//186 187//187
f 175//175 187//187 188//188
f 175//175 188//188 189//189
f 175//175 189//189 190//190
f 175//175 190//190 191//191
f 175//175 191//191 176//176
f 208//208 192//192 193//193
f 193//193 209//209 208//208
f 209//209 193//193 194//194
f 194//194 210//210 209//209
f 210//210 194//194 195//195
f 195//195 211//211 210//210
f 211//211 195//195 196//196
f 196//196 212//212 211//211
f 212//212 196//196 197//197
f 197//197 213//213 212//212
f 213//213 197//197 198//198
f 198//198 214//214 213//213
f 214//214 198//198 199//199
f 199//199 215//215 214//214
f 215//215 199//199 200//200
f 200//200 216//216 215//215
f 216//216 200//200 201//201
f 201//201 217//217 216//216
f 217//217 201//201 202//202
f 202//202 218//218 217//217
f 218//218 202//202 203//203
f 203//203 219//219 218//218
f 219//219 203//203 204//204
f 204//204 220//220 219//219
f 220//220 204//204 205//205
f 205//205 221//221 220//220
f 221//221 205//205 206//206
f 206//206 222//222 221//221
f 222//222 206//206 207//207
f 207//207 223//223 222//222
f 223//223 207//207 192//192
f 192//192 208//208 223//223
f 224//224 225//225 226//226
f 224//224 226//226 227//227
f 224//224 227//227 228//228
f 224//224 228//228 229//229
f 224//224 229//229 230//230
f 224//224 230//230 231//231
f 224//224 231//231 232//232
f 224//224 232//232 233//233
f 224//224 233//233 234//234
f 224//224 234//234 235//235
f 224//224 235//235 236//236
f 224//224 236//236 237//237
f 224//224 237//237 238//238
f 224//224 238//238 239//239
f 224//224 239//239 240//240
f 224//224 240//240 225//225
f 257//257 241//241 242//242
f 242//242 258//258 257//257
f 258//258 242//242 243//243
f 243//243 259//259 258//258
f 259//259 243//243 244//244
f 244//244 260//260 259//259
f 260//260 244//244 245//245
f 245//245 261//261 260//260
f 261//261 245//245 246//246
f 246//246 262//262 261//261
f 262//262 246//246 247//247
f 247//247 263//263 262//262
f 263//263 247//247 248//248
f 248//248 264//264 263//263
f 264//264 248//248 249//249
f 249//249 265//265 264//264
f 265//265 249//249 250//250
f 250//250 266//266 265//265
f 266//266 250//250 251//251
f 251//251 267//267 266//266
f 267//267 251//251 252//252
f 252//252 268//268 267//267
f 268//268 252//252 253//253
f 253//253 269//269 268//268
f 269//269 253//253 254//254
f 254//254 270//270 269//269
f 270//270 254//254 255//255
f 255//255 271//271 270//270
f 271//271 255//255 256//256
f 256//256 272//272 271//271
f 272//272 256//256 241//241
f 241//241 257//257 272//272
f 273//273 274//274 275//275
f 273//273 275//275 276//276
f 273//273 276//276 277//277
f 273//273 277//277 278//278
f 273//273 278//278 279//279
f 273//273 279//279 280//280
f 273//273 280//280 281//281
f 273//273 281//281 282//282
f 273//273 282//282 283//283
f 273//273 283//283 284//284
f 273//273 284//284 285//285
f 273//273 285//285 286//286
f 273//273 286//286 287//287
f 273//273 287//287 288//288
f 273//273 288//288 289//289
f 273//273 289//289 274//274
f 292//292 293//293 290//290
f 290//290 291//291 292//292

