# Model exported from LeoCAD
#

mtllib 2X1X1.mtl

v 4.00 0.00 0.00
v 3.70 1.53 0.00
v 2.83 2.83 0.00
v 1.53 3.70 0.00
v 0.00 4.00 0.00
v -1.53 3.70 0.00
v -2.83 2.83 0.00
v -3.70 1.53 0.00
v -4.00 0.00 0.00
v -3.70 -1.53 0.00
v -2.83 -2.83 0.00
v -1.53 -3.70 0.00
v 0.00 -4.00 0.00
v 1.53 -3.70 0.00
v 2.83 -2.83 0.00
v 3.70 -1.53 0.00
v 4.00 0.00 20.00
v 3.70 1.53 20.00
v 2.83 2.83 20.00
v 1.53 3.70 20.00
v 0.00 4.00 20.00
v -1.53 3.70 20.00
v -2.83 2.83 20.00
v -3.70 1.53 20.00
v -4.00 0.00 20.00
v -3.70 -1.53 20.00
v -2.83 -2.83 20.00
v -1.53 -3.70 20.00
v 0.00 -4.00 20.00
v 1.53 -3.70 20.00
v 2.83 -2.83 20.00
v 3.70 -1.53 20.00
v 0.00 0.00 0.00
v 3.70 1.53 0.00
v 4.00 0.00 0.00
v 2.83 2.83 0.00
v 1.53 3.70 0.00
v 0.00 4.00 0.00
v -1.53 3.70 0.00
v -2.83 2.83 0.00
v -3.70 1.53 0.00
v -4.00 0.00 0.00
v -3.70 -1.53 0.00
v -2.83 -2.83 0.00
v -1.53 -3.70 0.00
v 0.00 -4.00 0.00
v 1.53 -3.70 0.00
v 2.83 -2.83 0.00
v 3.70 -1.53 0.00
v 16.00 6.00 20.00
v -16.00 6.00 20.00
v -16.00 -6.00 20.00
v 16.00 -6.00 20.00
v 16.00 6.00 0.00
v -16.00 6.00 0.00
v -16.00 -6.00 0.00
v 16.00 -6.00 0.00
v -16.00 6.00 20.00
v 16.00 6.00 20.00
v -16.00 -6.00 20.00
v -16.00 6.00 0.00
v -16.00 6.00 20.00
v 16.00 -6.00 20.00
v -16.00 -6.00 0.00
v -16.00 -6.00 20.00
v 16.00 6.00 20.00
v 16.00 6.00 0.00
v 16.00 -6.00 0.00
v 16.00 -6.00 20.00
v 20.00 10.00 0.00
v 16.00 6.00 0.00
v -16.00 6.00 0.00
v -20.00 10.00 0.00
v -16.00 -6.00 0.00
v -20.00 -10.00 0.00
v 16.00 -6.00 0.00
v 20.00 -10.00 0.00
v 20.00 10.00 24.00
v -20.00 10.00 24.00
v -20.00 -10.00 24.00
v 20.00 -10.00 24.00
v 20.00 10.00 0.00
v -20.00 10.00 0.00
v -20.00 -10.00 0.00
v 20.00 -10.00 0.00
v -20.00 10.00 24.00
v 20.00 10.00 24.00
v -20.00 -10.00 24.00
v -20.00 10.00 0.00
v -20.00 10.00 24.00
v 20.00 -10.00 24.00
v -20.00 -10.00 0.00
v -20.00 -10.00 24.00
v 20.00 10.00 24.00
v 20.00 10.00 0.00
v 20.00 -10.00 0.00
v 20.00 -10.00 24.00
v 16.00 0.00 24.00
v 15.54 2.30 24.00
v 14.24 4.24 24.00
v 12.30 5.54 24.00
v 10.00 6.00 24.00
v 7.70 5.54 24.00
v 5.76 4.24 24.00
v 4.46 2.30 24.00
v 4.00 0.00 24.00
v 4.46 -2.30 24.00
v 5.76 -4.24 24.00
v 7.70 -5.54 24.00
v 10.00 -6.00 24.00
v 12.30 -5.54 24.00
v 14.24 -4.24 24.00
v 15.54 -2.30 24.00
v 16.00 0.00 28.00
v 15.54 2.30 28.00
v 14.24 4.24 28.00
v 12.30 5.54 28.00
v 10.00 6.00 28.00
v 7.70 5.54 28.00
v 5.76 4.24 28.00
v 4.46 2.30 28.00
v 4.00 0.00 28.00
v 4.46 -2.30 28.00
v 5.76 -4.24 28.00
v 7.70 -5.54 28.00
v 10.00 -6.00 28.00
v 12.30 -5.54 28.00
v 14.24 -4.24 28.00
v 15.54 -2.30 28.00
v 10.00 0.00 28.00
v 16.00 0.00 28.00
v 15.54 2.30 28.00
v 14.24 4.24 28.00
v 12.30 5.54 28.00
v 10.00 6.00 28.00
v 7.70 5.54 28.00
v 5.76 4.24 28.00
v 4.46 2.30 28.00
v 4.00 0.00 28.00
v 4.46 -2.30 28.00
v 5.76 -4.24 28.00
v 7.70 -5.54 28.00
v 10.00 -6.00 28.00
v 12.30 -5.54 28.00
v 14.24 -4.24 28.00
v 15.54 -2.30 28.00
v -4.00 0.00 24.00
v -4.46 2.30 24.00
v -5.76 4.24 24.00
v -7.70 5.54 24.00
v -10.00 6.00 24.00
v -12.30 5.54 24.00
v -14.24 4.24 24.00
v -15.54 2.30 24.00
v -16.00 0.00 24.00
v -15.54 -2.30 24.00
v -14.24 -4.24 24.00
v -12.30 -5.54 24.00
v -10.00 -6.00 24.00
v -7.70 -5.54 24.00
v -5.76 -4.24 24.00
v -4.46 -2.30 24.00
v -4.00 0.00 28.00
v -4.46 2.30 28.00
v -5.76 4.24 28.00
v -7.70 5.54 28.00
v -10.00 6.00 28.00
v -12.30 5.54 28.00
v -14.24 4.24 28.00
v -15.54 2.30 28.00
v -16.00 0.00 28.00
v -15.54 -2.30 28.00
v -14.24 -4.24 28.00
v -12.30 -5.54 28.00
v -10.00 -6.00 28.00
v -7.70 -5.54 28.00
v -5.76 -4.24 28.00
v -4.46 -2.30 28.00
v -10.00 0.00 28.00
v -4.00 0.00 28.00
v -4.46 2.30 28.00
v -5.76 4.24 28.00
v -7.70 5.54 28.00
v -10.00 6.00 28.00
v -12.30 5.54 28.00
v -14.24 4.24 28.00
v -15.54 2.30 28.00
v -16.00 0.00 28.00
v -15.54 -2.30 28.00
v -14.24 -4.24 28.00
v -12.30 -5.54 28.00
v -10.00 -6.00 28.00
v -7.70 -5.54 28.00
v -5.76 -4.24 28.00
v -4.46 -2.30 28.00
#

vn 0.00 0.00 -1.00
vn 0.00 0.00 -1.00
vn 0.00 0.00 -1.00
vn 0.00 0.00 -1.00
vn 0.00 0.00 -1.00
vn 0.00 0.00 -1.00
vn 0.00 0.00 -1.00
vn 0.00 0.00 -1.00
vn 0.00 0.00 -1.00
vn 0.00 0.00 -1.00
vn 0.00 0.00 -1.00
vn 0.00 0.00 -1.00
vn 0.00 0.00 -1.00
vn 0.00 0.00 -1.00
vn 0.00 0.00 -1.00
vn 0.00 0.00 -1.00
vn 1.00 0.00 0.00
vn 0.92 0.38 0.00
vn 0.70 0.70 0.00
vn 0.38 0.92 0.00
vn 0.00 1.00 0.00
vn -0.38 0.92 0.00
vn -0.70 0.70 0.00
vn -0.92 0.38 0.00
vn -1.00 0.00 0.00
vn -0.92 -0.38 0.00
vn -0.70 -0.70 0.00
vn -0.38 -0.92 0.00
vn 0.00 -1.00 0.00
vn 0.38 -0.92 0.00
vn 0.70 -0.70 0.00
vn 0.92 -0.38 0.00
vn 0.00 0.00 -1.00
vn 0.92 0.38 0.00
vn 1.00 0.00 0.00
vn 0.70 0.70 0.00
vn 0.38 0.92 0.00
vn 0.00 1.00 0.00
vn -0.38 0.92 0.00
vn -0.70 0.70 0.00
vn -0.92 0.38 0.00
vn -1.00 0.00 0.00
vn -0.92 -0.38 0.00
vn -0.70 -0.70 0.00
vn -0.38 -0.92 0.00
vn 0.00 -1.00 0.00
vn 0.38 -0.92 0.00
vn 0.70 -0.70 0.00
vn 0.92 -0.38 0.00
vn 0.00 0.00 -1.00
vn 0.00 0.00 -1.00
vn 0.00 0.00 -1.00
vn 0.00 0.00 -1.00
vn 0.00 -1.00 0.00
vn 0.00 -1.00 0.00
vn 1.00 0.00 0.00
vn 0.00 1.00 0.00
vn 0.00 -1.00 0.00
vn 0.00 -1.00 0.00
vn 1.00 0.00 0.00
vn 1.00 0.00 0.00
vn 1.00 0.00 0.00
vn 0.00 1.00 0.00
vn 0.00 1.00 0.00
vn 0.00 1.00 0.00
vn -1.00 0.00 0.00
vn -1.00 0.00 0.00
vn -1.00 0.00 0.00
vn -1.00 0.00 0.00
vn 0.00 0.00 -1.00
vn 0.00 0.00 -1.00
vn 0.00 0.00 -1.00
vn 0.00 0.00 -1.00
vn 0.00 0.00 -1.00
vn 0.00 0.00 -1.00
vn 0.00 0.00 -1.00
vn 0.00 0.00 -1.00
vn 0.00 0.00 1.00
vn 0.00 0.00 1.00
vn 0.00 0.00 1.00
vn 0.00 0.00 1.00
vn 0.00 1.00 0.00
vn 0.00 1.00 0.00
vn -1.00 0.00 0.00
vn 0.00 -1.00 0.00
vn 0.00 1.00 0.00
vn 0.00 1.00 0.00
vn -1.00 0.00 0.00
vn -1.00 0.00 0.00
vn -1.00 0.00 0.00
vn 0.00 -1.00 0.00
vn 0.00 -1.00 0.00
vn 0.00 -1.00 0.00
vn 1.00 0.00 0.00
vn 1.00 0.00 0.00
vn 1.00 0.00 0.00
vn 1.00 0.00 0.00
vn 1.00 0.00 0.00
vn 0.92 0.38 0.00
vn 0.70 0.70 0.00
vn 0.38 0.92 0.00
vn 0.00 1.00 0.00
vn -0.38 0.92 0.00
vn -0.70 0.70 0.00
vn -0.92 0.38 0.00
vn -1.00 0.00 0.00
vn -0.92 -0.38 0.00
vn -0.70 -0.70 0.00
vn -0.38 -0.92 0.00
vn 0.00 -1.00 0.00
vn 0.38 -0.92 0.00
vn 0.70 -0.70 0.00
vn 0.92 -0.38 0.00
vn 1.00 0.00 0.00
vn 0.92 0.38 0.00
vn 0.70 0.70 0.00
vn 0.38 0.92 0.00
vn 0.00 1.00 0.00
vn -0.38 0.92 0.00
vn -0.70 0.70 0.00
vn -0.92 0.38 0.00
vn -1.00 0.00 0.00
vn -0.92 -0.38 0.00
vn -0.70 -0.70 0.00
vn -0.38 -0.92 0.00
vn 0.00 -1.00 0.00
vn 0.38 -0.92 0.00
vn 0.70 -0.70 0.00
vn 0.92 -0.38 0.00
vn 0.00 0.00 1.00
vn 0.00 0.00 1.00
vn 0.00 0.00 1.00
vn 0.00 0.00 1.00
vn 0.00 0.00 1.00
vn 0.00 0.00 1.00
vn 0.00 0.00 1.00
vn 0.00 0.00 1.00
vn 0.00 0.00 1.00
vn 0.00 0.00 1.00
vn 0.00 0.00 1.00
vn 0.00 0.00 1.00
vn 0.00 0.00 1.00
vn 0.00 0.00 1.00
vn 0.00 0.00 1.00
vn 0.00 0.00 1.00
vn 0.00 0.00 1.00
vn 1.00 0.00 0.00
vn 0.92 0.38 0.00
vn 0.70 0.70 0.00
vn 0.38 0.92 0.00
vn 0.00 1.00 0.00
vn -0.38 0.92 0.00
vn -0.70 0.70 0.00
vn -0.92 0.38 0.00
vn -1.00 0.00 0.00
vn -0.92 -0.38 0.00
vn -0.70 -0.70 0.00
vn -0.38 -0.92 0.00
vn 0.00 -1.00 0.00
vn 0.38 -0.92 0.00
vn 0.70 -0.70 0.00
vn 0.92 -0.38 0.00
vn 1.00 0.00 0.00
vn 0.92 0.38 0.00
vn 0.70 0.70 0.00
vn 0.38 0.92 0.00
vn 0.00 1.00 0.00
vn -0.38 0.92 0.00
vn -0.70 0.70 0.00
vn -0.92 0.38 0.00
vn -1.00 0.00 0.00
vn -0.92 -0.38 0.00
vn -0.70 -0.70 0.00
vn -0.38 -0.92 0.00
vn 0.00 -1.00 0.00
vn 0.38 -0.92 0.00
vn 0.70 -0.70 0.00
vn 0.92 -0.38 0.00
vn 0.00 0.00 1.00
vn 0.00 0.00 1.00
vn 0.00 0.00 1.00
vn 0.00 0.00 1.00
vn 0.00 0.00 1.00
vn 0.00 0.00 1.00
vn 0.00 0.00 1.00
vn 0.00 0.00 1.00
vn 0.00 0.00 1.00
vn 0.00 0.00 1.00
vn 0.00 0.00 1.00
vn 0.00 0.00 1.00
vn 0.00 0.00 1.00
vn 0.00 0.00 1.00
vn 0.00 0.00 1.00
vn 0.00 0.00 1.00
vn 0.00 0.00 1.00
#

g Piece000
usemtl Light_Grey
f 2//2 1//1 33//33
f 3//3 2//2 33//33
f 4//4 3//3 33//33
f 5//5 4//4 33//33
f 6//6 5//5 33//33
f 7//7 6//6 33//33
f 8//8 7//7 33//33
f 9//9 8//8 33//33
f 10//10 9//9 33//33
f 11//11 10//10 33//33
f 12//12 11//11 33//33
f 13//13 12//12 33//33
f 14//14 13//13 33//33
f 15//15 14//14 33//33
f 16//16 15//15 33//33
f 1//1 16//16 33//33
f 17//17 35//35 34//34
f 34//34 18//18 17//17
f 18//18 34//34 36//36
f 36//36 19//19 18//18
f 19//19 36//36 37//37
f 37//37 20//20 19//19
f 20//20 37//37 38//38
f 38//38 21//21 20//20
f 21//21 38//38 39//39
f 39//39 22//22 21//21
f 22//22 39//39 40//40
f 40//40 23//23 22//22
f 23//23 40//40 41//41
f 41//41 24//24 23//23
f 24//24 41//41 42//42
f 42//42 25//25 24//24
f 25//25 42//42 43//43
f 43//43 26//26 25//25
f 26//26 43//43 44//44
f 44//44 27//27 26//26
f 27//27 44//44 45//45
f 45//45 28//28 27//27
f 28//28 45//45 46//46
f 46//46 29//29 28//28
f 29//29 46//46 47//47
f 47//47 30//30 29//29
f 30//30 47//47 48//48
f 48//48 31//31 30//30
f 31//31 48//48 49//49
f 49//49 32//32 31//31
f 32//32 49//49 35//35
f 35//35 17//17 32//32
f 53//53 52//52 51//51
f 51//51 50//50 53//53
f 54//54 59//59 58//58
f 58//58 55//55 54//54
f 61//61 62//62 60//60
f 60//60 56//56 61//61
f 64//64 65//65 63//63
f 63//63 57//57 64//64
f 68//68 69//69 66//66
f 66//66 67//67 68//68
f 72//72 73//73 70//70
f 70//70 71//71 72//72
f 74//74 75//75 73//73
f 73//73 72//72 74//74
f 76//76 77//77 75//75
f 75//75 74//74 76//76
f 71//71 70//70 77//77
f 77//77 76//76 71//71
f 79//79 80//80 81//81
f 81//81 78//78 79//79
f 86//86 87//87 82//82
f 82//82 83//83 86//86
f 88//88 90//90 89//89
f 89//89 84//84 88//88
f 91//91 93//93 92//92
f 92//92 85//85 91//91
f 94//94 97//97 96//96
f 96//96 95//95 94//94
f 114//114 98//98 99//99
f 99//99 115//115 114//114
f 115//115 99//99 100//100
f 100//100 116//116 115//115
f 116//116 100//100 101//101
f 101//101 117//117 116//116
f 117//117 101//101 102//102
f 102//102 118//118 117//117
f 118//118 102//102 103//103
f 103//103 119//119 118//118
f 119//119 103//103 104//104
f 104//104 120//120 119//119
f 120//120 104//104 105//105
f 105//105 121//121 120//120
f 121//121 105//105 106//106
f 106//106 122//122 121//121
f 122//122 106//106 107//107
f 107//107 123//123 122//122
f 123//123 107//107 108//108
f 108//108 124//124 123//123
f 124//124 108//108 109//109
f 109//109 125//125 124//124
f 125//125 109//109 110//110
f 110//110 126//126 125//125
f 126//126 110//110 111//111
f 111//111 127//127 126//126
f 127//127 111//111 112//112
f 112//112 128//128 127//127
f 128//128 112//112 113//113
f 113//113 129//129 128//128
f 129//129 113//113 98//98
f 98//98 114//114 129//129
f 130//130 131//131 132//132
f 130//130 132//132 133//133
f 130//130 133//133 134//134
f 130//130 134//134 135//135
f 130//130 135//135 136//136
f 130//130 136//136 137//137
f 130//130 137//137 138//138
f 130//130 138//138 139//139
f 130//130 139//139 140//140
f 130//130 140//140 141//141
f 130//130 141//141 142//142
f 130//130 142//142 143//143
f 130//130 143//143 144//144
f 130//130 144//144 145//145
f 130//130 145//145 146//146
f 130//130 146//146 131//131
f 163//163 147//147 148//148
f 148//148 164//164 163//163
f 164//164 148//148 149//149
f 149//149 165//165 164//164
f 165//165 149//149 150//150
f 150//150 166//166 165//165
f 166//166 150//150 151//151
f 151//151 167//167 166//166
f 167//167 151//151 152//152
f 152//152 168//168 167//167
f 168//168 152//152 153//153
f 153//153 169//169 168//168
f 169//169 153//153 154//154
f 154//154 170//170 169//169
f 170//170 154//154 155//155
f 155//155 171//171 170//170
f 171//171 155//155 156//156
f 156//156 172//172 171//171
f 172//172 156//156 157//157
f 157//157 173//173 172//172
f 173//173 157//157 158//158
f 158//158 174//174 173//173
f 174//174 158//158 159//159
f 159//159 175//175 174//174
f 175//175 159//159 160//160
f 160//160 176//176 175//175
f 176//176 160//160 161//161
f 161//161 177//177 176//176
f 177//177 161//161 162//162
f 162//162 178//178 177//177
f 178//178 162//162 147//147
f 147//147 163//163 178//178
f 179//179 180//180 181//181
f 179//179 181//181 182//182
f 179//179 182//182 183//183
f 179//179 183//183 184//184
f 179//179 184//184 185//185
f 179//179 185//185 186//186
f 179//179 186//186 187//187
f 179//179 187//187 188//188
f 179//179 188//188 189//189
f 179//179 189//189 190//190
f 179//179 190//190 191//191
f 179//179 191//191 192//192
f 179//179 192//192 193//193
f 179//179 193//193 194//194
f 179//179 194//194 195//195
f 179//179 195//195 180//180

