# Model exported from LeoCAD
#

mtllib New Model.mtl

v 76.00 -54.00 20.00
v 64.00 -54.00 20.00
v 64.00 -66.00 20.00
v 76.00 -66.00 20.00
v 76.00 -54.00 0.00
v 64.00 -54.00 0.00
v 64.00 -66.00 0.00
v 76.00 -66.00 0.00
v 64.00 -54.00 20.00
v 76.00 -54.00 20.00
v 64.00 -66.00 20.00
v 64.00 -54.00 0.00
v 64.00 -54.00 20.00
v 76.00 -66.00 20.00
v 64.00 -66.00 0.00
v 64.00 -66.00 20.00
v 76.00 -54.00 20.00
v 76.00 -54.00 0.00
v 76.00 -66.00 0.00
v 76.00 -66.00 20.00
v 80.00 -50.00 0.00
v 76.00 -54.00 0.00
v 64.00 -54.00 0.00
v 60.00 -50.00 0.00
v 64.00 -66.00 0.00
v 60.00 -70.00 0.00
v 76.00 -66.00 0.00
v 80.00 -70.00 0.00
v 80.00 -50.00 24.00
v 60.00 -50.00 24.00
v 60.00 -70.00 24.00
v 80.00 -70.00 24.00
v 80.00 -50.00 0.00
v 60.00 -50.00 0.00
v 60.00 -70.00 0.00
v 80.00 -70.00 0.00
v 60.00 -50.00 24.00
v 80.00 -50.00 24.00
v 60.00 -70.00 24.00
v 60.00 -50.00 0.00
v 60.00 -50.00 24.00
v 80.00 -70.00 24.00
v 60.00 -70.00 0.00
v 60.00 -70.00 24.00
v 80.00 -50.00 24.00
v 80.00 -50.00 0.00
v 80.00 -70.00 0.00
v 80.00 -70.00 24.00
v 76.00 -60.00 24.00
v 75.54 -57.70 24.00
v 74.24 -55.76 24.00
v 72.30 -54.46 24.00
v 70.00 -54.00 24.00
v 67.70 -54.46 24.00
v 65.76 -55.76 24.00
v 64.46 -57.70 24.00
v 64.00 -60.00 24.00
v 64.46 -62.30 24.00
v 65.76 -64.24 24.00
v 67.70 -65.54 24.00
v 70.00 -66.00 24.00
v 72.30 -65.54 24.00
v 74.24 -64.24 24.00
v 75.54 -62.30 24.00
v 76.00 -60.00 28.00
v 75.54 -57.70 28.00
v 74.24 -55.76 28.00
v 72.30 -54.46 28.00
v 70.00 -54.00 28.00
v 67.70 -54.46 28.00
v 65.76 -55.76 28.00
v 64.46 -57.70 28.00
v 64.00 -60.00 28.00
v 64.46 -62.30 28.00
v 65.76 -64.24 28.00
v 67.70 -65.54 28.00
v 70.00 -66.00 28.00
v 72.30 -65.54 28.00
v 74.24 -64.24 28.00
v 75.54 -62.30 28.00
v 70.00 -60.00 28.00
v 76.00 -60.00 28.00
v 75.54 -57.70 28.00
v 74.24 -55.76 28.00
v 72.30 -54.46 28.00
v 70.00 -54.00 28.00
v 67.70 -54.46 28.00
v 65.76 -55.76 28.00
v 64.46 -57.70 28.00
v 64.00 -60.00 28.00
v 64.46 -62.30 28.00
v 65.76 -64.24 28.00
v 67.70 -65.54 28.00
v 70.00 -66.00 28.00
v 72.30 -65.54 28.00
v 74.24 -64.24 28.00
v 75.54 -62.30 28.00
#

vn 0.00 0.00 -1.00
vn 0.00 0.00 -1.00
vn 0.00 0.00 -1.00
vn 0.00 0.00 -1.00
vn 0.00 -1.00 0.00
vn 0.00 -1.00 0.00
vn 1.00 0.00 0.00
vn 0.00 1.00 0.00
vn 0.00 -1.00 0.00
vn 0.00 -1.00 0.00
vn 1.00 0.00 0.00
vn 1.00 0.00 0.00
vn 1.00 0.00 0.00
vn 0.00 1.00 0.00
vn 0.00 1.00 0.00
vn 0.00 1.00 0.00
vn -1.00 0.00 0.00
vn -1.00 0.00 0.00
vn -1.00 0.00 0.00
vn -1.00 0.00 0.00
vn 0.00 0.00 -1.00
vn 0.00 0.00 -1.00
vn 0.00 0.00 -1.00
vn 0.00 0.00 -1.00
vn 0.00 0.00 -1.00
vn 0.00 0.00 -1.00
vn 0.00 0.00 -1.00
vn 0.00 0.00 -1.00
vn 0.00 0.00 1.00
vn 0.00 0.00 1.00
vn 0.00 0.00 1.00
vn 0.00 0.00 1.00
vn 0.00 1.00 0.00
vn 0.00 1.00 0.00
vn -1.00 0.00 0.00
vn 0.00 -1.00 0.00
vn 0.00 1.00 0.00
vn 0.00 1.00 0.00
vn -1.00 0.00 0.00
vn -1.00 0.00 0.00
vn -1.00 0.00 0.00
vn 0.00 -1.00 0.00
vn 0.00 -1.00 0.00
vn 0.00 -1.00 0.00
vn 1.00 0.00 0.00
vn 1.00 0.00 0.00
vn 1.00 0.00 0.00
vn 1.00 0.00 0.00
vn 1.00 0.00 0.00
vn 0.92 0.38 0.00
vn 0.70 0.70 0.00
vn 0.38 0.92 0.00
vn 0.00 1.00 0.00
vn -0.38 0.92 0.00
vn -0.70 0.70 0.00
vn -0.92 0.38 0.00
vn -1.00 0.00 0.00
vn -0.92 -0.38 0.00
vn -0.70 -0.70 0.00
vn -0.38 -0.92 0.00
vn 0.00 -1.00 0.00
vn 0.38 -0.92 0.00
vn 0.70 -0.70 0.00
vn 0.92 -0.38 0.00
vn 1.00 0.00 0.00
vn 0.92 0.38 0.00
vn 0.70 0.70 0.00
vn 0.38 0.92 0.00
vn 0.00 1.00 0.00
vn -0.38 0.92 0.00
vn -0.70 0.70 0.00
vn -0.92 0.38 0.00
vn -1.00 0.00 0.00
vn -0.92 -0.38 0.00
vn -0.70 -0.70 0.00
vn -0.38 -0.92 0.00
vn 0.00 -1.00 0.00
vn 0.38 -0.92 0.00
vn 0.70 -0.70 0.00
vn 0.92 -0.38 0.00
vn 0.00 0.00 1.00
vn 0.00 0.00 1.00
vn 0.00 0.00 1.00
vn 0.00 0.00 1.00
vn 0.00 0.00 1.00
vn 0.00 0.00 1.00
vn 0.00 0.00 1.00
vn 0.00 0.00 1.00
vn 0.00 0.00 1.00
vn 0.00 0.00 1.00
vn 0.00 0.00 1.00
vn 0.00 0.00 1.00
vn 0.00 0.00 1.00
vn 0.00 0.00 1.00
vn 0.00 0.00 1.00
vn 0.00 0.00 1.00
vn 0.00 0.00 1.00
#

g Piece000
usemtl Light_Grey
f 4//4 3//3 2//2
f 2//2 1//1 4//4
f 5//5 10//10 9//9
f 9//9 6//6 5//5
f 12//12 13//13 11//11
f 11//11 7//7 12//12
f 15//15 16//16 14//14
f 14//14 8//8 15//15
f 19//19 20//20 17//17
f 17//17 18//18 19//19
f 23//23 24//24 21//21
f 21//21 22//22 23//23
f 25//25 26//26 24//24
f 24//24 23//23 25//25
f 27//27 28//28 26//26
f 26//26 25//25 27//27
f 22//22 21//21 28//28
f 28//28 27//27 22//22
f 30//30 31//31 32//32
f 32//32 29//29 30//30
f 37//37 38//38 33//33
f 33//33 34//34 37//37
f 39//39 41//41 40//40
f 40//40 35//35 39//39
f 42//42 44//44 43//43
f 43//43 36//36 42//42
f 45//45 48//48 47//47
f 47//47 46//46 45//45
f 65//65 49//49 50//50
f 50//50 66//66 65//65
f 66//66 50//50 51//51
f 51//51 67//67 66//66
f 67//67 51//51 52//52
f 52//52 68//68 67//67
f 68//68 52//52 53//53
f 53//53 69//69 68//68
f 69//69 53//53 54//54
f 54//54 70//70 69//69
f 70//70 54//54 55//55
f 55//55 71//71 70//70
f 71//71 55//55 56//56
f 56//56 72//72 71//71
f 72//72 56//56 57//57
f 57//57 73//73 72//72
f 73//73 57//57 58//58
f 58//58 74//74 73//73
f 74//74 58//58 59//59
f 59//59 75//75 74//74
f 75//75 59//59 60//60
f 60//60 76//76 75//75
f 76//76 60//60 61//61
f 61//61 77//77 76//76
f 77//77 61//61 62//62
f 62//62 78//78 77//77
f 78//78 62//62 63//63
f 63//63 79//79 78//78
f 79//79 63//63 64//64
f 64//64 80//80 79//79
f 80//80 64//64 49//49
f 49//49 65//65 80//80
f 81//81 82//82 83//83
f 81//81 83//83 84//84
f 81//81 84//84 85//85
f 81//81 85//85 86//86
f 81//81 86//86 87//87
f 81//81 87//87 88//88
f 81//81 88//88 89//89
f 81//81 89//89 90//90
f 81//81 90//90 91//91
f 81//81 91//91 92//92
f 81//81 92//92 93//93
f 81//81 93//93 94//94
f 81//81 94//94 95//95
f 81//81 95//95 96//96
f 81//81 96//96 97//97
f 81//81 97//97 82//82

