# Model exported from LeoCAD
#

mtllib 1X2X1-CURVED.mtl

v 16.00 -5.09 10.59
v 16.00 1.41 17.09
v 16.00 6.00 18.00
v 16.00 -6.00 6.00
v 16.00 -2.49 14.49
v -16.00 -5.09 10.59
v -16.00 1.41 17.09
v -16.00 6.00 18.00
v -16.00 -6.00 6.00
v -16.00 -2.49 14.49
v 16.00 -6.00 6.00
v 16.00 -5.09 10.59
v 16.00 -2.49 14.49
v 16.00 1.41 17.09
v 16.00 6.00 18.00
v -16.00 -6.00 6.00
v -16.00 -5.09 10.59
v -16.00 -2.49 14.49
v -16.00 1.41 17.09
v -16.00 6.00 18.00
v 6.50 -6.00 0.00
v 6.50 -5.00 0.00
v 3.50 -5.00 0.00
v 3.50 -6.00 0.00
v 6.50 -6.00 11.00
v 6.50 -5.00 11.00
v 3.50 -5.00 11.00
v 3.50 -6.00 11.00
v 6.50 -5.00 0.00
v 6.50 -6.00 0.00
v 3.50 -6.00 0.00
v 3.50 -5.00 0.00
v 5.00 -3.50 0.00
v 5.00 -3.50 0.00
v 5.00 -3.50 13.00
v 3.50 -5.00 13.00
v 5.00 -3.50 0.00
v 5.00 -3.50 13.00
v 6.50 -5.00 13.00
v 3.50 -6.00 0.00
v -3.50 -6.00 0.00
v -3.50 -6.00 6.00
v 3.50 -6.00 6.00
v -3.50 -6.00 0.00
v -3.50 -5.00 0.00
v -6.50 -5.00 0.00
v -6.50 -6.00 0.00
v -3.50 -6.00 11.00
v -3.50 -5.00 11.00
v -6.50 -5.00 11.00
v -6.50 -6.00 11.00
v -3.50 -5.00 0.00
v -3.50 -6.00 0.00
v -6.50 -6.00 0.00
v -6.50 -5.00 0.00
v -5.00 -3.50 0.00
v -5.00 -3.50 0.00
v -5.00 -3.50 13.00
v -6.50 -5.00 13.00
v -5.00 -3.50 0.00
v -5.00 -3.50 13.00
v -3.50 -5.00 13.00
v 3.50 -5.09 10.59
v 3.50 -5.00 10.72
v 6.50 -5.00 10.72
v 6.50 -5.09 10.59
v 6.50 -6.00 6.00
v 5.00 -3.50 12.97
v -6.50 -5.00 10.72
v -6.50 -5.09 10.59
v -6.50 -6.00 6.00
v -3.50 -5.09 10.59
v -3.50 -5.00 10.72
v -5.00 -3.50 12.97
v -6.50 6.00 0.00
v -6.50 5.00 0.00
v -3.50 5.00 0.00
v -3.50 6.00 0.00
v -6.50 6.00 18.00
v -6.50 5.00 18.00
v -3.50 5.00 18.00
v -3.50 6.00 18.00
v -6.50 5.00 0.00
v -6.50 6.00 0.00
v -3.50 6.00 0.00
v -3.50 5.00 0.00
v -5.00 3.50 0.00
v -5.00 3.50 0.00
v -5.00 3.50 18.00
v -5.00 3.50 0.00
v -5.00 3.50 18.00
v 3.50 6.00 18.00
v -3.50 6.00 18.00
v -3.50 6.00 0.00
v 3.50 6.00 0.00
v 3.50 6.00 0.00
v 3.50 5.00 0.00
v 6.50 5.00 0.00
v 6.50 6.00 0.00
v 3.50 6.00 18.00
v 3.50 5.00 18.00
v 6.50 5.00 18.00
v 6.50 6.00 18.00
v 3.50 5.00 0.00
v 3.50 6.00 0.00
v 6.50 6.00 0.00
v 6.50 5.00 0.00
v 5.00 3.50 0.00
v 5.00 3.50 0.00
v 5.00 3.50 18.00
v 5.00 3.50 0.00
v 5.00 3.50 18.00
v 5.00 3.50 17.50
v 6.50 5.00 17.80
v 3.50 5.00 17.80
v -6.50 5.00 17.80
v -5.00 3.50 17.50
v -3.50 5.00 17.80
v 16.00 6.00 0.00
v 16.00 -6.00 0.00
v 16.00 6.00 0.00
v 16.00 6.00 18.00
v 6.50 6.00 0.00
v 6.50 6.00 18.00
v 16.00 -6.00 0.00
v 6.50 -6.00 0.00
v -16.00 -6.00 0.00
v -16.00 6.00 0.00
v -16.00 -6.00 0.00
v -6.50 -6.00 0.00
v -16.00 6.00 18.00
v -16.00 6.00 0.00
v -6.50 6.00 18.00
v -6.50 6.00 0.00
v 20.00 10.00 0.00
v 16.00 6.00 0.00
v -20.00 10.00 0.00
v -16.00 6.00 0.00
v -16.00 -6.00 0.00
v -20.00 -10.00 0.00
v 20.00 -10.00 0.00
v 16.00 -6.00 0.00
v 20.00 -8.48 11.65
v 20.00 2.35 22.48
v 20.00 10.00 24.00
v 20.00 -10.00 4.00
v 20.00 -4.14 18.14
v -20.00 -8.48 11.65
v -20.00 2.35 22.48
v -20.00 10.00 24.00
v -20.00 -10.00 4.00
v -20.00 -4.14 18.14
v 20.00 -10.00 4.00
v 20.00 -8.48 11.65
v 20.00 -4.14 18.14
v 20.00 2.35 22.48
v 20.00 10.00 24.00
v -20.00 -10.00 4.00
v -20.00 -8.48 11.65
v -20.00 -4.14 18.14
v -20.00 2.35 22.48
v -20.00 10.00 24.00
v -20.00 10.00 24.00
v 20.00 10.00 24.00
v 20.00 10.00 0.00
v -20.00 10.00 0.00
v -20.00 10.00 0.00
v -20.00 -10.00 0.00
v -20.00 -10.00 0.00
v 20.00 -10.00 0.00
v 20.00 -10.00 0.00
v 20.00 10.00 0.00
#

vn -1.00 0.00 0.00
vn -1.00 0.00 0.00
vn -1.00 0.00 0.00
vn -1.00 0.00 0.00
vn -1.00 0.00 0.00
vn 1.00 0.00 0.00
vn 1.00 0.00 0.00
vn 1.00 0.00 0.00
vn 1.00 0.00 0.00
vn 1.00 0.00 0.00
vn 0.00 0.99 -0.09
vn 0.00 0.92 -0.38
vn 0.00 0.70 -0.70
vn 0.00 0.38 -0.92
vn 0.00 0.19 -0.98
vn 0.00 0.99 -0.09
vn 0.00 0.92 -0.38
vn 0.00 0.70 -0.70
vn 0.00 0.38 -0.92
vn 0.00 0.19 -0.98
vn 0.00 0.00 -1.00
vn 0.00 0.00 -1.00
vn 0.00 0.00 -1.00
vn 0.00 0.00 -1.00
vn 1.00 0.00 0.00
vn 1.00 0.00 0.00
vn -1.00 0.00 0.00
vn -1.00 0.00 0.00
vn 0.92 0.38 0.00
vn 1.00 0.00 0.00
vn -1.00 0.00 0.00
vn -0.92 0.38 0.00
vn 0.00 0.00 -1.00
vn -0.70 0.70 0.00
vn -0.70 0.70 0.00
vn -0.70 0.70 0.00
vn 0.70 0.70 0.00
vn 0.70 0.70 0.00
vn 0.70 0.70 0.00
vn 0.00 1.00 0.00
vn 0.00 1.00 0.00
vn 0.00 1.00 0.00
vn 0.00 1.00 0.00
vn 0.00 0.00 -1.00
vn 0.00 0.00 -1.00
vn 0.00 0.00 -1.00
vn 0.00 0.00 -1.00
vn 1.00 0.00 0.00
vn 1.00 0.00 0.00
vn -1.00 0.00 0.00
vn -1.00 0.00 0.00
vn 0.92 0.38 0.00
vn 1.00 0.00 0.00
vn -1.00 0.00 0.00
vn -0.92 0.38 0.00
vn 0.00 0.00 -1.00
vn -0.70 0.70 0.00
vn -0.70 0.70 0.00
vn -0.70 0.70 0.00
vn 0.70 0.70 0.00
vn 0.70 0.70 0.00
vn 0.70 0.70 0.00
vn 0.00 0.00 0.00
vn 0.00 0.00 0.00
vn 0.00 0.00 0.00
vn 0.00 0.00 0.00
vn 0.00 1.00 0.00
vn 0.00 0.00 0.00
vn 0.00 0.00 0.00
vn 0.00 0.00 0.00
vn 0.00 1.00 0.00
vn 0.00 0.00 0.00
vn 0.00 0.00 0.00
vn 0.00 0.00 0.00
vn 0.00 0.00 -1.00
vn 0.00 0.00 -1.00
vn 0.00 0.00 -1.00
vn 0.00 0.00 -1.00
vn -1.00 0.00 0.00
vn -0.92 -0.38 0.00
vn 0.92 -0.38 0.00
vn 1.00 0.00 0.00
vn -0.92 -0.38 0.00
vn -1.00 0.00 0.00
vn 1.00 0.00 0.00
vn 0.92 -0.38 0.00
vn 0.00 0.00 -1.00
vn 0.70 -0.70 0.00
vn 0.70 -0.70 0.00
vn -0.70 -0.70 0.00
vn -0.70 -0.70 0.00
vn 0.00 -1.00 0.00
vn 0.00 -1.00 0.00
vn 0.00 -1.00 0.00
vn 0.00 -1.00 0.00
vn 0.00 0.00 -1.00
vn 0.00 0.00 -1.00
vn 0.00 0.00 -1.00
vn 0.00 0.00 -1.00
vn -1.00 0.00 0.00
vn -0.92 -0.38 0.00
vn 0.92 -0.38 0.00
vn 1.00 0.00 0.00
vn -0.92 -0.38 0.00
vn -1.00 0.00 0.00
vn 1.00 0.00 0.00
vn 0.92 -0.38 0.00
vn 0.00 0.00 -1.00
vn 0.70 -0.70 0.00
vn 0.70 -0.70 0.00
vn -0.70 -0.70 0.00
vn -0.70 -0.70 0.00
vn 0.00 0.00 0.00
vn 0.00 0.00 0.00
vn 0.00 0.00 0.00
vn 0.00 0.00 0.00
vn 0.00 0.00 0.00
vn 0.00 0.00 0.00
vn -1.00 0.00 0.00
vn -1.00 0.00 0.00
vn 0.00 -1.00 0.00
vn 0.00 -1.00 0.00
vn 0.00 -1.00 0.00
vn 0.00 -1.00 0.00
vn 0.00 1.00 0.00
vn 0.00 1.00 0.00
vn 1.00 0.00 0.00
vn 1.00 0.00 0.00
vn 0.00 1.00 0.00
vn 0.00 1.00 0.00
vn 0.00 -1.00 0.00
vn 0.00 -1.00 0.00
vn 0.00 -1.00 0.00
vn 0.00 -1.00 0.00
vn 0.00 0.00 -1.00
vn 0.00 0.00 -1.00
vn 0.00 0.00 -1.00
vn 0.00 0.00 -1.00
vn 0.00 0.00 -1.00
vn 0.00 0.00 -1.00
vn 0.00 0.00 -1.00
vn 0.00 0.00 -1.00
vn 1.00 0.00 0.00
vn 1.00 0.00 0.00
vn 1.00 0.00 0.00
vn 1.00 0.00 0.00
vn 1.00 0.00 0.00
vn -1.00 0.00 0.00
vn -1.00 0.00 0.00
vn -1.00 0.00 0.00
vn -1.00 0.00 0.00
vn -1.00 0.00 0.00
vn 0.00 -0.99 0.09
vn 0.00 -0.92 0.38
vn 0.00 -0.70 0.70
vn 0.00 -0.38 0.92
vn 0.00 -0.19 0.98
vn 0.00 -0.99 0.09
vn 0.00 -0.92 0.38
vn 0.00 -0.70 0.70
vn 0.00 -0.38 0.92
vn 0.00 -0.19 0.98
vn 0.00 1.00 0.00
vn 0.00 1.00 0.00
vn 0.00 1.00 0.00
vn 0.00 1.00 0.00
vn -1.00 0.00 0.00
vn -1.00 0.00 0.00
vn 0.00 -1.00 0.00
vn 0.00 -1.00 0.00
vn 1.00 0.00 0.00
vn 1.00 0.00 0.00
#

g Piece000
usemtl Light_Grey
f 3//3 4//4 1//1
f 1//1 2//2 3//3
f 5//5 2//2 1//1
f 6//6 9//9 8//8
f 8//8 7//7 6//6
f 6//6 7//7 10//10
f 12//12 11//11 16//16
f 16//16 17//17 12//12
f 13//13 12//12 17//17
f 17//17 18//18 13//13
f 14//14 13//13 18//18
f 18//18 19//19 14//14
f 15//15 14//14 19//19
f 19//19 20//20 15//15
f 22//22 21//21 24//24
f 24//24 23//23 22//22
f 25//25 30//30 29//29
f 29//29 26//26 25//25
f 27//27 32//32 31//31
f 31//31 28//28 27//27
f 23//23 33//33 22//22
f 36//36 35//35 34//34
f 34//34 32//32 36//36
f 39//39 29//29 37//37
f 37//37 38//38 39//39
f 40//40 41//41 42//42
f 42//42 43//43 40//40
f 45//45 44//44 47//47
f 47//47 46//46 45//45
f 48//48 53//53 52//52
f 52//52 49//49 48//48
f 50//50 55//55 54//54
f 54//54 51//51 50//50
f 46//46 56//56 45//45
f 59//59 58//58 57//57
f 57//57 55//55 59//59
f 62//62 52//52 60//60
f 60//60 61//61 62//62
f 76//76 75//75 78//78
f 78//78 77//77 76//76
f 79//79 84//84 83//83
f 83//83 80//80 79//79
f 81//81 86//86 85//85
f 85//85 82//82 81//81
f 77//77 87//87 76//76
f 81//81 89//89 88//88
f 88//88 86//86 81//81
f 80//80 83//83 90//90
f 90//90 91//91 80//80
f 95//95 92//92 93//93
f 93//93 94//94 95//95
f 97//97 96//96 99//99
f 99//99 98//98 97//97
f 100//100 105//105 104//104
f 104//104 101//101 100//100
f 102//102 107//107 106//106
f 106//106 103//103 102//102
f 98//98 108//108 97//97
f 102//102 110//110 109//109
f 109//109 107//107 102//102
f 101//101 104//104 111//111
f 111//111 112//112 101//101
f 120//120 4//4 3//3
f 3//3 119//119 120//120
f 123//123 121//121 122//122
f 122//122 124//124 123//123
f 11//11 125//125 126//126
f 126//126 67//67 11//11
f 128//128 8//8 9//9
f 9//9 127//127 128//128
f 130//130 129//129 16//16
f 16//16 71//71 130//130
f 133//133 131//131 132//132
f 132//132 134//134 133//133
f 135//135 136//136 99//99
f 135//135 99//99 96//96
f 78//78 137//137 135//135
f 135//135 96//96 78//78
f 78//78 75//75 137//137
f 75//75 138//138 137//137
f 139//139 140//140 137//137
f 137//137 138//138 139//139
f 140//140 139//139 47//47
f 140//140 47//47 44//44
f 24//24 141//141 140//140
f 140//140 44//44 24//24
f 24//24 21//21 141//141
f 21//21 142//142 141//141
f 136//136 135//135 141//141
f 141//141 142//142 136//136
f 143//143 146//146 145//145
f 145//145 144//144 143//143
f 143//143 144//144 147//147
f 150//150 151//151 148//148
f 148//148 149//149 150//150
f 152//152 149//149 148//148
f 158//158 153//153 154//154
f 154//154 159//159 158//158
f 159//159 154//154 155//155
f 155//155 160//160 159//159
f 160//160 155//155 156//156
f 156//156 161//161 160//160
f 161//161 156//156 157//157
f 157//157 162//162 161//161
f 166//166 163//163 164//164
f 164//164 165//165 166//166
f 151//151 150//150 167//167
f 167//167 168//168 151//151
f 158//158 169//169 170//170
f 170//170 153//153 158//158
f 145//145 146//146 171//171
f 171//171 172//172 145//145

