mtllib new-6.mtl
v -0.521927 0.162109 -0.668495
v -0.526053 0.162166 -0.656280
v -0.501418 0.151740 -0.679429
v -0.519234 0.164886 -0.664593
v -0.494294 0.078424 -0.681660
v -0.496615 0.165417 -0.679562
v -0.521608 0.159473 -0.654798
v -0.496643 0.153121 -0.686539
v -0.493835 0.161284 -0.685461
v -0.515832 0.161845 -0.661726
v -0.497062 0.166736 -0.669342
v -0.471271 0.068193 -0.684792
v -0.471145 0.073117 -0.687687
v -0.470947 0.081724 -0.692768
v -0.473796 0.154951 -0.694094
v -0.471439 0.165429 -0.680941
v -0.445997 0.069358 -0.664090
v -0.446607 0.073214 -0.650143
v -0.497507 0.165128 -0.659163
v -0.449109 0.165543 -0.680013
v -0.445140 0.068307 -0.683698
v -0.473106 0.080231 -0.639663
v -0.451377 0.078594 -0.637411
v -0.445014 0.073232 -0.686592
v -0.448900 0.081784 -0.694652
v -0.449197 0.155730 -0.687311
v -0.504760 0.154027 -0.658451
v -0.472518 0.165141 -0.656259
v -0.449650 0.166863 -0.667647
v -0.445917 0.080599 -0.656979
v -0.445521 0.076743 -0.666036
v -0.437139 0.080393 -0.638162
v -0.448847 0.150446 -0.695851
v -0.497792 0.154989 -0.652628
v -0.448668 0.153624 -0.681172
v -0.436135 0.079467 -0.648160
v -0.451487 0.153947 -0.641594
v -0.472981 0.153889 -0.642499
v -0.437015 0.156001 -0.640998
v -0.431881 0.081893 -0.693942
v -0.431828 0.150555 -0.695141
v -0.497363 0.153872 -0.648002
v -0.450188 0.165255 -0.655331
v -0.472864 0.155001 -0.648352
v -0.449800 0.155935 -0.655271
v -0.432141 0.151319 -0.687784
v -0.436054 0.158099 -0.650001
v -0.432175 0.082657 -0.687005
v -0.450534 0.155116 -0.647424
v -0.432122 0.102611 -0.688211
vn -0.568546 0.460025 -0.682006
vn -0.030217 0.999194 -0.026417
vn -0.609912 0.130062 -0.781723
vn -0.054436 0.980086 0.190967
vn -0.361000 0.070606 -0.929889
vn -0.266619 0.795412 -0.544273
vn 0.698976 0.524410 0.486237
vn -0.573618 0.087378 -0.814449
vn -0.532362 0.466403 -0.706441
vn 0.203866 0.501269 0.840933
vn -0.033031 0.996057 0.082341
vn -0.031363 -0.780489 -0.624382
vn -0.078719 -0.364812 -0.927748
vn -0.204754 -0.318859 -0.925421
vn -0.076993 0.476937 -0.875559
vn 0.029291 0.873564 -0.485827
vn 0.680377 -0.722261 0.124202
vn 0.436280 -0.892750 0.112502
vn -0.252680 0.723312 0.642629
vn 0.577875 0.758984 -0.300006
vn 0.621369 -0.621091 -0.477647
vn -0.172189 -0.242556 0.954734
vn 0.049790 -0.368279 0.928381
vn 0.353670 -0.681697 -0.640474
vn -0.030132 -0.306753 -0.951312
vn 0.311181 0.859984 -0.404467
vn -0.497517 0.308122 0.810887
vn -0.054978 0.857958 0.510770
vn -0.005631 0.998582 0.052937
vn 0.945073 -0.196533 -0.261173
vn 0.969284 -0.232872 0.079113
vn 0.279112 -0.711832 0.644509
vn 0.032761 0.376908 -0.925671
vn -0.264658 0.754925 0.600037
vn 0.998419 0.035834 0.043312
vn 0.854302 0.516691 0.056559
vn 0.646655 -0.588931 -0.484766
vn -0.087043 0.529182 0.844032
vn -0.121050 0.651324 0.749082
vn -0.122979 0.768687 0.627691
vn 0.558930 -0.573735 -0.598686
vn 0.125343 0.738206 -0.662828
vn -0.472879 0.630386 0.615629
vn 0.542614 0.655157 0.525679
vn -0.053718 0.848491 0.526477
vn 0.941099 0.336666 0.031442
vn 0.203421 0.978217 0.041374
vn 0.783967 -0.003129 -0.620795
vn 0.334294 0.144649 -0.931303
vn 0.950625 -0.231017 0.207229
vn 0.139399 0.939261 0.313619
vn 0.877559 -0.017715 0.479140
vn 0.931615 -0.004120 0.363422
vn -0.226183 0.953720 0.198141
vn -0.168163 0.974876 0.146074
vn 0.999074 -0.000038 0.043029
vn 0.568546 -0.460025 0.682006
vn 0.030217 -0.999194 0.026417
vn 0.609912 -0.130062 0.781723
vn 0.054436 -0.980086 -0.190967
vn 0.361000 -0.070606 0.929889
vn 0.266619 -0.795412 0.544273
vn -0.698976 -0.524410 -0.486237
vn 0.573618 -0.087378 0.814449
vn 0.532362 -0.466403 0.706441
vn -0.203866 -0.501269 -0.840933
vn 0.033031 -0.996057 -0.082341
vn 0.031363 0.780489 0.624382
vn 0.078719 0.364812 0.927748
vn 0.204754 0.318859 0.925421
vn 0.076993 -0.476937 0.875559
vn -0.029291 -0.873564 0.485827
vn -0.680377 0.722261 -0.124202
vn -0.436280 0.892750 -0.112502
vn 0.252680 -0.723312 -0.642629
vn -0.577875 -0.758984 0.300006
vn -0.621369 0.621091 0.477647
vn 0.172189 0.242556 -0.954734
vn -0.049790 0.368279 -0.928381
vn -0.353670 0.681697 0.640474
vn 0.030132 0.306753 0.951312
vn -0.311181 -0.859984 0.404467
vn 0.497517 -0.308122 -0.810887
vn 0.054978 -0.857958 -0.510770
vn 0.005631 -0.998582 -0.052937
vn -0.945073 0.196533 0.261173
vn -0.969284 0.232872 -0.079113
vn -0.279112 0.711832 -0.644509
vn -0.032761 -0.376908 0.925671
vn 0.264658 -0.754925 -0.600037
vn -0.854302 -0.516691 -0.056559
vn -0.998419 -0.035834 -0.043312
vn -0.646655 0.588931 0.484766
vn 0.087043 -0.529182 -0.844032
vn 0.121050 -0.651324 -0.749082
vn 0.122979 -0.768687 -0.627691
vn -0.558930 0.573735 0.598686
vn -0.125343 -0.738206 0.662828
vn 0.472879 -0.630386 -0.615629
vn -0.542614 -0.655157 -0.525679
vn 0.053718 -0.848491 -0.526477
vn -0.941099 -0.336666 -0.031442
vn -0.203421 -0.978217 -0.041374
vn -0.783967 0.003129 0.620795
vn -0.334294 -0.144649 0.931303
vn -0.950625 0.231017 -0.207229
vn -0.139399 -0.939261 -0.313619
vn -0.931615 0.004120 -0.363422
vn -0.877559 0.017715 -0.479140
vn 0.168163 -0.974876 -0.146074
vn 0.226183 -0.953720 -0.198141
vn -0.999074 0.000038 -0.043029
vt 2.354698 2.042523
vt 2.332503 2.052702
vt 2.326312 2.042309
vt 0.897756 2.547292
vt 0.907496 2.516899
vt 0.958569 2.539943
vt -1.228685 -0.403959
vt -1.213076 -0.384193
vt -1.235382 -0.394124
vt 1.374481 2.940902
vt 1.314799 2.943214
vt 1.374336 2.928806
vt 1.940854 2.130160
vt 1.946783 1.965380
vt 1.959709 2.127113
vt 1.926775 2.588806
vt 1.912647 2.579356
vt 1.933150 2.557533
vt -1.151680 -0.486652
vt -1.133152 -0.477802
vt -1.136627 -0.466459
vt 1.534448 2.331826
vt 1.490301 2.355487
vt 1.475107 2.338610
vt 2.038339 2.579741
vt 2.039435 2.560620
vt 2.058259 2.557384
vt -0.202570 3.307124
vt -0.251971 3.266649
vt -0.208354 3.291142
vt -0.211809 -0.294575
vt -0.168734 -0.278778
vt -0.218464 -0.284755
vt 0.007489 2.761123
vt -0.050318 2.738742
vt 0.005192 2.738531
vt 0.573644 2.001019
vt 0.631674 2.158277
vt 0.578693 2.162307
vt 0.626863 2.719085
vt 0.679835 2.714944
vt 0.674787 2.733419
vt -0.002598 3.335672
vt -0.058108 3.335716
vt -0.054531 3.298503
vt 2.093632 -0.803551
vt 2.076257 -0.788929
vt 2.064980 -0.833401
vt -0.129447 2.727006
vt -0.235102 2.703736
vt -0.185947 2.701504
vt 0.150904 2.613048
vt 0.097120 2.565220
vt 0.154509 2.569927
vt -0.036520 2.019065
vt 0.012195 2.018933
vt 0.018197 2.180188
vt -0.758658 3.252279
vt -0.803058 3.219426
vt -0.746915 3.216787
vt 0.489192 -2.092679
vt 0.432123 -2.070207
vt 0.433807 -2.092853
vt 0.559318 1.802632
vt 0.518598 1.795296
vt 0.543843 1.777826
vt -0.269187 2.714083
vt -0.270086 2.686692
vt -0.164770 2.711451
vt -0.336611 3.273846
vt -0.335813 3.246932
vt -0.287407 3.273532
vt -2.496958 2.083645
vt -2.512069 2.067370
vt -2.481335 2.058872
vt -2.480344 2.076940
vt -2.484671 2.060658
vt -2.441462 2.058342
vt -0.361381 0.534239
vt -0.361386 0.521659
vt -0.303801 0.533946
vt -0.049913 -0.251560
vt 0.005865 -0.225426
vt -0.042850 -0.225241
vt -0.065516 2.180169
vt -0.065207 2.028978
vt -0.010453 2.190089
vt -0.772993 3.166263
vt -0.769632 3.144396
vt -0.716881 3.163039
vt 0.331166 -2.174194
vt 0.380049 -2.146118
vt 0.275620 -2.148186
vt 0.482257 0.556201
vt 0.426871 0.556169
vt 0.427912 0.529624
vt 1.807972 1.253528
vt 1.797334 1.226295
vt 1.817298 1.228654
vt -2.479440 2.246437
vt -2.449601 2.217273
vt -2.452188 2.243529
vt -2.475042 2.250941
vt -2.472567 2.224675
vt -2.459002 2.229316
vt -1.780043 0.498497
vt -1.759218 0.480991
vt -1.751112 0.501667
vt -2.493522 2.086264
vt -2.477909 2.061486
vt -2.473568 2.077764
vt -2.487212 2.063724
vt -2.448318 2.045150
vt -2.441940 2.055993
vt -2.403037 1.834995
vt -2.382836 1.803818
vt -2.381188 1.830973
vt 0.147920 2.137904
vt 0.115957 1.967363
vt 0.147348 1.971327
vt -0.397136 -0.111226
vt -0.369024 -0.137134
vt -0.359634 -0.111553
vt -0.383145 2.029335
vt -0.345642 2.029095
vt -0.345648 2.180286
vt -0.320136 3.249656
vt -0.357816 3.227990
vt -0.320316 3.227533
vt 0.443849 -2.177697
vt 0.442843 -2.150344
vt 0.394682 -2.179643
vt 0.615864 0.284813
vt 0.562379 0.256545
vt 0.618064 0.256580
vt 2.111590 -0.347546
vt 2.102869 -0.341662
vt 2.083415 -0.346728
vt -2.479219 2.246659
vt -2.506456 2.222585
vt -2.449379 2.217496
vt -1.391058 -1.029476
vt -1.353806 -1.042662
vt -1.383281 -1.017431
vt -1.893913 2.208597
vt -1.896491 2.035450
vt -1.867494 2.037943
vt -2.489422 2.290299
vt -2.476337 2.118109
vt -2.456412 2.109541
vt -2.360987 1.939051
vt -2.316788 1.926569
vt -2.294129 1.957359
vt 0.395012 2.091629
vt 0.363123 2.087100
vt 0.363816 1.920946
vt 0.345832 2.131260
vt 0.298468 2.131133
vt 0.298458 1.968844
vt -0.383139 2.180523
vt -0.383135 2.029333
vt -0.345638 2.180283
vt -2.384021 1.172567
vt -2.395860 1.135617
vt -2.380870 1.129216
vt -2.476254 2.241745
vt -2.503396 2.238201
vt -2.503484 2.217663
vt 0.355835 0.236781
vt 0.306631 0.236462
vt 0.306663 0.208143
vt 0.568951 -1.861369
vt 0.621963 -1.851082
vt 0.566278 -1.851195
vt -2.117543 1.671860
vt -2.085955 1.596093
vt -2.074583 1.633938
vt -1.111290 2.547295
vt -1.079747 2.366275
vt -1.078888 2.542479
vt -2.390294 1.780111
vt -2.324006 1.800388
vt -2.339088 1.803396
vt 1.854568 -1.222661
vt 1.822714 -1.231327
vt 1.829409 -1.242771
vt 0.379624 -2.047296
vt 0.381007 -2.034110
vt 0.332264 -2.047945
vt 0.755793 -1.969809
vt 0.753163 -1.956955
vt 0.700763 -1.970004
vt -2.482764 2.233040
vt -2.500164 2.210697
vt -2.482811 2.212501
vt 0.355850 0.236757
vt 0.306678 0.208118
vt 0.355882 0.208438
vt -2.094307 2.259752
vt -2.068993 2.085374
vt -2.012850 2.249588
vt 2.096195 -0.736337
vt 2.082678 -0.720973
vt 2.054009 -0.736824
vt -2.431790 2.117586
vt -2.434449 2.073656
vt -2.419163 2.071973
vt -1.911171 2.215924
vt -1.967382 2.051733
vt -1.912657 2.064754
vt 2.115166 -1.114094
vt 2.072991 -1.115116
vt 2.085084 -1.127691
vt 0.365088 -2.066288
vt 0.413651 -2.051833
vt 0.364464 -2.053182
vt -2.432231 2.224793
vt -2.433948 2.073625
vt -2.431290 2.117556
usemtl material-0
f 2/1/2 4/2/4 1/3/1
f 6/4/6 3/5/3 1/6/1
f 7/7/7 4/8/4 2/9/2
f 4/10/4 6/11/6 1/12/1
f 8/13/8 5/14/5 3/15/3
f 6/16/6 9/17/9 3/18/3
f 7/19/7 10/20/10 4/21/4
f 4/22/4 11/23/11 6/24/6
f 9/25/9 8/26/8 3/27/3
f 6/28/6 15/29/15 9/30/9
f 10/31/10 11/32/11 4/33/4
f 11/34/11 16/35/16 6/36/6
f 14/37/14 8/38/8 15/39/15
f 15/40/15 8/41/8 9/42/9
f 6/43/6 16/44/16 15/45/15
f 19/46/19 11/47/11 10/48/10
f 11/49/11 20/50/20 16/51/16
f 17/52/17 12/53/12 21/54/21
f 25/55/25 14/56/14 15/57/15
f 16/58/16 26/59/26 15/60/15
f 28/61/28 11/62/11 19/63/19
f 19/64/19 10/65/10 27/66/27
f 29/67/29 20/68/20 11/69/11
f 20/70/20 26/71/26 16/72/16
f 30/73/30 18/74/18 17/75/17
f 31/76/31 17/77/17 21/78/21
f 24/79/24 21/80/21 13/81/13
f 24/82/24 14/83/14 25/84/25
f 33/85/33 25/86/25 15/87/15
f 26/88/26 33/89/33 15/90/15
f 28/91/28 29/92/29 11/93/11
f 28/94/28 19/95/19 34/96/34
f 19/97/19 27/98/27 34/99/34
f 29/100/35 35/101/36 20/102/20
f 20/103/20 35/104/36 26/105/26
f 36/106/37 18/107/18 30/108/30
f 30/109/30 17/110/17 31/111/31
f 31/112/31 21/113/21 24/114/24
f 32/115/32 18/116/18 36/117/37
f 39/118/40 23/119/23 32/120/32
f 40/121/41 24/122/24 25/123/25
f 40/124/41 25/125/25 33/126/33
f 26/127/26 41/128/42 33/129/33
f 43/130/44 29/131/29 28/132/28
f 28/133/28 34/134/34 44/135/45
f 42/136/43 34/137/34 27/138/27
f 29/139/35 45/140/46 35/141/36
f 35/142/36 46/143/47 26/144/26
f 47/145/48 36/146/37 30/147/30
f 47/148/48 30/149/30 31/150/31
f 31/151/31 24/152/24 40/153/41
f 39/154/40 37/155/38 23/156/23
f 37/157/38 38/158/39 22/159/22
f 41/160/42 40/161/41 33/162/33
f 26/163/26 46/164/47 41/165/42
f 29/166/35 43/167/44 45/168/46
f 43/169/44 28/170/28 44/171/45
f 42/172/43 44/173/45 34/174/34
f 45/175/46 46/176/47 35/177/36
f 47/178/48 31/179/31 45/180/49
f 31/181/31 40/182/41 48/183/50
f 39/184/40 49/185/51 37/186/38
f 37/187/38 49/188/51 38/189/39
f 38/190/39 44/191/45 42/192/43
f 43/193/44 49/194/51 45/195/46
f 43/196/44 44/197/45 49/198/51
f 45/199/52 31/200/31 46/201/53
f 39/202/40 47/203/54 45/204/55
f 50/205/56 48/206/50 40/207/41
f 46/208/53 31/209/31 48/210/50
f 39/211/40 45/212/55 49/213/51
f 38/214/39 49/215/51 44/216/45
f 46/217/53 48/218/50 50/219/56
usemtl material-1
f 1//57 4//60 2//58
f 1//57 3//59 6//62
f 2//58 4//60 7//63
f 1//57 6//62 4//60
f 3//59 5//61 8//64
f 3//59 9//65 6//62
f 4//60 10//66 7//63
f 6//62 11//67 4//60
f 3//59 8//64 9//65
f 9//65 15//71 6//62
f 4//60 11//67 10//66
f 6//62 16//72 11//67
f 15//71 8//64 14//70
f 9//65 8//64 15//71
f 15//71 16//72 6//62
f 10//66 11//67 19//75
f 16//72 20//76 11//67
f 21//77 12//68 17//73
f 15//71 14//70 25//81
f 15//71 26//82 16//72
f 19//75 11//67 28//84
f 27//83 10//66 19//75
f 11//67 20//76 29//85
f 16//72 26//82 20//76
f 17//73 18//74 30//86
f 21//77 17//73 31//87
f 13//69 21//77 24//80
f 25//81 14//70 24//80
f 15//71 25//81 33//89
f 15//71 33//89 26//82
f 11//67 29//85 28//84
f 34//90 19//75 28//84
f 34//90 27//83 19//75
f 20//76 35//91 29//92
f 26//82 35//91 20//76
f 30//86 18//74 36//93
f 31//87 17//73 30//86
f 24//80 21//77 31//87
f 36//93 18//74 32//88
f 32//88 23//79 39//96
f 25//81 24//80 40//97
f 33//89 25//81 40//97
f 33//89 41//98 26//82
f 28//84 29//85 43//100
f 44//101 34//90 28//84
f 27//83 34//90 42//99
f 35//91 45//102 29//92
f 26//82 46//103 35//91
f 30//86 36//93 47//104
f 31//87 30//86 47//104
f 40//97 24//80 31//87
f 23//79 37//94 39//96
f 22//78 38//95 37//94
f 33//89 40//97 41//98
f 41//98 46//103 26//82
f 45//102 43//100 29//92
f 44//101 28//84 43//100
f 34//90 44//101 42//99
f 35//91 46//103 45//102
f 45//105 31//87 47//104
f 48//106 40//97 31//87
f 37//94 49//107 39//96
f 38//95 49//107 37//94
f 42//99 44//101 38//95
f 45//102 49//107 43//100
f 49//107 44//101 43//100
f 46//108 31//87 45//109
f 45//110 47//111 39//96
f 40//97 48//106 50//112
f 48//106 31//87 46//108
f 49//107 45//110 39//96
f 44//101 49//107 38//95
f 50//112 48//106 46//108