# SSTK version 0.8.0
# 46
mtllib original-46.mtl
o mesh46/mesh46-geometry#mesh46-geometry
v 0.091385 0.121184 -0.657387
v 0.076933 0.117620 -0.660916
v 0.076933 0.124747 -0.660916
v 0.091385 0.124747 -0.657387
v 0.076148 0.124747 -0.646854
v 0.097302 0.121184 -0.650243
v 0.097302 0.124747 -0.650243
v 0.087512 0.124747 -0.644904
v 0.101784 0.124747 -0.629295
v 0.091060 0.124747 -0.642066
v 0.087512 0.121184 -0.644904
v 0.101784 0.121184 -0.629295
v 0.094602 0.124747 -0.630265
v 0.076148 0.117620 -0.646854
v 0.091060 0.121184 -0.642066
v 0.094602 0.121184 -0.630265
vn 0.43440531128183113 0 -0.9007175059529682
vn 0.2372647626741945 0 -0.9714450228361655
vn -0.2372647626741945 0 0.9714450228361655
vn -0.43440531128183113 0 0.9007175059529682
vn 0.6203849568537512 0 -0.7842974597112816
vn -0.6203849568537512 0 0.7842974597112816
vn 0 1 0
vn 0 -1 0
vn 0.8998940911389512 0 -0.4361085011017335
vn -0.8998940911389512 0 0.4361085011017335
vn 0.9778627065498479 0 -0.2092475260045054
vn -0.9778627065498479 0 0.2092475260045054
vn -0.4099693987270758 0 0.9120992775500703
vn -0.16911044730213057 0 0.9855971066380387
vn 0.4099693987270758 0 -0.9120992775500703
vn 0.16911044730213057 0 -0.9855971066380387
vn -0.7666030120822861 0 0.6421213451259554
vn 0.7666030120822861 0 -0.6421213451259554
vn -0.13384205063022486 0 0.9910026768294304
vn -0.649344884831639 0 0.7604940634501924
vn 0.13384205063022486 0 -0.9910026768294304
vn 0.649344884831639 0 -0.7604940634501924
vn -0.8822317593683923 0 0.4708153807616642
vn 0.8822317593683923 0 -0.4708153807616642
usemtl material_0_0
f 1//1 2//2 3//2
f 3//3 2//3 1//4
f 1//1 3//2 4//5
f 4//6 3//3 1//4
f 5//7 4//7 3//7
f 3//8 4//8 5//8
f 4//5 6//9 1//1
f 1//4 6//10 4//6
f 5//7 7//7 4//7
f 4//8 7//8 5//8
f 7//9 6//9 4//5
f 4//6 6//10 7//10
f 8//7 7//7 5//7
f 5//8 7//8 8//8
f 9//11 6//9 7//9
f 7//10 6//10 9//12
f 10//7 7//7 8//7
f 8//8 7//8 10//8
f 8//13 5//14 11//13
f 11//15 5//16 8//15
f 9//11 12//11 6//9
f 6//10 12//12 9//12
f 9//7 7//7 13//7
f 13//8 7//8 9//8
f 13//7 7//7 10//7
f 10//8 7//8 13//8
f 10//17 8//13 11//13
f 11//15 8//15 10//18
f 11//13 5//14 14//14
f 14//16 5//16 11//15
f 9//19 13//20 12//19
f 12//21 13//22 9//21
f 10//17 15//23 13//20
f 13//22 15//24 10//18
f 10//17 11//13 15//23
f 15//24 11//15 10//18
f 12//19 13//20 16//20
f 16//22 13//22 12//21
f 13//20 15//23 16//20
f 16//22 15//24 13//22
