# SSTK version 0.8.0
# 48
mtllib original-48.mtl
o mesh48/mesh48-geometry#mesh48-geometry
v 0.101784 0.074713 -0.629295
v 0.094602 0.074713 -0.630265
v 0.094602 0.071123 -0.630265
v 0.097302 0.074713 -0.650243
v 0.091060 0.071123 -0.642066
v 0.101784 0.071123 -0.629295
v 0.097302 0.071123 -0.650243
v 0.091060 0.074713 -0.642066
v 0.091385 0.074713 -0.657387
v 0.087512 0.074713 -0.644904
v 0.087512 0.071123 -0.644904
v 0.091385 0.071123 -0.657387
v 0.076148 0.074713 -0.646854
v 0.085635 0.074713 -0.660332
v 0.085635 0.071123 -0.660332
v 0.067432 0.071123 -0.661386
v 0.076148 0.071123 -0.646854
v 0.087512 0.078276 -0.644904
v 0.076148 0.081839 -0.646854
v 0.091385 0.078276 -0.657387
v 0.087512 0.081839 -0.644904
v 0.097302 0.081839 -0.650243
v 0.091060 0.081839 -0.642066
v 0.091385 0.081839 -0.657387
v 0.091060 0.078276 -0.642066
v 0.094602 0.081839 -0.630265
v 0.097302 0.078276 -0.650243
v 0.076933 0.081839 -0.660916
v 0.101784 0.081839 -0.629295
v 0.094602 0.078276 -0.630265
v 0.101784 0.078276 -0.629295
vn -0.13384106540376856 0 0.9910028098908621
vn -0.7945910367005644 0 0.6071450274811796
vn -0.47513387162797616 0 0.8799135207688367
vn 0.47513387162797616 0 -0.8799135207688367
vn 0.7945910367005644 0 -0.6071450274811796
vn 0.13384106540376856 0 -0.9910028098908621
vn 0 1 0
vn 0.0000019730942693414064 1 0.0000010520919366113334
vn 0 -1 0
vn -0.0000019730942693414064 -1 -0.0000010520919366113334
vn -0.8822334525652297 0 0.47081220797132567
vn 0.8822334525652297 0 -0.47081220797132567
vn 0.977862503152246 0 -0.209248476526888
vn 0.8998950662114352 0 -0.43610648906925986
vn -0.8998950662114352 0 0.43610648906925986
vn -0.977862503152246 0 0.209248476526888
vn -0.7666039184386253 0 0.6421202630617925
vn 0.7666039184386253 0 -0.6421202630617925
vn 0.6777389015733672 0 -0.735302646054076
vn -0.6777389015733672 0 0.735302646054076
vn 0.0000028940966020425385 1 0.000004077278142523301
vn -0.0000028940966020425385 -1 -0.000004077278142523301
vn -0.40996939872687077 0.0000010000004719276869 0.9120992775496142
vn 0.40996939872687077 -0.0000010000004719276869 -0.9120992775496142
vn 0.5710576643672578 0 -0.8209099487565078
vn -0.5710576643672578 0 0.8209099487565078
vn -0.046364275477498475 0.9983913027156741 -0.032636798573791106
vn 0.000005945500728696426 1 0.0000021566197147374302
vn -0.000005945500728696426 -1 -0.0000021566197147374302
vn 0.046364275477498475 -0.9983913027156741 0.032636798573791106
vn -0.4099693987270758 0 0.9120992775500703
vn 0.4099693987270758 0 -0.9120992775500703
vn 0.21797759794682944 0.548135262131083 -0.807485913933995
vn -0.21797759794682944 -0.548135262131083 0.807485913933995
vn -0.169110447302046 0.000001000000190213995 0.9855971066375459
vn 0.169110447302046 -0.000001000000190213995 -0.9855971066375459
vn 0.2625076075782347 0 -0.9649299228252545
vn -0.2625076075782347 0 0.9649299228252545
vn -0.08474330901894535 0.6511887330853005 -0.7541696132033435
vn 0.08474330901894535 -0.6511887330853005 0.7541696132033435
vn -0.16910947186350891 0.0000030000010002646892 0.9855972740004131
vn 0.16910947186350891 -0.0000030000010002646892 -0.9855972740004131
vn 0.28047855845312986 -0.9570334725511971 0.073611892141497
vn 0.28877559740226627 -0.9553370474754787 0.06276766735987038
vn -0.28047855845312986 0.9570334725511971 -0.073611892141497
vn -0.28877559740226627 0.9553370474754787 -0.06276766735987038
vn -0.16911044730213057 0 0.9855971066380387
vn 0.16911044730213057 0 -0.9855971066380387
vn 0.27212967790884374 -0.9585483118656545 0.08444271561675981
vn -0.27212967790884374 0.9585483118656545 -0.08444271561675981
vn 0.7701434335068451 0 -0.6378707485269157
vn -0.7701434335068451 0 0.6378707485269157
vn -0.649346545518409 0 0.7604926454761473
vn 0.649346545518409 0 -0.7604926454761473
usemtl material_0_0
f 1//1 2//2 3//3
f 3//4 2//5 1//6
f 1//7 4//8 2//7
f 2//9 4//10 1//9
f 2//2 5//11 3//3
f 3//4 5//12 2//5
f 1//1 3//3 6//1
f 6//6 3//4 1//6
f 1//13 7//14 4//14
f 4//15 7//15 1//16
f 2//7 4//8 8//7
f 8//9 4//10 2//9
f 8//17 5//11 2//2
f 2//5 5//12 8//18
f 1//13 6//13 7//14
f 7//15 6//16 1//16
f 4//14 7//14 9//19
f 9//20 7//15 4//15
f 8//7 4//8 10//21
f 10//22 4//10 8//9
f 8//17 11//23 5//11
f 5//12 11//24 8//18
f 9//19 7//14 12//25
f 12//26 7//15 9//20
f 13//27 4//8 9//28
f 9//29 4//10 13//30
f 10//21 4//8 13//27
f 13//30 4//10 10//22
f 8//17 10//31 11//23
f 11//24 10//32 8//18
f 12//25 14//33 9//19
f 9//20 14//34 12//26
f 13//27 9//28 14//33
f 14//34 9//29 13//30
f 10//31 13//35 11//23
f 11//24 13//36 10//32
f 12//25 15//37 14//33
f 14//34 15//38 12//26
f 13//27 14//33 16//39
f 16//40 14//34 13//30
f 11//23 13//35 17//41
f 17//42 13//36 11//24
f 11//9 15//9 12//9
f 12//7 15//7 11//7
f 15//37 16//39 14//33
f 14//34 16//40 15//38
f 18//43 13//44 16//43
f 16//45 13//46 18//45
f 11//9 17//9 15//9
f 15//7 17//7 11//7
f 17//9 16//9 15//9
f 15//7 16//7 17//7
f 18//31 19//47 13//47
f 13//48 19//48 18//32
f 18//43 16//43 20//49
f 20//50 16//45 18//45
f 21//31 19//47 18//31
f 18//32 19//48 21//32
f 21//7 22//7 19//7
f 19//9 22//9 21//9
f 23//17 21//31 18//31
f 18//32 21//32 23//18
f 23//7 22//7 21//7
f 21//9 22//9 23//9
f 19//7 22//7 24//7
f 24//9 22//9 19//9
f 23//17 18//31 25//11
f 25//12 18//32 23//18
f 26//7 22//7 23//7
f 23//9 22//9 26//9
f 22//14 27//14 24//51
f 24//52 27//15 22//15
f 19//7 24//7 28//7
f 28//9 24//9 19//9
f 23//17 25//11 26//53
f 26//54 25//12 23//18
f 29//7 22//7 26//7
f 26//9 22//9 29//9
f 29//13 27//14 22//14
f 22//15 27//15 29//16
f 24//51 27//14 20//51
f 20//52 27//15 24//52
f 26//53 25//11 30//53
f 30//54 25//12 26//54
f 29//1 26//53 31//1
f 31//6 26//54 29//6
f 29//13 31//13 27//14
f 27//15 31//16 29//16
f 31//1 26//53 30//53
f 30//54 26//54 31//6
