# SSTK version 0.8.0
# 32
mtllib original-32.mtl
o mesh32/mesh32-geometry#mesh32-geometry
v -0.294007 -0.108137 -0.553844
v -0.315262 -0.108137 -0.554959
v -0.315419 -0.096941 -0.551963
v -0.294164 -0.119334 -0.550848
v -0.294164 -0.096941 -0.550848
v -0.315419 -0.119334 -0.551963
v -0.315849 -0.088744 -0.543778
v -0.294593 -0.127530 -0.542663
v -0.294593 -0.088744 -0.542663
v -0.315849 -0.127530 -0.543778
v -0.316435 -0.085744 -0.532596
v -0.295180 -0.130530 -0.531482
v -0.295180 -0.085744 -0.531482
v -0.316435 -0.130530 -0.532597
v -0.317022 -0.088744 -0.521416
v -0.295766 -0.127530 -0.520301
v -0.295766 -0.088744 -0.520301
v -0.317022 -0.127530 -0.521416
v -0.317451 -0.096941 -0.513230
v -0.296195 -0.119334 -0.512115
v -0.296195 -0.096941 -0.512115
v -0.317451 -0.119334 -0.513230
v -0.317608 -0.108137 -0.510234
v -0.296353 -0.108137 -0.509120
vn 0.0521710657535707 0.08896405607385661 -0.9946675709125258
vn 0.0521710657535707 -0.08896405607385661 -0.9946675709125258
vn 0.04751120047229918 0.4209780442661637 -0.9058256852593202
vn -0.04751120047229918 -0.4209780442661637 0.9058256852593202
vn -0.0521710657535707 0.08896405607385661 0.9946675709125258
vn -0.0521710657535707 -0.08896405607385661 0.9946675709125258
vn 0.04751124361227486 -0.42097519420433954 -0.9058270075434015
vn -0.04751124361227486 0.42097519420433954 0.9058270075434015
vn 0.042849433266729714 0.5750622960625773 -0.8169867084083784
vn -0.042849433266729714 -0.5750622960625773 0.8169867084083784
vn 0.04285146237439565 -0.5750599922171684 -0.8169882236137594
vn -0.04285146237439565 0.5750599922171684 0.8169882236137594
vn 0.030118552017356436 0.8181107192793606 -0.5742714722364199
vn -0.030118552017356436 -0.8181107192793606 0.5742714722364199
vn 0.03012065105579589 -0.8181082916504772 -0.5742748205456274
vn -0.03012065105579589 0.8181082916504772 0.5742748205456274
vn 0.022047474270982376 0.9070730836503462 -0.42039544454634903
vn -0.022047474270982376 -0.9070730836503462 0.42039544454634903
vn 0.022049580853659472 -0.9070711823236857 -0.42039943646737793
vn -0.022049580853659472 0.9070711823236857 0.42039943646737793
vn 0.00465875982179987 0.9960351577530725 -0.08883839528455308
vn -0.00465875982179987 -0.9960351577530725 0.08883839528455308
vn 0.004659836877758928 -0.9960348896972099 -0.08884134412614236
vn -0.004659836877758928 0.9960348896972099 0.08884134412614236
vn -0.0046598110742495005 0.9960349782770472 0.08884035237094878
vn 0.0046598110742495005 -0.9960349782770472 -0.08884035237094878
vn -0.004659836877758928 -0.9960348896972099 0.08884134412614236
vn 0.004659836877758928 0.9960348896972099 -0.08884134412614236
vn -0.02204943615807816 0.9070736226002555 0.4203941787750635
vn 0.02204943615807816 -0.9070736226002555 -0.4203941787750635
vn -0.02204951003678019 -0.9070725047181469 0.42039658691702697
vn 0.02204951003678019 0.9070725047181469 -0.42039658691702697
vn -0.030120474429851635 0.8181127669394146 0.5742684542884587
vn 0.030120474429851635 -0.8181127669394146 -0.5742684542884587
vn -0.03012054151932773 -0.8181111649512299 0.5742707329829059
vn 0.03012054151932773 0.8181111649512299 -0.5742707329829059
vn -0.042851446559510946 0.5750611318246122 0.8169874222975244
vn 0.042851446559510946 -0.5750611318246122 -0.8169874222975244
vn -0.042851446559510946 -0.5750611318246122 0.8169874222975244
vn 0.042851446559510946 0.5750611318246122 -0.8169874222975244
vn -0.04751128988917868 0.4209711396313551 0.9058288894325155
vn 0.04751128988917868 -0.4209711396313551 -0.9058288894325155
vn -0.04751128988917868 -0.4209711396313551 0.9058288894325155
vn 0.04751128988917868 0.4209711396313551 -0.9058288894325155
vn -0.052171058590075765 0.08895999915065442 0.9946679341351599
vn 0.052171058590075765 -0.08895999915065442 -0.9946679341351599
vn -0.052171058590075765 -0.08895999915065442 0.9946679341351599
vn 0.052171058590075765 0.08895999915065442 -0.9946679341351599
usemtl material_0_0
f 1//1 2//2 3//3
f 3//4 2//5 1//6
f 1//1 4//7 2//2
f 2//5 4//8 1//6
f 1//1 3//3 5//9
f 5//10 3//4 1//6
f 4//7 6//11 2//2
f 2//5 6//12 4//8
f 7//13 5//9 3//3
f 3//4 5//10 7//14
f 8//15 6//11 4//7
f 4//8 6//12 8//16
f 9//17 5//9 7//13
f 7//14 5//10 9//18
f 8//15 10//19 6//11
f 6//12 10//20 8//16
f 11//21 9//17 7//13
f 7//14 9//18 11//22
f 12//23 10//19 8//15
f 8//16 10//20 12//24
f 13//25 9//17 11//21
f 11//22 9//18 13//26
f 12//23 14//27 10//19
f 10//20 14//28 12//24
f 15//29 13//25 11//21
f 11//22 13//26 15//30
f 16//31 14//27 12//23
f 12//24 14//28 16//32
f 17//33 13//25 15//29
f 15//30 13//26 17//34
f 16//31 18//35 14//27
f 14//28 18//36 16//32
f 19//37 17//33 15//29
f 15//30 17//34 19//38
f 20//39 18//35 16//31
f 16//32 18//36 20//40
f 21//41 17//33 19//37
f 19//38 17//34 21//42
f 20//39 22//43 18//35
f 18//36 22//44 20//40
f 21//41 19//37 23//45
f 23//46 19//38 21//42
f 20//39 24//47 22//43
f 22//44 24//48 20//40
f 21//41 23//45 24//47
f 24//48 23//46 21//42
f 24//47 23//45 22//43
f 22//44 23//46 24//48
