# SSTK version 0.8.0
# 19
mtllib original-19.mtl
o mesh19/mesh19-geometry#mesh19-geometry
v -0.733894 -0.749960 -0.559208
v -0.725591 -0.788355 -0.538654
v -0.722783 -0.782907 -0.531702
v -0.728763 -0.792125 -0.546505
v -0.663627 -0.788355 -0.563687
v -0.720460 -0.776019 -0.525952
v -0.732159 -0.794052 -0.554911
v -0.666799 -0.792125 -0.571537
v -0.660819 -0.782907 -0.556734
v -0.718724 -0.767992 -0.521655
v -0.735630 -0.794052 -0.563505
v -0.670195 -0.794052 -0.579943
v -0.671930 -0.749960 -0.584240
v -0.658495 -0.776019 -0.550984
v -0.717651 -0.759177 -0.518999
v -0.739026 -0.792125 -0.571911
v -0.673666 -0.794052 -0.588537
v -0.656760 -0.767992 -0.546687
v -0.717288 -0.749960 -0.518101
v -0.742198 -0.788355 -0.579762
v -0.677062 -0.792125 -0.596943
v -0.655687 -0.759178 -0.544031
v -0.717651 -0.740742 -0.518999
v -0.745006 -0.782907 -0.586714
v -0.680234 -0.788355 -0.604794
v -0.655324 -0.749960 -0.543133
v -0.718724 -0.731927 -0.521655
v -0.747329 -0.776019 -0.592465
v -0.683042 -0.782907 -0.611746
v -0.720460 -0.723900 -0.525952
v -0.655687 -0.740742 -0.544031
v -0.749065 -0.767992 -0.596761
v -0.685365 -0.776019 -0.617497
v -0.722783 -0.717012 -0.531702
v -0.656760 -0.731927 -0.546687
v -0.750138 -0.759177 -0.599417
v -0.687101 -0.767992 -0.621794
v -0.725591 -0.711565 -0.538654
v -0.658496 -0.723900 -0.550984
v -0.750501 -0.749960 -0.600315
v -0.688174 -0.759177 -0.624449
v -0.728763 -0.707795 -0.546505
v -0.660818 -0.717012 -0.556734
v -0.688537 -0.749960 -0.625347
v -0.750138 -0.740742 -0.599417
v -0.732159 -0.705868 -0.554911
v -0.663627 -0.711565 -0.563687
v -0.688174 -0.740742 -0.624449
v -0.749065 -0.731927 -0.596761
v -0.735630 -0.705868 -0.563505
v -0.666799 -0.707795 -0.571537
v -0.687101 -0.731927 -0.621794
v -0.747330 -0.723900 -0.592464
v -0.739026 -0.707795 -0.571911
v -0.670195 -0.705868 -0.579943
v -0.685365 -0.723900 -0.617497
v -0.745006 -0.717012 -0.586714
v -0.673666 -0.705868 -0.588537
v -0.742198 -0.711565 -0.579762
v -0.683042 -0.717012 -0.611746
v -0.677062 -0.707795 -0.596943
v -0.680234 -0.711565 -0.604794
vn -0.9271988782118293 0 0.3745694064425515
vn -0.9271995652156412 0 0.37456770584758947
vn -0.9271988782076568 0.0000029999995591922353 0.37456940644086584
vn 0.9271988782076568 -0.0000029999995591922353 -0.37456940644086584
vn 0.9271995652156412 0 -0.37456770584758947
vn 0.9271988782118293 0 -0.3745694064425515
vn -0.9271992217121336 0.0000020000005036320333 0.37456855614481793
vn 0.9271992217121336 -0.0000020000005036320333 -0.37456855614481793
vn 0.24073604628086087 -0.766116741719224 0.5959121529878203
vn 0.17581136650396906 -0.8830018689904509 0.435198877258866
vn 0.19852690873680204 -0.8479887527761789 0.4914286740438638
vn -0.19852690873680204 0.8479887527761789 -0.4914286740438638
vn -0.17581136650396906 0.8830018689904509 -0.435198877258866
vn -0.24073604628086087 0.766116741719224 -0.5959121529878203
vn -0.927198041840962 0.0000029999999178645298 0.37457147675348407
vn 0.927198041840962 -0.0000029999999178645298 -0.37457147675348407
vn -0.9271992217135245 0.0000010000002518175167 0.3745685561453798
vn 0.9271992217135245 -0.0000010000002518175167 -0.3745685561453798
vn 0.10320363427985751 -0.9612932875582046 0.25546863832370487
vn 0.128150150757122 -0.9396537518852198 0.31721974312604895
vn -0.128150150757122 0.9396537518852198 -0.31721974312604895
vn -0.10320363427985751 0.9612932875582046 -0.25546863832370487
vn 0.2602278747986423 -0.7192602244867949 0.6441631646166891
vn -0.2602278747986423 0.7192602244867949 -0.6441631646166891
vn 0.2951370283398529 -0.6157507646760509 0.7305786270509008
vn -0.2951370283398529 0.6157507646760509 -0.7305786270509008
vn -0.9271992217135245 -0.0000010000002518175167 0.3745685561453798
vn 0.9271992217135245 0.0000010000002518175167 -0.3745685561453798
vn -0.9271983853484357 0.0000010000003713770912 0.3745706264594888
vn 0.9271983853484357 -0.0000010000003713770912 -0.3745706264594888
vn 0.02608601691162147 -0.9975720336552685 0.06457211000562613
vn 0.05217202075763364 -0.9902522830460906 0.12914525222427023
vn -0.05217202075763364 0.9902522830460906 -0.12914525222427023
vn -0.02608601691162147 0.9975720336552685 -0.06457211000562613
vn 0.9271992217139882 0 -0.3745685561455671
vn -0.9271992217139882 0 0.3745685561455671
vn 0.3105549471145344 -0.5590981298576876 0.7687424185072168
vn -0.3105549471145344 0.5590981298576876 -0.7687424185072168
vn 0.33664099357728766 -0.4384721677342265 0.8333156662188375
vn -0.33664099357728766 0.4384721677342265 -0.8333156662188375
vn -0.9271995652082236 -0.000004000002602235728 0.3745677058445929
vn 0.9271995652082236 0.000004000002602235728 -0.3745677058445929
vn -0.9271988782113657 9.999998530680785e-7 0.3745694064423642
vn 0.9271988782113657 -9.999998530680785e-7 -0.3745694064423642
vn -0.05217202075763364 -0.9902522830460906 -0.12914525222427023
vn -0.02608598902767945 -0.9975719699438558 -0.06457310553769778
vn 0.02608598902767945 0.9975719699438558 0.06457310553769778
vn 0.05217202075763364 0.9902522830460906 0.12914525222427023
vn 0.34731024227623447 -0.3744991031285933 0.8597243845360575
vn -0.34731024227623447 0.3744991031285933 -0.8597243845360575
vn 0.36343256871332613 -0.24203509713301372 0.8996309130717142
vn -0.36343256871332613 0.24203509713301372 -0.8996309130717142
vn -0.9272000580742541 0 0.37456648583008556
vn 0.9272000580742541 0 -0.37456648583008556
vn -0.128150150757122 -0.9396537518852198 -0.31721974312604895
vn -0.10320457030232774 -0.9612929390491036 -0.25546957157956846
vn 0.10320457030232774 0.9612929390491036 0.25546957157956846
vn 0.128150150757122 0.9396537518852198 0.31721974312604895
vn 0.9271987288516947 0.0000010000007701281495 -0.3745697761630021
vn -0.9271987288516947 -0.0000010000007701281495 0.3745697761630021
vn 0.368885379836599 -0.1735420070669246 0.9131301924293115
vn -0.368885379836599 0.1735420070669246 -0.9131301924293115
vn 0.3743391627708486 -0.035015989014949456 0.9266304936323458
vn -0.3743391627708486 0.035015989014949456 -0.9266304936323458
vn -0.9271995652082236 0.000004000002602235728 0.3745677058445929
vn 0.9271995652082236 -0.000004000002602235728 -0.3745677058445929
vn -0.19852707708545356 -0.8479884718608283 -0.49142909077001506
vn -0.1758122847077395 -0.8830007232587384 -0.43520083096243056
vn 0.1758122847077395 0.8830007232587384 0.43520083096243056
vn 0.19852707708545356 0.8479884718608283 0.49142909077001506
vn 0.9271988782044117 0.000003999999412242314 -0.3745694064395549
vn -0.9271988782044117 -0.000003999999412242314 0.3745694064395549
vn 0.3743391627708486 0.035015989014949456 0.9266304936323458
vn -0.3743391627708486 -0.035015989014949456 -0.9266304936323458
vn 0.368885379836599 0.1735420070669246 0.9131301924293115
vn -0.368885379836599 -0.1735420070669246 -0.9131301924293115
vn -0.9271983853470448 -0.000002000000742751182 0.3745706264589269
vn 0.9271983853470448 0.000002000000742751182 -0.3745706264589269
vn -0.26022695207432595 -0.7192613646598944 -0.6441622642795005
vn -0.24073526010037566 -0.7661182542124093 -0.5959105260917402
vn 0.24073526010037566 0.7661182542124093 0.5959105260917402
vn 0.26022695207432595 0.7192613646598944 0.6441622642795005
vn 0.36343256871332613 0.24203509713301372 0.8996309130717142
vn 0.347310173616185 0.37450200082319546 0.8597231500210512
vn -0.347310173616185 -0.37450200082319546 -0.8597231500210512
vn -0.36343256871332613 -0.24203509713301372 -0.8996309130717142
vn -0.9271976983390092 -0.0000019999991477438117 0.374572327048921
vn 0.9271976983390092 0.0000019999991477438117 -0.374572327048921
vn -0.29513726782070193 -0.6157512096110913 -0.7305781553029144
vn -0.3105559290169359 -0.5590961450950273 -0.7687434653330771
vn 0.3105559290169359 0.5590961450950273 0.7687434653330771
vn 0.29513726782070193 0.6157512096110913 0.7305781553029144
vn 0.9271988782113657 9.999998530680785e-7 -0.3745694064423642
vn -0.9271988782113657 -9.999998530680785e-7 0.3745694064423642
vn 0.9271988782044117 -0.000003999999412242314 -0.3745694064395549
vn -0.9271988782044117 0.000003999999412242314 0.3745694064395549
vn -0.9271988782076568 -0.0000029999995591922353 0.37456940644086584
vn 0.9271988782076568 0.0000029999995591922353 -0.37456940644086584
vn 0.33664084596945376 0.4384729754761624 0.8333153008327948
vn 0.3105558403021776 0.5590950325814508 0.7687443102859068
vn -0.3105558403021776 -0.5590950325814508 -0.7687443102859068
vn -0.33664084596945376 -0.4384729754761624 -0.8333153008327948
vn -0.9271983853447268 0.0000030000011141192738 0.3745706264579905
vn 0.9271983853447268 -0.0000030000011141192738 -0.3745706264579905
vn -0.33664171651890734 -0.4384708414653129 -0.8333160720182373
vn -0.34731024227623447 -0.3744991031285933 -0.8597243845360575
vn 0.34731024227623447 0.3744991031285933 0.8597243845360575
vn 0.33664171651890734 0.4384708414653129 0.8333160720182373
vn 0.927198041840962 0.0000029999999178645298 -0.37457147675348407
vn -0.927198041840962 -0.0000029999999178645298 0.37457147675348407
vn 0.29513818322598234 0.6157471979319377 0.7305811666345046
vn 0.26022879752182815 0.7192590843120095 0.6441640649516186
vn -0.26022879752182815 -0.7192590843120095 -0.6441640649516186
vn -0.29513818322598234 -0.6157471979319377 -0.7305811666345046
vn -0.9271988782099748 0.0000019999997061331564 0.37456940644180226
vn 0.9271988782099748 -0.0000019999997061331564 -0.37456940644180226
vn -0.3634323950416171 -0.24203299893325989 -0.8996315477247818
vn -0.36888534054253286 -0.17353700091522994 -0.9131311597170295
vn 0.36888534054253286 0.17353700091522994 0.9131311597170295
vn 0.3634323950416171 0.24203299893325989 0.8996315477247818
vn 0.9271987288503041 0.000002000001540253299 -0.37456977616244025
vn -0.9271987288503041 -0.000002000001540253299 0.37456977616244025
vn 0.24073524377430042 0.7661191188201211 0.5959094211230507
vn 0.19852690873680204 0.8479887527761789 0.4914286740438638
vn -0.19852690873680204 -0.8479887527761789 -0.4914286740438638
vn -0.24073524377430042 -0.7661191188201211 -0.5959094211230507
vn -0.37433918898580654 -0.03501399146760526 -0.9266305585242455
vn -0.37433917587851406 0.03501499024132981 -0.9266305260787573
vn 0.37433917587851406 -0.03501499024132981 0.9266305260787573
vn 0.37433918898580654 0.03501399146760526 0.9266305585242455
vn -0.9271988782099748 -0.0000019999997061331564 0.37456940644180226
vn 0.9271988782099748 0.0000019999997061331564 -0.37456940644180226
vn 0.9271997145718471 -0.00000199999946700838 -0.3745673361278117
vn -0.9271997145718471 0.00000199999946700838 0.3745673361278117
vn 0.17581141985146215 0.8830012686026268 0.435200073869438
vn -0.17581141985146215 -0.8830012686026268 -0.435200073869438
vn -0.36888546857237375 0.1735350611443912 -0.9131314766394556
vn 0.36888546857237375 -0.1735350611443912 0.9131314766394556
vn -0.3634325709662822 0.2420311160918462 -0.8996319832043397
vn 0.3634325709662822 -0.2420311160918462 0.8996319832043397
vn -0.9271992217121336 -0.0000020000005036320333 0.37456855614481793
vn 0.9271992217121336 0.0000020000005036320333 -0.37456855614481793
vn -0.34731130499728025 0.3745001428601183 -0.859723502306897
vn 0.34731130499728025 -0.3745001428601183 0.859723502306897
vn -0.3366418810523693 0.4384739874707166 -0.8333143501902821
vn 0.3366418810523693 -0.4384739874707166 0.8333143501902821
vn -0.9271980418446708 9.9999997262551e-7 0.3745714767549824
vn 0.9271980418446708 -9.9999997262551e-7 -0.3745714767549824
vn -0.927199714573238 -9.9999973350569e-7 0.3745673361283736
vn 0.927199714573238 9.9999973350569e-7 -0.3745673361283736
vn -0.02608598902767945 0.9975719699438558 -0.06457310553769778
vn 0.02608598902767945 -0.9975719699438558 0.06457310553769778
vn -0.31055503582758665 0.5590992423693051 -0.7687415735500426
vn 0.31055503582758665 -0.5590992423693051 0.7687415735500426
vn -0.2951381169973909 0.6157499503619347 -0.7305788735821133
vn 0.2951381169973909 -0.6157499503619347 0.7305788735821133
vn -0.9271980418432799 0.0000019999999452480197 0.37457147675442054
vn 0.9271980418432799 -0.0000019999999452480197 -0.37457147675442054
vn -0.24073527642598272 0.7661173896028838 -0.5959116310596471
vn 0.24073527642598272 -0.7661173896028838 0.5959116310596471
vn 0.9271987288516947 -0.0000010000007701281495 -0.3745697761630021
vn -0.9271987288516947 0.0000010000007701281495 0.3745697761630021
vn -0.17581141985146215 0.8830012686026268 -0.435200073869438
vn 0.17581141985146215 -0.8830012686026268 0.435200073869438
vn -0.19852695437234627 0.847988059691338 -0.4914298515643508
vn 0.19852695437234627 -0.847988059691338 0.4914298515643508
vn 0.9271997145737016 0 -0.3745673361285609
vn -0.9271997145737016 0 0.3745673361285609
usemtl material_0_0
f 1//1 2//2 3//3
f 3//4 2//5 1//6
f 1//1 4//7 2//2
f 2//5 4//8 1//6
f 3//9 2//10 5//11
f 5//12 2//13 3//14
f 1//1 3//3 6//15
f 6//16 3//4 1//6
f 1//1 7//17 4//7
f 4//8 7//18 1//6
f 2//10 4//19 8//20
f 8//21 4//22 2//13
f 2//10 8//20 5//11
f 5//12 8//21 2//13
f 3//9 5//11 9//23
f 9//24 5//12 3//14
f 9//23 6//25 3//9
f 3//14 6//26 9//24
f 1//1 6//15 10//27
f 10//28 6//16 1//6
f 1//1 11//29 7//17
f 7//18 11//30 1//6
f 4//19 7//31 12//32
f 12//33 7//34 4//22
f 4//19 12//32 8//20
f 8//21 12//33 4//22
f 13//35 5//28 8//6
f 8//1 5//27 13//36
f 13//35 9//35 5//28
f 5//27 9//36 13//36
f 14//37 6//25 9//23
f 9//24 6//26 14//38
f 14//37 10//39 6//25
f 6//26 10//40 14//38
f 1//1 10//27 15//41
f 15//42 10//28 1//6
f 1//1 16//43 11//29
f 11//30 16//44 1//6
f 7//31 11//45 17//46
f 17//47 11//48 7//34
f 7//31 17//46 12//32
f 12//33 17//47 7//34
f 13//35 8//6 12//28
f 12//27 8//1 13//36
f 13//35 14//16 9//35
f 9//36 14//15 13//36
f 18//49 10//39 14//37
f 14//38 10//40 18//50
f 18//49 15//51 10//39
f 10//40 15//52 18//50
f 1//1 15//41 19//53
f 19//54 15//42 1//6
f 1//1 20//7 16//43
f 16//44 20//8 1//6
f 11//45 16//55 21//56
f 21//57 16//58 11//48
f 11//45 21//56 17//46
f 17//47 21//57 11//48
f 13//35 12//28 17//59
f 17//60 12//27 13//36
f 13//35 18//30 14//16
f 14//15 18//29 13//36
f 22//61 15//51 18//49
f 18//50 15//52 22//62
f 22//61 19//63 15//51
f 15//52 19//64 22//62
f 23//65 1//1 19//53
f 19//54 1//6 23//66
f 1//1 24//7 20//7
f 20//8 24//8 1//6
f 16//55 20//67 25//68
f 25//69 20//70 16//58
f 16//55 25//68 21//56
f 21//57 25//69 16//58
f 13//35 17//59 21//5
f 21//2 17//60 13//36
f 13//35 22//71 18//30
f 18//29 22//72 13//36
f 26//73 19//63 22//61
f 22//62 19//64 26//74
f 27//17 1//1 23//65
f 23//66 1//6 27//18
f 26//73 23//75 19//63
f 19//64 23//76 26//74
f 1//1 28//77 24//7
f 24//8 28//78 1//6
f 20//67 24//79 29//80
f 29//81 24//82 20//70
f 20//67 29//80 25//68
f 25//69 29//81 20//70
f 13//35 21//5 25//28
f 25//27 21//2 13//36
f 13//35 26//35 22//71
f 22//72 26//36 13//36
f 30//77 1//1 27//17
f 27//18 1//6 30//78
f 31//83 27//84 23//75
f 23//76 27//85 31//86
f 26//73 31//83 23//75
f 23//76 31//86 26//74
f 1//1 32//87 28//77
f 28//78 32//88 1//6
f 33//89 24//79 28//90
f 28//91 24//82 33//92
f 29//80 24//79 33//89
f 33//92 24//82 29//81
f 13//35 25//28 29//93
f 29//94 25//27 13//36
f 31//95 26//35 13//35
f 13//36 26//36 31//96
f 34//97 1//1 30//77
f 30//78 1//6 34//98
f 35//99 30//100 27//84
f 27//85 30//101 35//102
f 31//83 35//99 27//84
f 27//85 35//102 31//86
f 1//1 36//103 32//87
f 32//88 36//104 1//6
f 37//105 28//90 32//106
f 32//107 28//91 37//108
f 33//89 28//90 37//105
f 37//108 28//91 33//92
f 13//35 29//93 33//5
f 33//2 29//94 13//36
f 35//109 31//95 13//35
f 13//36 31//96 35//110
f 38//2 1//1 34//97
f 34//98 1//6 38//5
f 39//111 34//112 30//100
f 30//101 34//113 39//114
f 35//99 39//111 30//100
f 30//101 39//114 35//102
f 40//115 36//103 1//1
f 1//6 36//104 40//116
f 41//117 32//106 36//118
f 36//119 32//107 41//120
f 37//105 32//106 41//117
f 41//120 32//107 37//108
f 13//35 33//5 37//28
f 37//27 33//2 13//36
f 39//121 35//109 13//35
f 13//36 35//110 39//122
f 42//27 1//1 38//2
f 38//5 1//6 42//28
f 34//112 43//123 38//124
f 38//125 43//126 34//113
f 39//111 43//123 34//112
f 34//113 43//126 39//114
f 44//127 36//118 40//128
f 40//129 36//119 44//130
f 45//131 40//115 1//1
f 1//6 40//116 45//132
f 41//117 36//118 44//127
f 44//130 36//119 41//120
f 13//35 37//28 41//18
f 41//17 37//27 13//36
f 43//133 39//121 13//35
f 13//36 39//122 43//134
f 46//94 1//1 42//27
f 42//28 1//6 46//93
f 38//124 47//135 42//58
f 42//55 47//136 38//125
f 38//124 43//123 47//135
f 47//136 43//126 38//125
f 48//137 44//127 40//128
f 40//129 44//130 48//138
f 48//137 40//128 45//139
f 45//140 40//129 48//138
f 49//131 45//131 1//1
f 1//6 45//132 49//132
f 13//35 41//18 44//35
f 44//36 41//17 13//36
f 47//18 43//133 13//35
f 13//36 43//134 47//17
f 50//141 1//1 46//94
f 46//93 1//6 50//142
f 42//58 51//57 46//48
f 46//45 51//56 42//55
f 42//58 47//135 51//57
f 51//56 47//136 42//55
f 48//18 13//35 44//35
f 44//36 13//36 48//17
f 52//143 48//137 45//139
f 45//140 48//138 52//144
f 52//143 45//139 49//145
f 49//146 45//140 52//144
f 53//147 49//131 1//1
f 1//6 49//132 53//148
f 51//44 47//18 13//35
f 13//36 47//17 51//43
f 50//141 54//149 1//1
f 1//6 54//150 50//142
f 46//48 55//47 50//151
f 50//152 55//46 46//45
f 46//48 51//57 55//47
f 55//46 51//56 46//45
f 52//18 13//35 48//18
f 48//17 13//36 52//17
f 56//153 52//143 49//145
f 49//146 52//144 56//154
f 56//153 49//145 53//155
f 53//156 49//146 56//154
f 57//157 53//147 1//1
f 1//6 53//148 57//158
f 55//18 51//44 13//35
f 13//36 51//43 55//17
f 50//151 58//33 54//22
f 54//19 58//32 50//152
f 54//149 59//27 1//1
f 1//6 59//28 54//150
f 50//151 55//47 58//33
f 58//32 55//46 50//152
f 56//5 13//35 52//18
f 52//17 13//36 56//2
f 60//24 56//153 53//155
f 53//156 56//154 60//23
f 60//24 53//155 57//159
f 57//160 53//156 60//23
f 59//27 57//157 1//1
f 1//6 57//158 59//28
f 55//18 13//35 58//161
f 58//162 13//36 55//17
f 54//22 58//33 61//21
f 61//20 58//32 54//19
f 54//22 61//21 59//163
f 59//164 61//20 54//19
f 60//18 13//35 56//5
f 56//2 13//36 60//17
f 57//159 62//165 60//24
f 60//23 62//166 57//160
f 59//163 62//165 57//159
f 57//160 62//166 59//164
f 58//161 13//35 61//35
f 61//36 13//36 58//162
f 59//163 61//21 62//165
f 62//166 61//20 59//164
f 62//167 13//35 60//18
f 60//17 13//36 62//168
f 61//35 13//35 62//167
f 62//168 13//36 61//36
