# SSTK version 0.8.0
# 10
mtllib original-10.mtl
o mesh10/mesh10-geometry#mesh10-geometry
v 0.331578 -0.723900 -0.539968
v 0.342961 -0.749960 -0.573981
v 0.330108 -0.731927 -0.535573
v 0.333547 -0.717012 -0.545849
v 0.329199 -0.740742 -0.532857
v 0.393483 -0.731927 -0.514365
v 0.335926 -0.711565 -0.552960
v 0.394953 -0.723900 -0.518760
v 0.328891 -0.749960 -0.531938
v 0.392574 -0.740742 -0.511649
v 0.338613 -0.707795 -0.560989
v 0.396922 -0.717012 -0.524641
v 0.329199 -0.759178 -0.532857
v 0.392266 -0.749960 -0.510730
v 0.406336 -0.749960 -0.552774
v 0.341490 -0.705868 -0.569587
v 0.399301 -0.711565 -0.531752
v 0.330108 -0.767992 -0.535573
v 0.392574 -0.759178 -0.511649
v 0.344431 -0.705868 -0.578376
v 0.401988 -0.707795 -0.539782
v 0.331578 -0.776019 -0.539968
v 0.393483 -0.767992 -0.514365
v 0.347308 -0.707795 -0.586974
v 0.404865 -0.705868 -0.548379
v 0.333547 -0.782907 -0.545849
v 0.394953 -0.776019 -0.518760
v 0.407806 -0.705868 -0.557168
v 0.349995 -0.711565 -0.595003
v 0.335926 -0.788355 -0.552960
v 0.396922 -0.782907 -0.524641
v 0.410683 -0.707795 -0.565766
v 0.352375 -0.717012 -0.602114
v 0.338613 -0.792125 -0.560989
v 0.399301 -0.788355 -0.531752
v 0.413371 -0.711565 -0.573795
v 0.354343 -0.723900 -0.607995
v 0.341490 -0.794052 -0.569587
v 0.401988 -0.792125 -0.539782
v 0.415750 -0.717012 -0.580906
v 0.355814 -0.731927 -0.612390
v 0.344431 -0.794052 -0.578376
v 0.404865 -0.794052 -0.548379
v 0.417718 -0.723900 -0.586787
v 0.356723 -0.740742 -0.615106
v 0.347308 -0.792125 -0.586974
v 0.407806 -0.794052 -0.557168
v 0.419189 -0.731927 -0.591182
v 0.357030 -0.749960 -0.616025
v 0.349995 -0.788355 -0.595003
v 0.410683 -0.792125 -0.565766
v 0.420098 -0.740742 -0.593898
v 0.356723 -0.759177 -0.615106
v 0.352375 -0.782907 -0.602114
v 0.413371 -0.788355 -0.573795
v 0.420405 -0.749960 -0.594817
v 0.355814 -0.767992 -0.612390
v 0.354343 -0.776019 -0.607995
v 0.415750 -0.782907 -0.580906
v 0.420098 -0.759178 -0.593898
v 0.417718 -0.776019 -0.586787
v 0.419189 -0.767992 -0.591182
vn -0.7463960199428358 0.46449829310962937 0.476586106712874
vn -0.9483111878771581 0 -0.31734191489151503
vn -0.7722663118668412 0.31113499378366505 0.5538950795943448
vn 0.7722663118668412 -0.31113499378366505 -0.5538950795943448
vn 0.9483111878771581 0 0.31734191489151503
vn 0.7463960199428358 -0.46449829310962937 -0.476586106712874
vn -0.7109717823616203 0.5975597429132178 0.37073100535972153
vn 0.7109717823616203 -0.5975597429132178 -0.37073100535972153
vn -0.7874525771758379 0.14417304110818832 0.5992767081380249
vn 0.7874525771758379 -0.14417304110818832 -0.5992767081380249
vn 0.2908527365806266 0.3642789684041663 0.8847064591162185
vn -0.2908527365806266 -0.3642789684041663 -0.8847064591162185
vn -0.6675426865507105 0.7045060590276634 0.24095222436402297
vn 0.6675426865507105 -0.7045060590276634 -0.24095222436402297
vn 0.3200666416962637 0.5115631081287155 0.7974086350642082
vn -0.3200666416962637 -0.5115631081287155 -0.7974086350642082
vn -0.7912914020068613 -0.029090000112502297 0.6107468288935035
vn 0.7912914020068613 0.029090000112502297 -0.6107468288935035
vn 0.2719970707342154 0.2010800854023503 0.9410549361044708
vn -0.2719970707342154 -0.2010800854023503 -0.9410549361044708
vn -0.6180055721465367 0.7806630392153988 0.09292110631502583
vn 0.6180055721465367 -0.7806630392153988 -0.09292110631502583
vn 0.3583588390906291 0.6364880588549187 0.6829801559201514
vn -0.3583588390906291 -0.6364880588549187 -0.6829801559201514
vn -0.7836146614858583 -0.20107609121612732 0.5878064884344568
vn 0.7836146614858583 0.20107609121612732 -0.5878064884344568
vn 0.26431989039478043 0.02908700597984841 0.9639963390100708
vn -0.26431989039478043 -0.02908700597984841 -0.9639963390100708
vn 0.9483108844009923 0 0.317342821766316
vn -0.9483108844009923 0 -0.317342821766316
vn -0.5645292609105371 0.822698776547911 -0.06688375469703253
vn 0.5645292609105371 -0.822698776547911 0.06688375469703253
vn 0.4040568506882709 0.7335950979503377 0.5464213517745355
vn -0.4040568506882709 -0.7335950979503377 -0.5464213517745355
vn -0.7647575494825205 -0.3642830736413548 0.5314543562413403
vn 0.7647575494825205 0.3642830736413548 -0.5314543562413403
vn 0.2681579664636817 -0.144171045036221 0.9525261228938694
vn -0.2681579664636817 0.144171045036221 -0.9525261228938694
vn -0.5094436450384796 0.8287808368128264 -0.23149405405266657
vn 0.5094436450384796 -0.8287808368128264 0.23149405405266657
vn 0.45516440722519963 0.7986400137458564 0.3936997470653884
vn -0.45516440722519963 -0.7986400137458564 -0.3936997470653884
vn -0.7355436307428356 -0.5115670334501643 0.44415620851300264
vn 0.7355436307428356 0.5115670334501643 -0.44415620851300264
vn 0.28334393646840716 -0.31113205999596866 0.9071455533205529
vn -0.28334393646840716 0.31113205999596866 -0.9071455533205529
vn -0.4551622317455201 0.7986398426457219 -0.3937026092512651
vn 0.4551622317455201 -0.7986398426457219 0.3937026092512651
vn 0.5094448043758202 0.828780096587586 0.23149415283059246
vn -0.5094448043758202 -0.828780096587586 -0.23149415283059246
vn -0.6972525594109082 -0.6364860472031565 0.32973380189273777
vn 0.6972525594109082 0.6364860472031565 -0.32973380189273777
vn 0.30921361997833535 -0.4644969784797547 0.8298370287008598
vn -0.30921361997833535 0.4644969784797547 -0.8298370287008598
vn 0.5645283583940325 0.8226990709427587 0.06688775103754314
vn -0.5645283583940325 -0.8226990709427587 -0.06688775103754314
vn -0.4040560200258741 0.7335954047718977 -0.546421554093912
vn 0.4040560200258741 -0.7335954047718977 0.546421554093912
vn -0.6515535321730017 -0.7335961643862392 0.1931700347121243
vn 0.6515535321730017 0.7335961643862392 -0.1931700347121243
vn 0.34463836904461037 -0.5975583848167871 0.7239809191666751
vn -0.34463836904461037 0.5975583848167871 -0.7239809191666751
vn 0.6180066739624127 0.7806621682628819 -0.09292109545744609
vn -0.6180066739624127 -0.7806621682628819 0.09292109545744609
vn -0.3583589179445501 0.636490105776897 -0.6829782069566537
vn 0.3583589179445501 -0.636490105776897 0.6829782069566537
vn -0.6004479141104193 -0.7986400351250452 0.040452400867105706
vn 0.6004479141104193 0.7986400351250452 -0.040452400867105706
vn 0.388068587397156 -0.7045059215704896 0.5942004526653367
vn -0.388068587397156 0.7045059215704896 -0.5942004526653367
vn 0.6675436837278584 0.704506139420261 -0.24094922667275925
vn -0.6675436837278584 -0.704506139420261 0.24094922667275925
vn -0.32006558740438895 0.511564020804353 -0.7974084727277275
vn 0.32006558740438895 -0.511564020804353 0.7974084727277275
vn -0.5461676981096935 -0.8287802765373377 -0.12175425563097456
vn 0.5461676981096935 0.8287802765373377 0.12175425563097456
vn 0.43760490356388554 -0.7806623734163209 0.4461706031428324
vn -0.43760490356388554 0.7806623734163209 -0.4461706031428324
vn 0.7109733838396535 0.5975582707688066 -0.37073030697177484
vn -0.7109733838396535 -0.5975582707688066 0.37073030697177484
vn -0.2908528059076461 0.3642810223963459 -0.884705590587921
vn 0.2908528059076461 -0.3642810223963459 0.884705590587921
vn -0.4910829193519798 -0.8226999461341425 -0.28636055062039484
vn 0.4910829193519798 0.8226999461341425 0.28636055062039484
vn 0.491083917781221 -0.8226989880011419 0.2863615910672092
vn -0.491083917781221 0.8226989880011419 -0.2863615910672092
vn 0.746396821419303 0.4644961534613379 -0.4765869368696363
vn -0.746396821419303 -0.4644961534613379 0.4765869368696363
vn -0.27199604235853764 0.20108206417161287 -0.9410548105236889
vn 0.27199604235853764 -0.20108206417161287 0.9410548105236889
vn -0.4376045619422208 -0.7806627639823093 -0.44617025483424866
vn 0.4376045619422208 0.7806627639823093 0.44617025483424866
vn 0.5461675283635743 -0.8287800985252739 0.12175622879204845
vn -0.5461675283635743 0.8287800985252739 -0.12175622879204845
vn 0.7722671435724145 0.3111349366817177 -0.5538939520653454
vn -0.7722671435724145 -0.3111349366817177 0.5538939520653454
vn -0.26431895188246624 0.029089012709320003 -0.9639965357901198
vn 0.26431895188246624 -0.029089012709320003 0.9639965357901198
vn -0.3880666690998902 -0.7045051638397786 -0.5942026038791847
vn 0.3880666690998902 0.7045051638397786 0.5942026038791847
vn 0.6004479366552339 -0.7986401697266426 -0.04044940871597033
vn -0.6004479366552339 0.7986401697266426 0.04044940871597033
vn 0.7874536658320741 0.14417506700425467 -0.599274790243964
vn -0.7874536658320741 -0.14417506700425467 0.599274790243964
vn -0.26815700672700693 -0.14417206649899822 -0.9525262384756761
vn 0.26815700672700693 0.14417206649899822 0.9525262384756761
vn -0.34463735530995476 -0.5975603149498409 -0.7239798086424836
vn 0.34463735530995476 0.5975603149498409 0.7239798086424836
vn 0.651554477999688 -0.733595074259253 -0.19317098441824812
vn -0.651554477999688 0.733595074259253 0.19317098441824812
vn 0.7912927350270115 -0.02909001429552699 -0.6107451011361106
vn -0.7912927350270115 0.02909001429552699 0.6107451011361106
vn -0.28334384831090703 -0.31113296319256256 -0.907145271078112
vn 0.28334384831090703 0.31113296319256256 0.907145271078112
vn -0.30921389315939884 -0.4644993100818529 -0.829835621801505
vn 0.30921389315939884 0.4644993100818529 0.829835621801505
vn 0.6972532843759374 -0.6364868682507385 -0.3297306840003451
vn -0.6972532843759374 0.6364868682507385 0.3297306840003451
vn 0.7836154873470171 -0.20107906007611917 -0.5878043718694185
vn -0.7836154873470171 0.20107906007611917 0.5878043718694185
vn 0.7355445361327835 -0.5115649496543455 -0.4441571091971347
vn -0.7355445361327835 0.5115649496543455 0.4441571091971347
vn 0.7647583705504349 -0.36428300106161027 -0.5314532244803776
vn -0.7647583705504349 0.36428300106161027 0.5314532244803776
usemtl material_0_0
f 1//1 2//2 3//3
f 3//4 2//5 1//6
f 4//7 2//2 1//1
f 1//6 2//5 4//8
f 3//3 2//2 5//9
f 5//10 2//5 3//4
f 6//11 1//1 3//3
f 3//4 1//6 6//12
f 7//13 2//2 4//7
f 4//8 2//5 7//14
f 8//15 4//7 1//1
f 1//6 4//8 8//16
f 5//9 2//2 9//17
f 9//18 2//5 5//10
f 10//19 3//3 5//9
f 5//10 3//4 10//20
f 8//15 1//1 6//11
f 6//12 1//6 8//16
f 6//11 3//3 10//19
f 10//20 3//4 6//12
f 11//21 2//2 7//13
f 7//14 2//5 11//22
f 12//23 7//13 4//7
f 4//8 7//14 12//24
f 12//23 4//7 8//15
f 8//16 4//8 12//24
f 2//2 13//25 9//17
f 9//18 13//26 2//5
f 14//27 5//9 9//17
f 9//18 5//10 14//28
f 10//19 5//9 14//27
f 14//28 5//10 10//20
f 8//15 6//11 15//29
f 15//30 6//12 8//16
f 6//11 10//19 15//29
f 15//30 10//20 6//12
f 16//31 2//2 11//21
f 11//22 2//5 16//32
f 17//33 11//21 7//13
f 7//14 11//22 17//34
f 12//23 17//33 7//13
f 7//14 17//34 12//24
f 12//23 8//15 15//29
f 15//30 8//16 12//24
f 2//2 18//35 13//25
f 13//26 18//36 2//5
f 19//37 9//17 13//25
f 13//26 9//18 19//38
f 19//37 14//27 9//17
f 9//18 14//28 19//38
f 10//19 14//27 15//29
f 15//30 14//28 10//20
f 20//39 2//2 16//31
f 16//32 2//5 20//40
f 21//41 16//31 11//21
f 11//22 16//32 21//42
f 17//33 21//41 11//21
f 11//22 21//42 17//34
f 17//33 12//23 15//29
f 15//30 12//24 17//34
f 2//2 22//43 18//35
f 18//36 22//44 2//5
f 23//45 13//25 18//35
f 18//36 13//26 23//46
f 23//45 19//37 13//25
f 13//26 19//38 23//46
f 15//29 14//27 19//37
f 19//38 14//28 15//30
f 20//39 24//47 2//2
f 2//5 24//48 20//40
f 25//49 20//39 16//31
f 16//32 20//40 25//50
f 21//41 25//49 16//31
f 16//32 25//50 21//42
f 21//41 17//33 15//29
f 15//30 17//34 21//42
f 2//2 26//51 22//43
f 22//44 26//52 2//5
f 27//53 18//35 22//43
f 22//44 18//36 27//54
f 27//53 23//45 18//35
f 18//36 23//46 27//54
f 15//29 19//37 23//45
f 23//46 19//38 15//30
f 28//55 24//47 20//39
f 20//40 24//48 28//56
f 24//47 29//57 2//2
f 2//5 29//58 24//48
f 25//49 28//55 20//39
f 20//40 28//56 25//50
f 25//49 21//41 15//29
f 15//30 21//42 25//50
f 2//2 30//59 26//51
f 26//52 30//60 2//5
f 31//61 22//43 26//51
f 26//52 22//44 31//62
f 31//61 27//53 22//43
f 22//44 27//54 31//62
f 15//29 23//45 27//53
f 27//54 23//46 15//30
f 28//55 32//63 24//47
f 24//48 32//64 28//56
f 32//63 29//57 24//47
f 24//48 29//58 32//64
f 29//57 33//65 2//2
f 2//5 33//66 29//58
f 25//49 15//29 28//55
f 28//56 15//30 25//50
f 2//2 34//67 30//59
f 30//60 34//68 2//5
f 35//69 26//51 30//59
f 30//60 26//52 35//70
f 31//61 26//51 35//69
f 35//70 26//52 31//62
f 15//29 27//53 31//61
f 31//62 27//54 15//30
f 28//55 15//29 32//63
f 32//64 15//30 28//56
f 32//63 36//71 29//57
f 29//58 36//72 32//64
f 36//71 33//65 29//57
f 29//58 33//66 36//72
f 33//65 37//73 2//2
f 2//5 37//74 33//66
f 2//2 38//75 34//67
f 34//68 38//76 2//5
f 39//77 30//59 34//67
f 34//68 30//60 39//78
f 35//69 30//59 39//77
f 39//78 30//60 35//70
f 15//29 31//61 35//69
f 35//70 31//62 15//30
f 32//63 15//29 36//71
f 36//72 15//30 32//64
f 36//71 40//79 33//65
f 33//66 40//80 36//72
f 40//79 37//73 33//65
f 33//66 37//74 40//80
f 37//73 41//81 2//2
f 2//5 41//82 37//74
f 2//2 42//83 38//75
f 38//76 42//84 2//5
f 43//85 34//67 38//75
f 38//76 34//68 43//86
f 39//77 34//67 43//85
f 43//86 34//68 39//78
f 15//29 35//69 39//77
f 39//78 35//70 15//30
f 36//71 15//29 40//79
f 40//80 15//30 36//72
f 44//87 37//73 40//79
f 40//80 37//74 44//88
f 44//87 41//81 37//73
f 37//74 41//82 44//88
f 41//81 45//89 2//2
f 2//5 45//90 41//82
f 2//2 46//91 42//83
f 42//84 46//92 2//5
f 47//93 38//75 42//83
f 42//84 38//76 47//94
f 43//85 38//75 47//93
f 47//94 38//76 43//86
f 15//29 39//77 43//85
f 43//86 39//78 15//30
f 40//79 15//29 44//87
f 44//88 15//30 40//80
f 48//95 41//81 44//87
f 44//88 41//82 48//96
f 48//95 45//89 41//81
f 41//82 45//90 48//96
f 45//89 49//97 2//2
f 2//5 49//98 45//90
f 2//2 50//99 46//91
f 46//92 50//100 2//5
f 51//101 42//83 46//91
f 46//92 42//84 51//102
f 47//93 42//83 51//101
f 51//102 42//84 47//94
f 15//29 43//85 47//93
f 47//94 43//86 15//30
f 44//87 15//29 48//95
f 48//96 15//30 44//88
f 52//103 45//89 48//95
f 48//96 45//90 52//104
f 52//103 49//97 45//89
f 45//90 49//98 52//104
f 49//97 53//105 2//2
f 2//5 53//106 49//98
f 2//2 54//107 50//99
f 50//100 54//108 2//5
f 55//109 46//91 50//99
f 50//100 46//92 55//110
f 51//101 46//91 55//109
f 55//110 46//92 51//102
f 15//29 47//93 51//101
f 51//102 47//94 15//30
f 48//95 15//29 52//103
f 52//104 15//30 48//96
f 56//111 49//97 52//103
f 52//104 49//98 56//112
f 56//111 53//105 49//97
f 49//98 53//106 56//112
f 2//2 53//105 57//113
f 57//114 53//106 2//5
f 2//2 58//115 54//107
f 54//108 58//116 2//5
f 59//117 50//99 54//107
f 54//108 50//100 59//118
f 55//109 50//99 59//117
f 59//118 50//100 55//110
f 15//29 51//101 55//109
f 55//110 51//102 15//30
f 52//103 15//29 56//111
f 56//112 15//30 52//104
f 56//111 60//119 53//105
f 53//106 60//120 56//112
f 60//119 57//113 53//105
f 53//106 57//114 60//120
f 2//2 57//113 58//115
f 58//116 57//114 2//5
f 61//121 54//107 58//115
f 58//116 54//108 61//122
f 61//121 59//117 54//107
f 54//108 59//118 61//122
f 15//29 55//109 59//117
f 59//118 55//110 15//30
f 15//29 60//119 56//111
f 56//112 60//120 15//30
f 60//119 62//123 57//113
f 57//114 62//124 60//120
f 62//123 58//115 57//113
f 57//114 58//116 62//124
f 62//123 61//121 58//115
f 58//116 61//122 62//124
f 15//29 59//117 61//121
f 61//122 59//118 15//30
f 15//29 62//123 60//119
f 60//120 62//124 15//30
f 15//29 61//121 62//123
f 62//124 61//122 15//30
