# SSTK version 0.8.0
# 31
mtllib original-31.mtl
o mesh31/mesh31-geometry#mesh31-geometry
v -0.316186 -0.129496 -0.538226
v -0.331012 -0.129496 -0.539004
v -0.330676 -0.127029 -0.545414
v -0.317212 -0.129563 -0.518657
v -0.331555 -0.055279 -0.528649
v -0.315849 -0.127029 -0.544637
v -0.332039 -0.129563 -0.519435
v -0.316729 -0.055279 -0.527872
v -0.330342 -0.122109 -0.551790
v -0.317472 -0.126563 -0.513706
v -0.329328 -0.097876 -0.571119
v -0.332298 -0.126563 -0.514484
v -0.315515 -0.122109 -0.551013
v -0.317730 -0.114360 -0.508787
v -0.327972 -0.057692 -0.596972
v -0.315093 -0.113234 -0.559069
v -0.332556 -0.114360 -0.509564
v -0.317632 -0.122330 -0.510651
v -0.313145 -0.057692 -0.596194
v -0.332458 -0.122330 -0.511429
v -0.317718 -0.117806 -0.509015
v -0.332544 -0.117806 -0.509792
vn 0.570170219673441 -0.8032469720092197 -0.17233752509410105
vn -0.5542262513880428 -0.8218919093247631 -0.13163187934103684
vn -0.5381091046935579 -0.7422491922292018 -0.3993804302679276
vn 0.5381091046935579 0.7422491922292018 0.3993804302679276
vn 0.5542262513880428 0.8218919093247631 0.13163187934103684
vn -0.570170219673441 0.8032469720092197 0.17233752509410105
vn 0.5592428644073304 -0.8104263145242949 0.17451821491194738
vn -0.5592428644073304 0.8104263145242949 -0.17451821491194738
vn -0.9210660093854223 0.33980002715678614 0.19019292284167877
vn 0.9210660093854223 -0.33980002715678614 -0.19019292284167877
vn 0.5806179176112058 -0.7027914767341846 -0.41105592560941256
vn -0.5806179176112058 0.7027914767341846 0.41105592560941256
vn -0.5821779932699177 -0.7694329950807169 0.26275777863524613
vn 0.5821779932699177 0.7694329950807169 -0.26275777863524613
vn 0.9669486992747767 0.18206308176473227 0.17850279333709573
vn -0.9669486992747767 -0.18206308176473227 -0.17850279333709573
vn -0.42580263708167176 -0.64373285365848 -0.6358459934410249
vn 0.42580263708167176 0.64373285365848 0.6358459934410249
vn 0.6894440789692355 -0.5461952781670404 0.47574949299215435
vn -0.6894440789692355 0.5461952781670404 -0.47574949299215435
vn -0.5180765064948655 -0.4781001969096063 -0.7092368681428449
vn 0.5180765064948655 0.4781001969096063 0.7092368681428449
vn -0.7390798487673716 -0.4820169785311479 0.47055351401695183
vn 0.7390798487673716 0.4820169785311479 -0.47055351401695183
vn 0.732566986410595 -0.51886585368611 -0.4405948664020987
vn -0.732566986410595 0.51886585368611 0.4405948664020987
vn 0.5647866143801404 0.09779201864511963 0.8194222362776904
vn -0.5647866143801404 -0.09779201864511963 -0.8194222362776904
vn -0.6776497616772873 0.3256011681985343 -0.6593744609601326
vn 0.6776497616772873 -0.3256011681985343 0.6593744609601326
vn 0.5901284246358971 -0.5140450013151295 -0.6224999430198231
vn -0.5901284246358971 0.5140450013151295 0.6224999430198231
vn -0.8639521642400358 0.06740203567891198 0.499042707081565
vn 0.8639521642400358 -0.06740203567891198 -0.499042707081565
vn 0.5198128961828241 -0.42187211404494546 0.7428448507954224
vn -0.5198128961828241 0.42187211404494546 -0.7428448507954224
vn 0.5146128004242061 0.4049421089259648 -0.7557748037994838
vn -0.5146128004242061 -0.4049421089259648 0.7557748037994838
vn -0.5965656479728509 -0.3535071570993825 0.7205151750922703
vn 0.5965656479728509 0.3535071570993825 -0.7205151750922703
vn 0.2702587249664724 -0.23824211782271063 0.9328456007694126
vn -0.2702587249664724 0.23824211782271063 -0.9328456007694126
vn -0.36732510497923176 -0.15071603427036565 0.9178000568020304
vn 0.36732510497923176 0.15071603427036565 -0.9178000568020304
usemtl material_0_0
f 1//1 2//2 3//3
f 3//4 2//5 1//6
f 4//7 2//2 1//1
f 1//6 2//5 4//8
f 5//9 3//3 2//2
f 2//5 3//4 5//10
f 1//1 3//3 6//11
f 6//12 3//4 1//6
f 4//7 7//13 2//2
f 2//5 7//14 4//8
f 8//15 4//7 1//1
f 1//6 4//8 8//16
f 5//9 9//17 3//3
f 3//4 9//18 5//10
f 5//9 2//2 7//13
f 7//14 2//5 5//10
f 6//11 3//3 9//17
f 9//18 3//4 6//12
f 8//15 1//1 6//11
f 6//12 1//6 8//16
f 10//19 7//13 4//7
f 4//8 7//14 10//20
f 8//15 10//19 4//7
f 4//8 10//20 8//16
f 5//9 11//21 9//17
f 9//18 11//22 5//10
f 5//9 7//13 12//23
f 12//24 7//14 5//10
f 6//11 9//17 13//25
f 13//26 9//18 6//12
f 8//15 6//11 13//25
f 13//26 6//12 8//16
f 10//19 12//23 7//13
f 7//14 12//24 10//20
f 8//15 14//27 10//19
f 10//20 14//28 8//16
f 5//9 15//29 11//21
f 11//22 15//30 5//10
f 16//31 9//17 11//21
f 11//22 9//18 16//32
f 5//9 12//23 17//33
f 17//34 12//24 5//10
f 16//31 13//25 9//17
f 9//18 13//26 16//32
f 8//15 13//25 16//31
f 16//32 13//26 8//16
f 10//19 18//35 12//23
f 12//24 18//36 10//20
f 8//15 5//9 14//27
f 14//28 5//10 8//16
f 14//27 18//35 10//19
f 10//20 18//36 14//28
f 5//9 19//37 15//29
f 15//30 19//38 5//10
f 19//37 11//21 15//29
f 15//30 11//22 19//38
f 19//37 16//31 11//21
f 11//22 16//32 19//38
f 17//33 12//23 20//39
f 20//40 12//24 17//34
f 14//27 5//9 17//33
f 17//34 5//10 14//28
f 8//15 16//31 19//37
f 19//38 16//32 8//16
f 18//35 20//39 12//23
f 12//24 20//40 18//36
f 8//15 19//37 5//9
f 5//10 19//38 8//16
f 14//27 21//41 18//35
f 18//36 21//42 14//28
f 17//33 20//39 22//43
f 22//44 20//40 17//34
f 14//27 17//33 22//43
f 22//44 17//34 14//28
f 18//35 21//41 20//39
f 20//40 21//42 18//36
f 21//41 14//27 22//43
f 22//44 14//28 21//42
f 21//41 22//43 20//39
f 20//40 22//44 21//42
