# SSTK version 0.8.0
# 30
mtllib original-30.mtl
o mesh30/mesh30-geometry#mesh30-geometry
v 0.002352 -0.108137 -0.538300
v -0.018903 -0.108137 -0.539415
v 0.002195 -0.096941 -0.535304
v -0.019060 -0.119334 -0.536419
v -0.019060 -0.096941 -0.536419
v 0.002195 -0.119334 -0.535304
v 0.001766 -0.088744 -0.527119
v -0.019489 -0.127530 -0.528234
v -0.019489 -0.088744 -0.528234
v 0.001766 -0.127530 -0.527119
v 0.001179 -0.085744 -0.515938
v -0.020076 -0.130530 -0.517053
v -0.020076 -0.085744 -0.517053
v 0.001179 -0.130530 -0.515938
v 0.000593 -0.088744 -0.504757
v -0.020662 -0.127530 -0.505872
v -0.020662 -0.088744 -0.505872
v 0.000593 -0.127530 -0.504757
v 0.000164 -0.096941 -0.496572
v -0.021092 -0.119334 -0.497687
v -0.021092 -0.096941 -0.497687
v 0.000164 -0.119334 -0.496572
v 0.000007 -0.108137 -0.493576
v -0.021249 -0.108137 -0.494691
vn 0.05216606711014528 -0.08896001074770071 -0.9946681948921604
vn 0.052166048546960046 0.08896397909052793 -0.9946678409415759
vn 0.04750827430444078 0.4209719924017029 -0.9058286512834283
vn -0.04750827430444078 -0.4209719924017029 0.9058286512834283
vn -0.052166048546960046 -0.08896397909052793 0.9946678409415759
vn -0.05216606711014528 0.08896001074770071 0.9946681948921604
vn 0.04750825116582557 -0.42097401968761006 -0.9058277103396764
vn -0.04750825116582557 0.42097401968761006 0.9058277103396764
vn 0.0428494807128393 0.5750588772400638 -0.816989112357097
vn -0.0428494807128393 -0.5750588772400638 0.816989112357097
vn 0.042849433266729714 -0.5750622960625773 -0.8169867084083784
vn -0.042849433266729714 0.5750622960625773 0.8169867084083784
vn 0.030118552017356436 0.8181107192793606 -0.5742714722364199
vn -0.030118552017356436 -0.8181107192793606 0.5742714722364199
vn 0.030118585561494944 -0.8181099182817033 -0.5742726115817117
vn -0.030118585561494944 0.8181099182817033 0.5742726115817117
vn 0.022046420979617377 0.9070740343053617 -0.42039344858237854
vn -0.022046420979617377 -0.9070740343053617 0.42039344858237854
vn 0.022047582026952145 -0.9070712023137228 -0.4203994981679951
vn -0.022047582026952145 0.9070712023137228 0.4203994981679951
vn 0.004658785625416681 0.9960350691751795 -0.08883938704027568
vn -0.004658785625416681 -0.9960350691751795 0.08883938704027568
vn 0.004658811429024279 -0.9960349805963138 -0.08884037879573374
vn -0.004658811429024279 0.9960349805963138 0.08884037879573374
vn -0.004658785625416681 0.9960350691751795 0.08883938704027568
vn 0.004658785625416681 -0.9960350691751795 -0.08883938704027568
vn -0.004659862681259142 -0.9960348011164 0.08884233588107142
vn 0.004659862681259142 0.9960348011164 -0.08884233588107142
vn -0.022046420979617377 0.9070740343053617 0.42039344858237854
vn 0.022046420979617377 -0.9070740343053617 -0.42039344858237854
vn -0.022049526975596617 -0.9070721229943065 0.4203974096575217
vn 0.022049526975596617 0.9070721229943065 -0.4203974096575217
vn -0.030118552017356436 0.8181107192793606 0.5742714722364199
vn 0.030118552017356436 -0.8181107192793606 -0.5742714722364199
vn -0.03012054151932773 -0.8181111649512299 0.5742707329829059
vn 0.03012054151932773 0.8181111649512299 -0.5742707329829059
vn -0.0428494807128393 0.5750588772400638 0.816989112357097
vn 0.0428494807128393 -0.5750588772400638 -0.816989112357097
vn -0.0428513656448714 -0.5750647496406049 0.8169848800211409
vn 0.0428513656448714 0.5750647496406049 -0.8169848800211409
vn -0.04750827430444078 0.4209719924017029 0.9058286512834283
vn 0.04750827430444078 -0.4209719924017029 -0.9058286512834283
vn -0.04750825116582557 -0.42097401968761006 0.9058277103396764
vn 0.04750825116582557 0.42097401968761006 -0.9058277103396764
vn -0.052166048546960046 0.08896397909052793 0.9946678409415759
vn 0.052166048546960046 -0.08896397909052793 -0.9946678409415759
vn -0.05216606711014528 -0.08896001074770071 0.9946681948921604
vn 0.05216606711014528 0.08896001074770071 -0.9946681948921604
usemtl material_0_0
f 1//1 2//2 3//3
f 3//4 2//5 1//6
f 1//1 4//7 2//2
f 2//5 4//8 1//6
f 3//3 2//2 5//9
f 5//10 2//5 3//4
f 1//1 6//11 4//7
f 4//8 6//12 1//6
f 7//13 3//3 5//9
f 5//10 3//4 7//14
f 8//15 4//7 6//11
f 6//12 4//8 8//16
f 7//13 5//9 9//17
f 9//18 5//10 7//14
f 10//19 8//15 6//11
f 6//12 8//16 10//20
f 11//21 7//13 9//17
f 9//18 7//14 11//22
f 12//23 8//15 10//19
f 10//20 8//16 12//24
f 11//21 9//17 13//25
f 13//26 9//18 11//22
f 14//27 12//23 10//19
f 10//20 12//24 14//28
f 15//29 11//21 13//25
f 13//26 11//22 15//30
f 16//31 12//23 14//27
f 14//28 12//24 16//32
f 15//29 13//25 17//33
f 17//34 13//26 15//30
f 18//35 16//31 14//27
f 14//28 16//32 18//36
f 19//37 15//29 17//33
f 17//34 15//30 19//38
f 20//39 16//31 18//35
f 18//36 16//32 20//40
f 19//37 17//33 21//41
f 21//42 17//34 19//38
f 22//43 20//39 18//35
f 18//36 20//40 22//44
f 19//37 21//41 23//45
f 23//46 21//42 19//38
f 22//43 24//47 20//39
f 20//40 24//48 22//44
f 23//45 21//41 24//47
f 24//48 21//42 23//46
f 22//43 23//45 24//47
f 24//48 23//46 22//44
