# SSTK version 0.8.0
# 12
mtllib original-12.mtl
o mesh12/mesh12-geometry#mesh12-geometry
v -0.150057 -0.714515 -0.934117
v -0.152193 -0.698153 -0.935878
v -0.150057 -0.698153 -0.934117
v -0.152193 -0.714515 -0.935878
v -0.148334 -0.714515 -0.931951
v -0.154648 -0.698153 -0.937156
v -0.148334 -0.698153 -0.931951
v -0.154648 -0.714515 -0.937156
v -0.147099 -0.714515 -0.929474
v -0.157315 -0.698153 -0.937896
v -0.147099 -0.698153 -0.929474
v -0.157315 -0.714515 -0.937896
v -0.146406 -0.714515 -0.926795
v -0.160077 -0.698153 -0.938065
v -0.146406 -0.698153 -0.926795
v -0.160077 -0.715443 -0.938065
v -0.146286 -0.715443 -0.924029
v -0.162815 -0.698153 -0.937656
v -0.146286 -0.698153 -0.924029
v -0.162815 -0.716559 -0.937656
v -0.146743 -0.716559 -0.921300
v -0.165407 -0.698153 -0.936687
v -0.146743 -0.698153 -0.921300
v -0.165407 -0.718054 -0.936687
v -0.147757 -0.718054 -0.918724
v -0.167742 -0.698153 -0.935200
v -0.147757 -0.698153 -0.918724
v -0.167742 -0.721245 -0.935200
v -0.149285 -0.721245 -0.916416
v -0.169716 -0.698153 -0.933260
v -0.149285 -0.698153 -0.916416
v -0.169716 -0.723873 -0.933260
v -0.151259 -0.723873 -0.914476
v -0.171244 -0.698153 -0.930952
v -0.151259 -0.698153 -0.914477
v -0.171244 -0.728106 -0.930952
v -0.153594 -0.728106 -0.912989
v -0.172258 -0.698153 -0.928377
v -0.153594 -0.698153 -0.912989
v -0.172258 -0.733000 -0.928377
v -0.156186 -0.733000 -0.912020
v -0.172715 -0.698153 -0.925647
v -0.156186 -0.698153 -0.912020
v -0.172715 -0.733637 -0.925647
v -0.158924 -0.733637 -0.911611
v -0.172595 -0.698153 -0.922882
v -0.158923 -0.698153 -0.911611
v -0.172595 -0.735224 -0.922882
v -0.161686 -0.735224 -0.911780
v -0.171902 -0.698153 -0.920202
v -0.161686 -0.698153 -0.911780
v -0.171902 -0.736101 -0.920202
v -0.164353 -0.736101 -0.912520
v -0.170667 -0.698153 -0.917725
v -0.164353 -0.698153 -0.912520
v -0.170667 -0.737160 -0.917725
v -0.166808 -0.737160 -0.913798
v -0.168944 -0.698153 -0.915559
v -0.166808 -0.698153 -0.913798
v -0.168944 -0.737160 -0.915559
vn 0.6883058247869996 0 -0.7254206307820918
vn 0.5808335097795757 0 -0.814022379248347
vn 0.7373817339164257 0 -0.6754762604906303
vn -0.7373817339164257 0 0.6754762604906303
vn -0.5808335097795757 0 0.814022379248347
vn -0.6883058247869996 0 0.7254206307820918
vn 0.5224358567784413 0 -0.8526785886558754
vn -0.5224358567784413 0 0.8526785886558754
vn 0.824082225882293 0 -0.5664701977905682
vn -0.824082225882293 0 0.5664701977905682
vn 0.398887764837875 0 -0.916999755214059
vn -0.398887764837875 0 0.916999755214059
vn 0.8617056709802015 0 -0.5074084514477076
vn -0.8617056709802015 0 0.5074084514477076
vn 0.33373834420042436 0 -0.9426657507358369
vn -0.33373834420042436 0 0.9426657507358369
vn 0.9238506472199376 0 -0.3827531601846053
vn -0.9238506472199376 0 0.3827531601846053
vn 0.1995303291103896 0 -0.9798916510334698
vn -0.1995303291103896 0 0.9798916510334698
vn 0.9483721661841141 0 -0.31715963552641896
vn -0.9483721661841141 0 0.31715963552641896
vn 0.13046465095505722 -9.999998173356074e-7 -0.9914529614914543
vn -0.13046465095505722 9.999998173356074e-7 0.9914529614914543
vn 0.9832419961169634 0 -0.1823051756586457
vn -0.9832419961169634 0 0.1823051756586457
vn -0.008567980043954248 -0.000003000000238018454 -0.9999632941808245
vn 0.008567980043954248 0.000003000000238018454 0.9999632941808245
vn 0.9935898772790663 0 -0.11304492809750376
vn -0.9935898772790663 0 0.11304492809750376
vn -0.07853402037867048 -0.0000029999997080881345 -0.9969114341977238
vn 0.07853402037867048 0.0000029999997080881345 0.9969114341977238
vn 0.9996591029414624 0 0.026108962182946734
vn -0.9996591029414624 0 -0.026108962182946734
vn -0.2162909417178394 -9.99999788655633e-7 -0.9763289550811294
vn 0.2162909417178394 9.99999788655633e-7 0.9763289550811294
vn 0.9953814450996268 0 0.09599884765651422
vn -0.9953814450996268 0 -0.09599884765651422
vn -0.28408505399045225 0 -0.9587990832803511
vn 0.28408505399045225 0 0.9587990832803511
vn 0.9723884550227008 0 0.23336814808059209
vn -0.9723884550227008 0 -0.23336814808059209
vn -0.41455368549207966 0 -0.9100248578170456
vn 0.41455368549207966 0 0.9100248578170456
vn 0.9536709539245158 9.999999859250049e-7 0.3008516439039411
vn -0.9536709539245158 -9.999999859250049e-7 -0.3008516439039411
vn -0.47722210568130324 0 -0.8787827159480911
vn 0.47722210568130324 0 0.8787827159480911
vn 0.9026136621190357 0.0000020000001749909687 0.4304515965263264
vn -0.9026136621190357 -0.0000020000001749909687 -0.4304515965263264
vn -0.594694366924673 0 -0.8039518704176651
vn 0.594694366924673 0 0.8039518704176651
vn 0.8702754733611421 0.0000020000011228925957 0.4925653260858302
vn -0.8702754733611421 -0.0000020000011228925957 -0.4925653260858302
vn -0.6495042219170217 -0.000001000000102477984 -0.7603579852352208
vn 0.6495042219170217 0.000001000000102477984 0.7603579852352208
vn 0.7933977947817362 0.0000010000001654654895 0.6087034904076679
vn -0.7933977947817362 -0.0000010000001654654895 -0.6087034904076679
vn -0.7488566451231877 -9.99999744485178e-7 -0.6627320160169148
vn 0.7488566451231877 9.99999744485178e-7 0.6627320160169148
vn 0.7488571527590324 0.0000010000003873556045 0.6627314424113552
vn -0.7488571527590324 -0.0000010000003873556045 -0.6627314424113552
vn -0.7933986450038253 -9.999999440735222e-7 -0.608702382207507
vn 0.7933986450038253 9.999999440735222e-7 0.608702382207507
vn 0.6495020742321447 9.999999547700173e-7 0.760359819800561
vn -0.6495020742321447 -9.999999547700173e-7 -0.760359819800561
vn -0.8702779067713632 0 -0.4925610266613208
vn 0.8702779067713632 0 0.4925610266613208
vn 0.5946954953922363 0.0000010000001517929873 0.8039510356726848
vn -0.5946954953922363 -0.0000010000001517929873 -0.8039510356726848
vn -0.9026155852109198 9.999998868650546e-7 -0.43044756397655304
vn 0.9026155852109198 -9.999998868650546e-7 0.43044756397655304
vn 0.4772228666788523 9.999994967375372e-7 0.8787823026881108
vn -0.4772228666788523 -9.999994967375372e-7 -0.8787823026881108
vn -0.9536700033983131 0 -0.30085465696621944
vn 0.9536700033983131 0 0.30085465696621944
vn 0.4145593909730276 0 0.9100222587146274
vn -0.4145593909730276 0 -0.9100222587146274
vn -0.9723863035280415 0 -0.23337711265475813
vn 0.9723863035280415 0 0.23337711265475813
vn 0.28408596582882706 0 0.9587988131089351
vn -0.28408596582882706 0 -0.9587988131089351
vn -0.9953808704964786 0 -0.09600480534677755
vn 0.9953808704964786 0 0.09600480534677755
vn 0.21628502149882317 0 0.9763302665979651
vn -0.21628502149882317 0 -0.9763302665979651
vn -0.9996592073693126 0 -0.026104963546375377
vn 0.9996592073693126 0 0.026104963546375377
vn 0.0785249931145417 0 0.9969121453048715
vn -0.0785249931145417 0 -0.9969121453048715
vn -0.9935895257147296 0 0.11304801807187399
vn 0.9935895257147296 0 -0.11304801807187399
vn 0.008568979402116707 0 0.9999632856220302
vn -0.008568979402116707 0 -0.9999632856220302
vn -0.13044669529253977 0 0.991455324100514
vn 0.13044669529253977 0 -0.991455324100514
vn -0.9483734667965391 -0.0000010000004742456893 0.3171557464012177
vn 0.9483734667965391 0.0000010000004742456893 -0.3171557464012177
vn -0.19950535308247466 0 0.9798967364428953
vn 0.19950535308247466 0 -0.9798967364428953
vn -0.9238523572280909 -0.0000010000000451574893 0.3827490327134742
vn 0.9238523572280909 0.0000010000000451574893 -0.3827490327134742
vn -0.33372940154239117 0 0.9426689167179308
vn 0.33372940154239117 0 -0.9426689167179308
vn -0.8617104578249939 0 0.5074003221077411
vn 0.8617104578249939 0 -0.5074003221077411
vn -0.39889474697410826 0 0.9169967180074651
vn 0.39889474697410826 0 -0.9169967180074651
vn -0.8240886811495493 0 0.5664608067653017
vn 0.8240886811495493 0 -0.5664608067653017
vn -0.5224438959495087 0 0.8526736630066036
vn 0.5224438959495087 0 -0.8526736630066036
vn -0.7373807787958001 0 0.6754773031438578
vn 0.7373807787958001 0 -0.6754773031438578
vn -0.580826509775287 0 0.8140273739514283
vn 0.580826509775287 0 -0.8140273739514283
vn -0.6882955798437498 0 0.7254303514242811
vn 0.6882955798437498 0 -0.7254303514242811
usemtl material_0_0
f 1//1 2//2 3//3
f 3//4 2//5 1//6
f 1//1 4//7 2//2
f 2//5 4//8 1//6
f 3//3 5//9 1//1
f 1//6 5//10 3//4
f 4//7 6//11 2//2
f 2//5 6//12 4//8
f 7//13 5//9 3//3
f 3//4 5//10 7//14
f 4//7 8//15 6//11
f 6//12 8//16 4//8
f 7//13 9//17 5//9
f 5//10 9//18 7//14
f 8//15 10//19 6//11
f 6//12 10//20 8//16
f 11//21 9//17 7//13
f 7//14 9//18 11//22
f 8//15 12//23 10//19
f 10//20 12//24 8//16
f 11//21 13//25 9//17
f 9//18 13//26 11//22
f 12//23 14//27 10//19
f 10//20 14//28 12//24
f 15//29 13//25 11//21
f 11//22 13//26 15//30
f 12//23 16//31 14//27
f 14//28 16//32 12//24
f 15//29 17//33 13//25
f 13//26 17//34 15//30
f 14//27 16//31 18//35
f 18//36 16//32 14//28
f 19//37 17//33 15//29
f 15//30 17//34 19//38
f 16//31 20//39 18//35
f 18//36 20//40 16//32
f 19//37 21//41 17//33
f 17//34 21//42 19//38
f 18//35 20//39 22//43
f 22//44 20//40 18//36
f 23//45 21//41 19//37
f 19//38 21//42 23//46
f 20//39 24//47 22//43
f 22//44 24//48 20//40
f 23//45 25//49 21//41
f 21//42 25//50 23//46
f 24//47 26//51 22//43
f 22//44 26//52 24//48
f 27//53 25//49 23//45
f 23//46 25//50 27//54
f 24//47 28//55 26//51
f 26//52 28//56 24//48
f 27//53 29//57 25//49
f 25//50 29//58 27//54
f 26//51 28//55 30//59
f 30//60 28//56 26//52
f 31//61 29//57 27//53
f 27//54 29//58 31//62
f 30//59 28//55 32//63
f 32//64 28//56 30//60
f 31//61 33//65 29//57
f 29//58 33//66 31//62
f 30//59 32//63 34//67
f 34//68 32//64 30//60
f 35//69 33//65 31//61
f 31//62 33//66 35//70
f 34//67 32//63 36//71
f 36//72 32//64 34//68
f 35//69 37//73 33//65
f 33//66 37//74 35//70
f 34//67 36//71 38//75
f 38//76 36//72 34//68
f 35//69 39//77 37//73
f 37//74 39//78 35//70
f 38//75 36//71 40//79
f 40//80 36//72 38//76
f 39//77 41//81 37//73
f 37//74 41//82 39//78
f 38//75 40//79 42//83
f 42//84 40//80 38//76
f 39//77 43//85 41//81
f 41//82 43//86 39//78
f 42//83 40//79 44//87
f 44//88 40//80 42//84
f 43//85 45//89 41//81
f 41//82 45//90 43//86
f 46//91 42//83 44//87
f 44//88 42//84 46//92
f 43//85 47//93 45//89
f 45//90 47//94 43//86
f 46//91 44//87 48//26
f 48//25 44//88 46//92
f 47//93 49//95 45//89
f 45//90 49//96 47//94
f 46//91 48//26 50//97
f 50//98 48//25 46//92
f 47//93 51//99 49//95
f 49//96 51//100 47//94
f 50//97 48//26 52//101
f 52//102 48//25 50//98
f 51//99 53//103 49//95
f 49//96 53//104 51//100
f 50//97 52//101 54//105
f 54//106 52//102 50//98
f 51//99 55//107 53//103
f 53//104 55//108 51//100
f 54//105 52//101 56//109
f 56//110 52//102 54//106
f 55//107 57//111 53//103
f 53//104 57//112 55//108
f 54//105 56//109 58//113
f 58//114 56//110 54//106
f 55//107 59//115 57//111
f 57//112 59//116 55//108
f 58//113 56//109 60//117
f 60//118 56//110 58//114
f 59//115 60//117 57//111
f 57//112 60//118 59//116
f 59//115 58//113 60//117
f 60//118 58//114 59//116
