# SSTK version 0.8.0
# 22
mtllib original-22.mtl
o mesh22/mesh22-geometry#mesh22-geometry
v 0.154682 0.191161 -0.611752
v 0.151736 -0.012199 -0.614460
v 0.156418 0.191161 -0.644841
v 0.147054 -0.012199 -0.610245
v 0.153600 -0.012199 -0.650002
v 0.154689 0.212811 -0.611884
v 0.150001 0.191161 -0.607538
v 0.145860 -0.065203 -0.611447
v 0.152587 -0.065203 -0.654654
v 0.151641 0.191161 -0.650148
v 0.156383 0.212811 -0.644187
v 0.094878 0.191161 -0.610429
v 0.095012 -0.012199 -0.612975
v 0.150542 -0.065203 -0.615663
v 0.148823 -0.012199 -0.655309
v 0.151607 0.212811 -0.649495
v 0.150008 0.212811 -0.607670
v 0.144814 0.225930 -0.638583
v 0.092394 0.212811 -0.610691
v 0.095071 -0.065203 -0.614111
v 0.143294 -0.092224 -0.604164
v 0.150422 -0.092224 -0.654768
v 0.147809 -0.065203 -0.659960
v 0.097704 0.191161 -0.652977
v 0.132281 0.232314 -0.619939
v 0.138693 0.225930 -0.644247
v 0.138137 0.232314 -0.624221
v 0.090663 0.191161 -0.615110
v 0.090797 -0.012199 -0.617657
v 0.090856 -0.065203 -0.618793
v 0.147989 -0.092224 -0.608378
v 0.098207 -0.065203 -0.662562
v 0.097966 -0.012199 -0.657976
v 0.095183 0.212811 -0.652454
v 0.091130 0.225930 -0.617404
v 0.138747 0.232314 -0.635853
v 0.132478 0.231269 -0.641314
v 0.088152 0.212811 -0.615374
v 0.079152 -0.092224 -0.611988
v 0.083717 -0.092224 -0.607289
v 0.129439 -0.124370 -0.604891
v 0.136612 -0.124771 -0.652637
v 0.145629 -0.092224 -0.660074
v 0.087316 -0.092224 -0.663133
v 0.092399 0.191161 -0.648199
v 0.089846 0.212811 -0.647677
v 0.123055 0.237362 -0.630118
v 0.092850 0.232315 -0.622761
v 0.093262 0.225930 -0.646630
v 0.092661 -0.012199 -0.653198
v 0.092902 -0.065203 -0.657785
v 0.134329 -0.124771 -0.609094
v 0.087900 0.225930 -0.641373
v 0.121644 0.234301 -0.622492
v 0.100841 0.234001 -0.623896
v 0.086916 0.225930 -0.622615
v 0.122730 0.232959 -0.641463
v 0.123253 0.237362 -0.633909
v 0.094567 0.231537 -0.643302
v 0.081586 -0.092224 -0.658378
v 0.038579 -0.116523 -0.614116
v 0.042826 -0.116909 -0.609433
v 0.102273 -0.144570 -0.606315
v 0.111702 -0.144603 -0.650761
v 0.131604 -0.124317 -0.657991
v 0.046223 -0.116960 -0.662795
v 0.100000 0.237362 -0.631327
v 0.088602 0.232314 -0.627806
v 0.089158 0.232314 -0.638399
v 0.100199 0.237362 -0.635118
v 0.109584 -0.144603 -0.610392
v 0.101818 0.232959 -0.642560
v 0.040882 -0.116523 -0.658032
v 0.040300 -0.144287 -0.614026
v 0.044525 -0.144307 -0.609344
v 0.072785 -0.150247 -0.610747
v 0.074827 -0.154080 -0.643520
v 0.104006 -0.144566 -0.656245
v 0.047735 -0.144310 -0.659196
v 0.073470 -0.154080 -0.617649
v 0.049206 -0.151257 -0.616639
v 0.050820 -0.147269 -0.610674
v 0.074867 -0.150490 -0.652410
v 0.053746 -0.147409 -0.655921
v 0.042417 -0.144286 -0.654380
v 0.050867 -0.151257 -0.648289
vn 0.8638977271595902 -0.010792999736120029 0.5035516142017519
vn 0.9261507908248667 -0.02486100658863813 0.3763331542740739
vn 0.9607472432434814 0.0029480001058114855 -0.27740952380087275
vn -0.9607472432434814 -0.0029480001058114855 0.27740952380087275
vn -0.9261507908248667 0.02486100658863813 -0.3763331542740739
vn -0.8638977271595902 0.010792999736120029 -0.5035516142017519
vn 0.33365739452473686 -0.021217999168386584 0.942455590248291
vn -0.33365739452473686 0.021217999168386584 -0.942455590248291
vn 0.911915072752695 0.004101999982161939 -0.4103584697341988
vn -0.911915072752695 -0.004101999982161939 0.4103584697341988
vn 0.825338597445783 0.4001960757941408 0.3983206001265795
vn -0.825338597445783 -0.4001960757941408 -0.3983206001265795
vn 0.3337654131828219 -0.0020370009577984943 0.9426539659864578
vn -0.3337654131828219 0.0020370009577984943 -0.9426539659864578
vn 0.33497434480602084 0.053226007506420266 0.9407226905133645
vn -0.33497434480602084 -0.053226007506420266 -0.9407226905133645
vn 0.9425014649042793 -0.017158001813626735 -0.3337612794004885
vn -0.9425014649042793 0.017158001813626735 0.3337612794004885
vn 0.5036218687568397 0.01931800755677364 -0.8637081844546254
vn -0.5036218687568397 -0.01931800755677364 0.8637081844546254
vn 0.8051085648062303 0.4687590820913228 -0.3634076524133093
vn -0.8051085648062303 -0.4687590820913228 0.3634076524133093
vn -0.4302874953064592 -0.020507002386150035 0.9024589377007844
vn 0.4302874953064592 0.020507002386150035 -0.9024589377007844
vn -0.4305315655219486 -0.017080009007047627 0.9024138985972784
vn 0.4305315655219486 0.017080009007047627 -0.9024138985972784
vn 0.9027801299850499 0.010181001945434483 0.4299818415974834
vn -0.9027801299850499 -0.010181001945434483 -0.4299818415974834
vn 0.37628819391165635 0.04901499148729682 -0.925205234384352
vn -0.37628819391165635 -0.04901499148729682 0.925205234384352
vn 0.4059433653792974 0.22902496655611593 -0.8847358638590956
vn -0.4059433653792974 -0.22902496655611593 0.8847358638590956
vn 0.22392792111326731 0.38321594425696875 0.896103691663599
vn -0.22392792111326731 -0.38321594425696875 -0.896103691663599
vn 0.6358011017209211 0.7249908138715598 -0.2648495400266279
vn -0.6358011017209211 -0.7249908138715598 0.2648495400266279
vn -0.43149856276324344 0.10512397114776414 0.8959676004317227
vn 0.43149856276324344 -0.10512397114776414 -0.8959676004317227
vn -0.4036544738482212 0.24885303516278162 0.8804176467067132
vn 0.4036544738482212 -0.24885303516278162 -0.8804176467067132
vn 0.33244726170042604 0.09348199226994862 0.9384774559408071
vn -0.33244726170042604 -0.09348199226994862 -0.9384774559408071
vn 0.9262645528487717 -0.1816449713423173 -0.3302106638525076
vn -0.9262645528487717 0.1816449713423173 0.3302106638525076
vn 0.43023112027717775 0.003103000145965075 -0.902713439877317
vn -0.43023112027717775 -0.003103000145965075 0.902713439877317
vn -0.27698400816237406 0.0010229998790930567 -0.9608739837739146
vn 0.27698400816237406 -0.0010229998790930567 0.9608739837739146
vn 0.1263911199861918 0.7648890300892438 0.6316407653387897
vn -0.1263911199861918 -0.7648890300892438 -0.6316407653387897
vn 0.2832507855516105 0.6164251448470142 -0.7347033641441514
vn -0.2832507855516105 -0.6164251448470142 0.7347033641441514
vn 0.5105314539800724 0.8358032972804175 0.20196653869434789
vn -0.5105314539800724 -0.8358032972804175 -0.20196653869434789
vn -0.9587458747311094 -0.0609970146527391 0.2776431376597182
vn 0.9587458747311094 0.0609970146527391 -0.2776431376597182
vn -0.9118704845209196 -0.007100999202282054 0.41041661183474604
vn 0.9118704845209196 0.007100999202282054 -0.41041661183474604
vn -0.9330663413884299 0.14656807074074235 0.32848896968900926
vn 0.9330663413884299 -0.14656807074074235 -0.32848896968900926
vn 0.8719733053708679 -0.23566918311607635 0.42909508369358457
vn -0.8719733053708679 0.23566918311607635 -0.42909508369358457
vn -0.32975069997143475 0.10301203514408087 -0.9384311357173862
vn 0.32975069997143475 -0.10301203514408087 0.9384311357173862
vn -0.4103590076901267 0.044637011564574496 -0.9108309513878844
vn 0.4103590076901267 -0.044637011564574496 0.9108309513878844
vn -0.33849081269230147 0.2295911072342324 -0.9125304889163235
vn 0.33849081269230147 -0.2295911072342324 0.9125304889163235
vn -0.401077836275138 0.4945582259952113 0.771069860874696
vn 0.401077836275138 -0.4945582259952113 -0.771069860874696
vn 0.38300385283288757 0.8890523484923318 -0.25078670290793587
vn -0.38300385283288757 -0.8890523484923318 0.25078670290793587
vn 0.20896411009468807 0.6404229847776667 -0.7390483077991585
vn -0.20896411009468807 -0.6404229847776667 0.7390483077991585
vn -0.9462626955511372 0.016297008469457665 0.32298810895022456
vn 0.9462626955511372 -0.016297008469457665 -0.32298810895022456
vn -0.7538506276308019 0.5920259881060715 0.2849815092732781
vn 0.7538506276308019 -0.5920259881060715 -0.2849815092732781
vn -0.32776768601916023 0.40955788219115213 0.8513698873795945
vn 0.32776768601916023 -0.40955788219115213 -0.8513698873795945
vn 0.2868721414194866 -0.22594595824732816 0.930941887783064
vn -0.2868721414194866 0.22594595824732816 -0.930941887783064
vn 0.7901237044401003 -0.5302520114057709 -0.30746924412368004
vn -0.7901237044401003 0.5302520114057709 0.30746924412368004
vn 0.4106724129700879 -0.16630711140141513 -0.8964876540826667
vn -0.4106724129700879 0.16630711140141513 0.8964876540826667
vn -0.28858695994200984 0.21946792433459938 -0.9319610489391128
vn 0.28858695994200984 -0.21946792433459938 0.9319610489391128
vn -0.8633175953687753 -0.03061799155342291 -0.5037313451830349
vn 0.8633175953687753 0.03061799155342291 0.5037313451830349
vn -0.9018621052374032 -0.04060399419168654 -0.43011168176700426
vn 0.9018621052374032 0.04060399419168654 0.43011168176700426
vn 0.13003007706646869 0.9791511152230151 0.15606175897898186
vn -0.13003007706646869 -0.9791511152230151 -0.15606175897898186
vn -0.32928091160014045 0.7546932821982043 0.5674611273564754
vn 0.32928091160014045 -0.7546932821982043 -0.5674611273564754
vn -0.30601789496983345 0.4638982282013057 -0.8313552079766634
vn 0.30601789496983345 -0.4638982282013057 0.8313552079766634
vn -0.9263225041746643 0.02156900333135056 -0.37611354183925794
vn 0.9263225041746643 -0.02156900333135056 0.37611354183925794
vn -0.8682886318951254 0.25187392010708165 -0.4273574383248558
vn 0.8682886318951254 -0.25187392010708165 0.4273574383248558
vn 0.6674496729428235 -0.628692129861108 0.3990703446000739
vn -0.6674496729428235 0.628692129861108 -0.3990703446000739
vn -0.9001849045669412 0.1569730412134464 -0.4062346636145275
vn 0.9001849045669412 -0.1569730412134464 0.4062346636145275
vn -0.010576308117783756 0.8704133494845785 0.4922080279166878
vn 0.010576308117783756 -0.8704133494845785 -0.4922080279166878
vn -0.1223113529881449 0.85234206964652 0.5084810018485415
vn 0.1223113529881449 -0.85234206964652 -0.5084810018485415
vn -0.9067823284393978 0.3222959750919238 0.27179240841048147
vn 0.9067823284393978 -0.3222959750919238 -0.27179240841048147
vn 0.11075120886368484 0.6767160329201174 -0.7278664578918931
vn -0.11075120886368484 -0.6767160329201174 0.7278664578918931
vn 0.11993695071937889 0.9423575785013464 -0.3123736898223285
vn -0.11993695071937889 -0.9423575785013464 0.3123736898223285
vn -0.13738773206419763 0.579161995517222 -0.8035521103368254
vn 0.13738773206419763 -0.579161995517222 0.8035521103368254
vn -0.6262182218673515 0.6962521826038873 -0.3508327761492869
vn 0.6262182218673515 -0.6962521826038873 0.3508327761492869
vn -0.6096074275431839 0.7105652611784323 0.35139122625729863
vn 0.6096074275431839 -0.7105652611784323 -0.35139122625729863
vn -0.3980465679547378 0.12231204036840199 0.909174732667144
vn 0.3980465679547378 -0.12231204036840199 -0.909174732667144
vn 0.1622552606110407 -0.4962681509373707 0.8528722956980408
vn -0.1622552606110407 0.4962681509373707 -0.8528722956980408
vn 0.4663236776990321 -0.8520330029613911 -0.23786969012853165
vn -0.4663236776990321 0.8520330029613911 0.23786969012853165
vn 0.32073937620766296 -0.3716620632893667 -0.8712023664232152
vn -0.32073937620766296 0.3716620632893667 0.8712023664232152
vn -0.2735081593964016 0.1949181266037272 -0.9419130589735369
vn 0.2735081593964016 -0.1949181266037272 0.9419130589735369
vn -0.1504465915192084 0.9575692061803637 0.24581911739195636
vn 0.1504465915192084 -0.9575692061803637 -0.24581911739195636
vn -0.5288182276477932 0.8281028936306573 0.1860023646838372
vn 0.5288182276477932 -0.8281028936306573 -0.1860023646838372
vn -0.7190485197475083 0.5977782001488712 -0.3544438596952882
vn 0.7190485197475083 -0.5977782001488712 0.3544438596952882
vn -0.1757891891450828 0.9583232507437265 -0.22519926301764603
vn 0.1757891891450828 -0.9583232507437265 0.22519926301764603
vn 0.3211964345755787 -0.9061001920751015 0.27534576869347405
vn -0.3211964345755787 0.9061001920751015 -0.27534576869347405
vn -0.002193982797165603 0.7476931262851615 -0.6640407934347158
vn 0.002193982797165603 -0.7476931262851615 0.6640407934347158
vn -0.683965071211815 0.39275198101754755 -0.614766348110409
vn 0.683965071211815 -0.39275198101754755 0.614766348110409
vn -0.734639383173061 -0.466235815730451 0.4928784239762029
vn 0.734639383173061 0.466235815730451 -0.4928784239762029
vn -0.30399666598077324 -0.47716697128965435 0.824559099508842
vn 0.30399666598077324 0.47716697128965435 -0.824559099508842
vn 0.007812503209439051 -0.7761569204401739 0.6304913953785793
vn -0.007812503209439051 0.7761569204401739 -0.6304913953785793
vn 0.08277142525441386 -0.9856391016502528 -0.14718849295864003
vn -0.08277142525441386 0.9856391016502528 0.14718849295864003
vn 0.15921267622071297 -0.7230018892646263 -0.6722496499444379
vn -0.15921267622071297 0.7230018892646263 0.6722496499444379
vn -0.28764636684177963 -0.4133039541734148 -0.8639672500201292
vn 0.28764636684177963 0.4133039541734148 0.8639672500201292
vn 0.01558970297484508 -0.9464101881765206 0.32259063358510476
vn -0.01558970297484508 0.9464101881765206 -0.32259063358510476
vn -0.3479958741780236 -0.9087080980783052 0.23053950646685742
vn 0.3479958741780236 0.9087080980783052 -0.23053950646685742
vn -0.12735164655238915 -0.7648689969671723 0.6314720703236423
vn 0.12735164655238915 0.7648689969671723 -0.6314720703236423
vn 0.0213536813737352 -0.8635841639426635 -0.5037523320831773
vn -0.0213536813737352 0.8635841639426635 0.5037523320831773
vn -0.11738898065341483 -0.8110117979154494 -0.5731314778156078
vn 0.11738898065341483 0.8110117979154494 0.5731314778156078
vn -0.5509544741134842 -0.7524244312627961 -0.3609801139857873
vn 0.5509544741134842 0.7524244312627961 0.3609801139857873
vn -0.23545316154837012 -0.9263076162120256 -0.2941360380240268
vn 0.23545316154837012 0.9263076162120256 0.2941360380240268
usemtl material_0_0
f 1//1 2//2 3//3
f 3//4 2//5 1//6
f 1//1 4//7 2//2
f 2//5 4//8 1//6
f 3//3 2//2 5//9
f 5//10 2//5 3//4
f 6//11 1//1 3//3
f 3//4 1//6 6//12
f 1//1 7//13 4//7
f 4//8 7//14 1//6
f 2//2 4//7 8//15
f 8//16 4//8 2//5
f 2//2 9//17 5//9
f 5//10 9//18 2//5
f 3//3 5//9 10//19
f 10//20 5//10 3//4
f 6//11 7//13 1//1
f 1//6 7//14 6//12
f 6//11 3//3 11//21
f 11//22 3//4 6//12
f 7//13 12//23 4//7
f 4//8 12//24 7//14
f 4//7 13//25 8//15
f 8//16 13//26 4//8
f 2//2 8//15 14//27
f 14//28 8//16 2//5
f 2//2 14//27 9//17
f 9//18 14//28 2//5
f 5//9 9//17 15//29
f 15//30 9//18 5//10
f 10//19 5//9 15//29
f 15//30 5//10 10//20
f 16//31 3//3 10//19
f 10//20 3//4 16//32
f 6//11 17//33 7//13
f 7//14 17//34 6//12
f 11//21 3//3 16//31
f 16//32 3//4 11//22
f 18//35 6//11 11//21
f 11//22 6//12 18//36
f 7//13 19//37 12//23
f 12//24 19//38 7//14
f 4//7 12//23 13//25
f 13//26 12//24 4//8
f 8//15 13//25 20//39
f 20//40 13//26 8//16
f 14//27 8//15 21//41
f 21//42 8//16 14//28
f 14//27 22//43 9//17
f 9//18 22//44 14//28
f 15//29 9//17 23//45
f 23//46 9//18 15//30
f 10//19 15//29 24//47
f 24//48 15//30 10//20
f 10//19 24//47 16//31
f 16//32 24//48 10//20
f 17//33 6//11 25//49
f 25//50 6//12 17//34
f 17//33 19//37 7//13
f 7//14 19//38 17//34
f 26//51 11//21 16//31
f 16//32 11//22 26//52
f 27//53 6//11 18//35
f 18//36 6//12 27//54
f 18//35 11//21 26//51
f 26//52 11//22 18//36
f 19//37 28//55 12//23
f 12//24 28//56 19//38
f 12//23 29//57 13//25
f 13//26 29//58 12//24
f 13//25 30//59 20//39
f 20//40 30//60 13//26
f 8//15 20//39 21//41
f 21//42 20//40 8//16
f 14//27 21//41 31//61
f 31//62 21//42 14//28
f 14//27 31//61 22//43
f 22//44 31//62 14//28
f 9//17 22//43 23//45
f 23//46 22//44 9//18
f 15//29 23//45 32//63
f 32//64 23//46 15//30
f 15//29 33//65 24//47
f 24//48 33//66 15//30
f 16//31 24//47 34//67
f 34//68 24//48 16//32
f 6//11 27//53 25//49
f 25//50 27//54 6//12
f 17//33 25//49 35//69
f 35//70 25//50 17//34
f 17//33 35//69 19//37
f 19//38 35//70 17//34
f 16//31 34//67 26//51
f 26//52 34//68 16//32
f 27//53 18//35 36//71
f 36//72 18//36 27//54
f 18//35 26//51 37//73
f 37//74 26//52 18//36
f 38//75 28//55 19//37
f 19//38 28//56 38//76
f 28//55 29//57 12//23
f 12//24 29//58 28//56
f 29//57 30//59 13//25
f 13//26 30//60 29//58
f 30//59 39//77 20//39
f 20//40 39//78 30//60
f 21//41 20//39 40//79
f 40//80 20//40 21//42
f 31//61 21//41 41//81
f 41//82 21//42 31//62
f 31//61 42//83 22//43
f 22//44 42//84 31//62
f 23//45 22//43 43//85
f 43//86 22//44 23//46
f 23//45 44//87 32//63
f 32//64 44//88 23//46
f 15//29 32//63 33//65
f 33//66 32//64 15//30
f 33//65 45//89 24//47
f 24//48 45//90 33//66
f 24//47 46//91 34//67
f 34//68 46//92 24//48
f 25//49 27//53 47//93
f 47//94 27//54 25//50
f 25//49 48//95 35//69
f 35//70 48//96 25//50
f 35//69 38//75 19//37
f 19//38 38//76 35//70
f 26//51 34//67 49//97
f 49//98 34//68 26//52
f 36//71 18//35 37//73
f 37//74 18//36 36//72
f 27//53 36//71 47//93
f 47//94 36//72 27//54
f 26//51 49//97 37//73
f 37//74 49//98 26//52
f 46//91 28//55 38//75
f 38//76 28//56 46//92
f 28//55 50//99 29//57
f 29//58 50//100 28//56
f 50//99 30//59 29//57
f 29//58 30//60 50//100
f 51//101 39//77 30//59
f 30//60 39//78 51//102
f 20//39 39//77 40//79
f 40//80 39//78 20//40
f 21//41 40//79 41//81
f 41//82 40//80 21//42
f 31//61 41//81 52//103
f 52//104 41//82 31//62
f 31//61 52//103 42//83
f 42//84 52//104 31//62
f 22//43 42//83 43//85
f 43//86 42//84 22//44
f 23//45 43//85 44//87
f 44//88 43//86 23//46
f 32//63 44//87 51//101
f 51//102 44//88 32//64
f 32//63 50//99 33//65
f 33//66 50//100 32//64
f 33//65 50//99 45//89
f 45//90 50//100 33//66
f 24//47 45//89 46//91
f 46//92 45//90 24//48
f 34//67 46//91 53//105
f 53//106 46//92 34//68
f 25//49 47//93 54//107
f 54//108 47//94 25//50
f 25//49 55//109 48//95
f 48//96 55//110 25//50
f 48//95 56//111 35//69
f 35//70 56//112 48//96
f 56//111 38//75 35//69
f 35//70 38//76 56//112
f 49//97 34//67 53//105
f 53//106 34//68 49//98
f 36//71 37//73 57//113
f 57//114 37//74 36//72
f 47//93 36//71 58//115
f 58//116 36//72 47//94
f 37//73 49//97 59//117
f 59//118 49//98 37//74
f 46//91 45//89 28//55
f 28//56 45//90 46//92
f 53//105 46//91 38//75
f 38//76 46//92 53//106
f 45//89 50//99 28//55
f 28//56 50//100 45//90
f 50//99 51//101 30//59
f 30//60 51//102 50//100
f 51//101 60//119 39//77
f 39//78 60//120 51//102
f 40//79 39//77 61//121
f 61//122 39//78 40//80
f 41//81 40//79 62//123
f 62//124 40//80 41//82
f 41//81 63//125 52//103
f 52//104 63//126 41//82
f 52//103 64//127 42//83
f 42//84 64//128 52//104
f 43//85 42//83 65//129
f 65//130 42//84 43//86
f 43//85 66//131 44//87
f 44//88 66//132 43//86
f 51//101 44//87 60//119
f 60//120 44//88 51//102
f 32//63 51//101 50//99
f 50//100 51//102 32//64
f 54//107 47//93 67//133
f 67//134 47//94 54//108
f 25//49 54//107 55//109
f 55//110 54//108 25//50
f 48//95 55//109 68//135
f 68//136 55//110 48//96
f 48//95 68//135 56//111
f 56//112 68//136 48//96
f 56//111 53//105 38//75
f 38//76 53//106 56//112
f 69//137 49//97 53//105
f 53//106 49//98 69//138
f 37//73 59//117 57//113
f 57//114 59//118 37//74
f 58//115 36//71 57//113
f 57//114 36//72 58//116
f 47//93 58//115 70//139
f 70//140 58//116 47//94
f 59//117 49//97 69//137
f 69//138 49//98 59//118
f 39//77 60//119 61//121
f 61//122 60//120 39//78
f 40//79 61//121 62//123
f 62//124 61//122 40//80
f 41//81 62//123 63//125
f 63//126 62//124 41//82
f 52//103 63//125 71//141
f 71//142 63//126 52//104
f 52//103 71//141 64//127
f 64//128 71//142 52//104
f 64//127 65//129 42//83
f 42//84 65//130 64//128
f 43//85 65//129 66//131
f 66//132 65//130 43//86
f 60//119 44//87 66//131
f 66//132 44//88 60//120
f 47//93 70//139 67//133
f 67//134 70//140 47//94
f 54//107 67//133 55//109
f 55//110 67//134 54//108
f 55//109 67//133 68//135
f 68//136 67//134 55//110
f 69//137 56//111 68//135
f 68//136 56//112 69//138
f 69//137 53//105 56//111
f 56//112 53//106 69//138
f 57//113 59//117 72//143
f 72//144 59//118 57//114
f 58//115 57//113 72//143
f 72//144 57//114 58//116
f 58//115 72//143 70//139
f 70//140 72//144 58//116
f 70//139 59//117 69//137
f 69//138 59//118 70//140
f 61//121 60//119 73//145
f 73//146 60//120 61//122
f 61//121 74//147 62//123
f 62//124 74//148 61//122
f 63//125 62//123 75//149
f 75//150 62//124 63//126
f 63//125 76//151 71//141
f 71//142 76//152 63//126
f 71//141 77//153 64//127
f 64//128 77//154 71//142
f 64//127 78//155 65//129
f 65//130 78//156 64//128
f 65//129 79//157 66//131
f 66//132 79//158 65//130
f 73//145 60//119 66//131
f 66//132 60//120 73//146
f 68//135 67//133 70//139
f 70//140 67//134 68//136
f 68//135 70//139 69//137
f 69//138 70//140 68//136
f 70//139 72//143 59//117
f 59//118 72//144 70//140
f 62//123 74//147 75//149
f 75//150 74//148 62//124
f 63//125 75//149 76//151
f 76//152 75//150 63//126
f 76//151 80//159 71//141
f 71//142 80//160 76//152
f 71//141 80//159 77//153
f 77//154 80//160 71//142
f 77//153 78//155 64//127
f 64//128 78//156 77//154
f 65//129 78//155 79//157
f 79//158 78//156 65//130
f 79//157 73//145 66//131
f 66//132 73//146 79//158
f 75//149 74//147 81//161
f 81//162 74//148 75//150
f 76//151 75//149 82//163
f 82//164 75//150 76//152
f 82//163 80//159 76//151
f 76//152 80//160 82//164
f 81//161 77//153 80//159
f 80//160 77//154 81//162
f 77//153 83//165 78//155
f 78//156 83//166 77//154
f 78//155 84//167 79//157
f 79//158 84//168 78//156
f 79//157 85//169 73//145
f 73//146 85//170 79//158
f 74//147 85//169 81//161
f 81//162 85//170 74//148
f 75//149 81//161 82//163
f 82//164 81//162 75//150
f 82//163 81//161 80//159
f 80//160 81//162 82//164
f 81//161 86//171 77//153
f 77//154 86//172 81//162
f 77//153 86//171 83//165
f 83//166 86//172 77//154
f 78//155 83//165 84//167
f 84//168 83//166 78//156
f 85//169 79//157 84//167
f 84//168 79//158 85//170
f 81//161 85//169 86//171
f 86//172 85//170 81//162
f 86//171 84//167 83//165
f 83//166 84//168 86//172
f 86//171 85//169 84//167
f 84//168 85//170 86//172
