# SSTK version 0.8.0
# 15
mtllib original-15.mtl
o mesh15/mesh15-geometry#mesh15-geometry
v 0.172899 -0.698153 0.081541
v 0.173236 -0.714515 0.084288
v 0.172899 -0.714515 0.081541
v 0.173236 -0.698153 0.084288
v 0.171998 -0.698153 0.078924
v 0.172995 -0.714515 0.087045
v 0.171998 -0.714515 0.078924
v 0.172995 -0.698153 0.087045
v 0.170573 -0.698153 0.076551
v 0.172186 -0.714515 0.089692
v 0.170573 -0.714515 0.076551
v 0.172186 -0.698153 0.089692
v 0.168685 -0.698153 0.074527
v 0.170844 -0.714515 0.092113
v 0.168685 -0.715443 0.074527
v 0.170844 -0.698153 0.092113
v 0.166418 -0.698153 0.072939
v 0.169028 -0.715443 0.094202
v 0.166418 -0.716559 0.072939
v 0.169028 -0.698153 0.094202
v 0.163870 -0.698153 0.071858
v 0.166817 -0.716559 0.095868
v 0.163870 -0.718054 0.071858
v 0.166817 -0.698153 0.095867
v 0.161153 -0.698153 0.071330
v 0.164309 -0.718054 0.097037
v 0.161153 -0.721245 0.071330
v 0.164309 -0.698153 0.097037
v 0.158386 -0.698153 0.071378
v 0.161612 -0.721245 0.097660
v 0.158386 -0.723873 0.071378
v 0.161612 -0.698153 0.097660
v 0.155689 -0.698153 0.072000
v 0.158844 -0.723873 0.097708
v 0.155689 -0.728106 0.072000
v 0.158845 -0.698153 0.097708
v 0.153181 -0.698153 0.073170
v 0.156128 -0.728106 0.097180
v 0.153181 -0.733000 0.073170
v 0.156128 -0.698153 0.097180
v 0.150970 -0.698153 0.074836
v 0.153580 -0.733000 0.096098
v 0.150970 -0.733637 0.074836
v 0.153580 -0.698153 0.096098
v 0.149154 -0.698153 0.076924
v 0.151313 -0.733637 0.094510
v 0.149154 -0.735224 0.076924
v 0.151313 -0.698153 0.094510
v 0.147812 -0.698153 0.079345
v 0.149425 -0.735224 0.092486
v 0.147812 -0.736101 0.079345
v 0.149425 -0.698153 0.092486
v 0.147003 -0.698153 0.081992
v 0.148000 -0.736101 0.090114
v 0.147003 -0.737160 0.081992
v 0.148000 -0.698153 0.090114
v 0.146762 -0.698153 0.084749
v 0.147099 -0.737160 0.087496
v 0.146761 -0.737160 0.084749
v 0.147099 -0.698153 0.087496
vn 0.9816583888571596 0 -0.1906483873164566
vn 0.9986263271262064 0 -0.05239712559313743
vn 0.9659054997205146 0 -0.25889489297717505
vn -0.9659054997205146 0 0.25889489297717505
vn -0.9986263271262064 0 0.05239712559313743
vn -0.9816583888571596 0 0.1906483873164566
vn 0.9998449862770888 0 0.01760691388539594
vn -0.9998449862770888 0 -0.01760691388539594
vn 0.9205604188800863 0 -0.39060019865755313
vn -0.9205604188800863 0 0.39060019865755313
vn 0.9877002554624927 0 0.15635921897773156
vn -0.9877002554624927 0 -0.15635921897773156
vn 0.8909707707370312 0 -0.45406066300909675
vn -0.8909707707370312 0 0.45406066300909675
vn 0.974334183477729 0 0.2251064168494249
vn -0.974334183477729 0 -0.2251064168494249
vn 0.8192476499976207 0 -0.5734398730236469
vn -0.8192476499976207 0 0.5734398730236469
vn 0.9336045113693541 0 0.35830520000523247
vn -0.9336045113693541 0 -0.35830520000523247
vn 0.7771074925007431 -0.0000019999993719574922 -0.6293678932827821
vn -0.7771074925007431 0.0000019999993719574922 0.6293678932827821
vn 0.9062429644834794 0 0.42275724632961065
vn -0.9062429644834794 0 -0.42275724632961065
vn 0.6821172667577943 -0.000004000001354150266 -0.7312428012465327
vn -0.6821172667577943 0.000004000001354150266 0.7312428012465327
vn 0.8387176747241155 0 0.5445664900683596
vn -0.8387176747241155 0 -0.5445664900683596
vn 0.6292696002957434 -0.000004000000998336063 -0.7771870882404286
vn -0.6292696002957434 0.000004000000998336063 0.7771870882404286
vn 0.7985536839295277 0 0.6019235947216056
vn -0.7985536839295277 0 -0.6019235947216056
vn 0.5151689853711394 -0.000001999999546191296 -0.8570886281521128
vn -0.5151689853711394 0.000001999999546191296 0.8570886281521128
vn 0.7071679300135716 0 0.7070456270710682
vn -0.7071679300135716 0 -0.7070456270710682
vn 0.4539210555701976 0 -0.891041904351326
vn -0.4539210555701976 0 0.891041904351326
vn 0.6559346756735621 0.000002000000168910969 0.754817660925484
vn -0.6559346756735621 -0.000002000000168910969 -0.754817660925484
vn 0.32570335980101095 0.0000010000004404156537 -0.9454720098518693
vn -0.32570335980101095 -0.0000010000004404156537 0.9454720098518693
vn 0.5446825040403774 0.000003999998730913001 0.8386423372190939
vn -0.5446825040403774 -0.000003999998730913001 -0.8386423372190939
vn 0.2587479350643799 9.999998155356088e-7 -0.9659448773604629
vn -0.2587479350643799 -9.999998155356088e-7 0.9659448773604629
vn 0.48466886177855795 0.000004000000753791979 0.8746977160175263
vn -0.48466886177855795 -0.000004000000753791979 -0.8746977160175263
vn 0.12203196501637897 0 -0.9925261706948796
vn -0.12203196501637897 0 0.9925261706948796
vn 0.3584513677836419 0.000001999999540917302 0.9335484009573561
vn -0.3584513677836419 -0.000001999999540917302 -0.9335484009573561
vn 0.05227105379479984 0 -0.9986329340329115
vn -0.05227105379479984 0 0.9986329340329115
vn 0.29223412416168004 0.000002000000928648357 0.9563468077384144
vn -0.29223412416168004 -0.000002000000928648357 -0.9563468077384144
vn -0.08700345909057913 0 -0.9962080094569978
vn 0.08700345909057913 0 0.9962080094569978
vn 0.1564999934705158 0.000004000002013430892 0.9876779596749785
vn -0.1564999934705158 -0.000004000002013430892 -0.9876779596749785
vn -0.15651898500004127 0 -0.9876749502415036
vn 0.15651898500004127 0 0.9876749502415036
vn 0.08698431456916804 0.0000059999990469095265 0.9962096812332893
vn -0.08698431456916804 -0.0000059999990469095265 -0.9962096812332893
vn -0.29223593807617265 0 -0.9563462534546467
vn 0.29223593807617265 0 0.9563462534546467
vn -0.052279040139208324 0.00000600000024707994 0.9986325159567574
vn 0.052279040139208324 -0.00000600000024707994 -0.9986325159567574
vn -0.35843836920443395 0 -0.933553391875401
vn 0.35843836920443395 0 0.933553391875401
vn -0.12202090711605934 0.0000039999985547532345 0.9925275302028522
vn 0.12202090711605934 -0.0000039999985547532345 -0.9925275302028522
vn -0.4846727643542388 0 -0.8746955536032067
vn 0.4846727643542388 0 0.8746955536032067
vn -0.25875003901459265 0.000002000000642521109 0.965944313770699
vn 0.25875003901459265 -0.000002000000642521109 -0.965944313770699
vn -0.544699953591216 0 -0.8386310038137911
vn 0.544699953591216 0 0.8386310038137911
vn -0.3257171209401782 0 0.9454672691989084
vn 0.3257171209401782 0 -0.9454672691989084
vn -0.6559410743625178 0.0000010000004555931691 -0.7548121004350326
vn 0.6559410743625178 -0.0000010000004555931691 0.7548121004350326
vn -0.45393699214652167 9.999999120975393e-7 0.8910337856445001
vn 0.45393699214652167 -9.999999120975393e-7 -0.8910337856445001
vn -0.7071524233951143 0.0000010000001785714925 -0.7070611360309781
vn 0.7071524233951143 -0.0000010000001785714925 0.7070611360309781
vn -0.5151732354678514 0.000001000000413903628 0.8570860735402168
vn 0.5151732354678514 -0.000001000000413903628 -0.8570860735402168
vn -0.7985406686815502 0.0000019999998491250645 -0.6019408612626514
vn 0.7985406686815502 -0.0000019999998491250645 0.6019408612626514
vn -0.6292529676441075 0.0000010000002824375318 0.7772005550114359
vn 0.6292529676441075 -0.0000010000002824375318 -0.7772005550114359
vn -0.8387125374617503 0.0000019999999410250214 -0.5445744021715231
vn 0.8387125374617503 -0.0000019999999410250214 0.5445744021715231
vn -0.6821079768017484 0.000001999999125973846 0.7312514669930075
vn 0.6821079768017484 -0.000001999999125973846 -0.7312514669930075
vn -0.9062448524073508 0.0000020000004068399974 -0.42275319925599497
vn 0.9062448524073508 -0.0000020000004068399974 0.42275319925599497
vn -0.7771039431906303 0.0000030000003876479547 0.6293722757387504
vn 0.7771039431906303 -0.0000030000003876479547 -0.6293722757387504
vn -0.9336059819929202 0.0000020000002577909694 -0.35830136810098134
vn 0.9336059819929202 -0.0000020000002577909694 0.35830136810098134
vn -0.819243178744592 0.000003000000445372461 0.5734462608400692
vn 0.819243178744592 -0.000003000000445372461 -0.5734462608400692
vn -0.9743332562340535 0.0000020000008400892675 -0.2251104302166964
vn 0.9743332562340535 -0.0000020000008400892675 0.2251104302166964
vn -0.890972800182875 0.0000010000002759960284 0.4540566807495372
vn 0.890972800182875 -0.0000010000002759960284 -0.4540566807495372
vn -0.9876978892063722 0.000002000000665844125 -0.1563741655558125
vn 0.9876978892063722 -0.000002000000665844125 0.1563741655558125
vn -0.9205612917161363 0 0.3905981415648551
vn 0.9205612917161363 0 -0.3905981415648551
vn -0.9998447573092138 0.000002000000350863983 -0.017619911386817077
vn 0.9998447573092138 -0.000002000000350863983 0.017619911386817077
vn -0.9659057479448281 0 0.2588939668805399
vn 0.9659057479448281 0 -0.2588939668805399
vn -0.9986260136968013 9.999999922330026e-7 0.052403098830470625
vn 0.9986260136968013 -9.999999922330026e-7 -0.052403098830470625
vn -0.9816570034084914 0.0000010000001231329845 0.1906555209220572
vn 0.9816570034084914 -0.0000010000001231329845 -0.1906555209220572
usemtl material_0_0
f 1//1 2//2 3//3
f 3//4 2//5 1//6
f 4//7 2//2 1//1
f 1//6 2//5 4//8
f 1//1 3//3 5//9
f 5//10 3//4 1//6
f 4//7 6//11 2//2
f 2//5 6//12 4//8
f 5//9 3//3 7//13
f 7//14 3//4 5//10
f 8//15 6//11 4//7
f 4//8 6//12 8//16
f 5//9 7//13 9//17
f 9//18 7//14 5//10
f 8//15 10//19 6//11
f 6//12 10//20 8//16
f 9//17 7//13 11//21
f 11//22 7//14 9//18
f 12//23 10//19 8//15
f 8//16 10//20 12//24
f 9//17 11//21 13//25
f 13//26 11//22 9//18
f 12//23 14//27 10//19
f 10//20 14//28 12//24
f 13//25 11//21 15//29
f 15//30 11//22 13//26
f 16//31 14//27 12//23
f 12//24 14//28 16//32
f 15//29 17//33 13//25
f 13//26 17//34 15//30
f 16//31 18//35 14//27
f 14//28 18//36 16//32
f 15//29 19//37 17//33
f 17//34 19//38 15//30
f 20//39 18//35 16//31
f 16//32 18//36 20//40
f 19//37 21//41 17//33
f 17//34 21//42 19//38
f 20//39 22//43 18//35
f 18//36 22//44 20//40
f 19//37 23//45 21//41
f 21//42 23//46 19//38
f 20//39 24//47 22//43
f 22//44 24//48 20//40
f 23//45 25//49 21//41
f 21//42 25//50 23//46
f 22//43 24//47 26//51
f 26//52 24//48 22//44
f 23//45 27//53 25//49
f 25//50 27//54 23//46
f 24//47 28//55 26//51
f 26//52 28//56 24//48
f 27//53 29//57 25//49
f 25//50 29//58 27//54
f 28//55 30//59 26//51
f 26//52 30//60 28//56
f 27//53 31//61 29//57
f 29//58 31//62 27//54
f 28//55 32//63 30//59
f 30//60 32//64 28//56
f 31//61 33//65 29//57
f 29//58 33//66 31//62
f 30//59 32//63 34//67
f 34//68 32//64 30//60
f 31//61 35//69 33//65
f 33//66 35//70 31//62
f 32//63 36//71 34//67
f 34//68 36//72 32//64
f 35//69 37//73 33//65
f 33//66 37//74 35//70
f 36//71 38//75 34//67
f 34//68 38//76 36//72
f 35//69 39//77 37//73
f 37//74 39//78 35//70
f 36//71 40//79 38//75
f 38//76 40//80 36//72
f 39//77 41//81 37//73
f 37//74 41//82 39//78
f 40//79 42//83 38//75
f 38//76 42//84 40//80
f 39//77 43//85 41//81
f 41//82 43//86 39//78
f 40//79 44//87 42//83
f 42//84 44//88 40//80
f 45//89 41//81 43//85
f 43//86 41//82 45//90
f 44//87 46//91 42//83
f 42//84 46//92 44//88
f 45//89 43//85 47//93
f 47//94 43//86 45//90
f 44//87 48//95 46//91
f 46//92 48//96 44//88
f 45//89 47//93 49//97
f 49//98 47//94 45//90
f 48//95 50//99 46//91
f 46//92 50//100 48//96
f 49//97 47//93 51//101
f 51//102 47//94 49//98
f 52//103 50//99 48//95
f 48//96 50//100 52//104
f 49//97 51//101 53//105
f 53//106 51//102 49//98
f 52//103 54//107 50//99
f 50//100 54//108 52//104
f 53//105 51//101 55//109
f 55//110 51//102 53//106
f 56//111 54//107 52//103
f 52//104 54//108 56//112
f 53//105 55//109 57//113
f 57//114 55//110 53//106
f 56//111 58//115 54//107
f 54//108 58//116 56//112
f 57//113 55//109 59//117
f 59//118 55//110 57//114
f 60//119 58//115 56//111
f 56//112 58//116 60//120
f 57//113 59//117 60//119
f 60//120 59//118 57//114
f 60//119 59//117 58//115
f 58//116 59//118 60//120
