# SSTK version 0.8.0
# 18
mtllib original-18.mtl
o mesh18/mesh18-geometry#mesh18-geometry
v -0.430876 -0.740742 0.124135
v -0.430385 -0.749960 0.124970
v -0.452885 -0.749960 0.086769
v -0.488460 -0.740742 0.158052
v -0.430876 -0.759177 0.124135
v -0.432330 -0.731927 0.121668
v -0.489913 -0.731927 0.155584
v -0.487968 -0.749960 0.158886
v -0.432330 -0.767992 0.121668
v -0.434682 -0.723900 0.117675
v -0.510468 -0.749960 0.120685
v -0.488460 -0.759177 0.158052
v -0.434682 -0.776019 0.117674
v -0.492265 -0.723900 0.151591
v -0.437829 -0.717012 0.112331
v -0.489913 -0.767992 0.155584
v -0.437829 -0.782907 0.112331
v -0.495413 -0.717012 0.146247
v -0.441635 -0.711565 0.105870
v -0.492265 -0.776019 0.151591
v -0.441635 -0.788355 0.105870
v -0.499218 -0.711565 0.139786
v -0.445932 -0.707795 0.098574
v -0.495413 -0.782907 0.146247
v -0.445932 -0.792125 0.098574
v -0.503515 -0.707795 0.132490
v -0.450533 -0.705868 0.090762
v -0.499218 -0.788355 0.139786
v -0.450533 -0.794052 0.090762
v -0.508116 -0.705868 0.124678
v -0.455237 -0.705868 0.082776
v -0.503515 -0.792125 0.132490
v -0.455237 -0.794052 0.082776
v -0.512820 -0.705868 0.116692
v -0.459838 -0.707795 0.074964
v -0.508116 -0.794052 0.124678
v -0.459838 -0.792125 0.074964
v -0.464135 -0.711565 0.067669
v -0.517421 -0.707795 0.108880
v -0.512820 -0.794052 0.116692
v -0.464135 -0.788355 0.067668
v -0.467940 -0.717012 0.061208
v -0.521718 -0.711565 0.101585
v -0.517421 -0.792125 0.108880
v -0.467940 -0.782907 0.061207
v -0.471088 -0.723900 0.055864
v -0.525524 -0.717012 0.095124
v -0.521718 -0.788355 0.101585
v -0.471088 -0.776019 0.055864
v -0.473439 -0.731927 0.051871
v -0.528671 -0.723900 0.089780
v -0.525524 -0.782907 0.095124
v -0.473439 -0.767992 0.051871
v -0.474893 -0.740742 0.049403
v -0.531023 -0.731927 0.085787
v -0.528671 -0.776019 0.089780
v -0.474893 -0.759177 0.049403
v -0.475385 -0.749960 0.048568
v -0.532477 -0.740742 0.083319
v -0.531023 -0.767992 0.085787
v -0.532968 -0.749960 0.082484
v -0.532477 -0.759178 0.083319
vn 0.8616493525722415 0.0000020000013916250184 -0.5075040819617482
vn 0.861648922184381 0.0000020000003317829794 -0.5075048126811158
vn 0.8616500518975564 0 -0.5075028946370043
vn -0.8616500518975564 0 0.5075028946370043
vn -0.861648922184381 -0.0000020000003317829794 0.5075048126811158
vn -0.8616493525722415 -0.0000020000013916250184 0.5075040819617482
vn 0.5071924038007773 0.035012996969209995 0.8611213361484101
vn 0.49241439613829563 0.24203110631620367 0.8360317015826085
vn 0.49980386770679347 0.17353401878655203 0.8485764774898717
vn -0.49980386770679347 -0.17353401878655203 -0.8485764774898717
vn -0.49241439613829563 -0.24203110631620367 -0.8360317015826085
vn -0.5071924038007773 -0.035012996969209995 -0.8611213361484101
vn 0.861648922184381 -0.0000020000003317829794 -0.5075048126811158
vn -0.861648922184381 0.0000020000003317829794 0.5075048126811158
vn 0.4705703879531957 0.3745012844703427 0.7989444898812696
vn -0.4705703879531957 -0.3745012844703427 -0.7989444898812696
vn 0.5071916905086951 -0.03501201673732266 0.8611217961257964
vn -0.5071916905086951 0.03501201673732266 -0.8611217961257964
vn 0.49980312888764017 -0.1735341093504612 0.8485768941269065
vn -0.49980312888764017 0.1735341093504612 -0.8485768941269065
vn 0.8616496215100384 9.999998477660826e-7 -0.5075036253571077
vn -0.8616496215100384 -9.999998477660826e-7 0.5075036253571077
vn 0.4561157164904908 0.43847124415860617 0.774403913482086
vn -0.4561157164904908 -0.43847124415860617 -0.774403913482086
vn 0.861649621508746 0.0000019999996955291654 -0.5075036253563465
vn -0.861649621508746 -0.0000019999996955291654 0.5075036253563465
vn -0.8616500518958331 0.0000020000007553681923 0.5075028946359892
vn -0.8616489221856735 -0.0000010000001658929896 0.5075048126818771
vn 0.8616489221856735 0.0000010000001658929896 -0.5075048126818771
vn 0.8616500518958331 -0.0000020000007553681923 -0.5075028946359892
vn -0.8616493525739648 0 0.5075040819627632
vn 0.8616493525739648 0 -0.5075040819627632
vn 0.49241439613829563 -0.24203110631620367 0.8360317015826085
vn -0.49241439613829563 0.24203110631620367 -0.8360317015826085
vn 0.4705703879531957 -0.3745012844703427 0.7989444898812696
vn -0.4705703879531957 0.3745012844703427 -0.7989444898812696
vn 0.42077082679399425 0.5590982863619234 0.7143955609508356
vn -0.42077082679399425 -0.5590982863619234 -0.7143955609508356
vn 0.39988140143537937 0.6157511942607166 0.678929548298333
vn -0.39988140143537937 -0.6157511942607166 -0.678929548298333
vn 0.8616507512186363 -0.000001000000059555487 -0.5075017073107833
vn -0.8616507512186363 0.000001000000059555487 0.5075017073107833
vn -0.8616500518906631 0.000004000001510712384 0.5075028946329442
vn 0.8616500518906631 -0.000004000001510712384 -0.5075028946329442
vn -0.8616493525735339 -0.000001000000695814009 0.5075040819625095
vn 0.8616493525735339 0.000001000000695814009 -0.5075040819625095
vn 0.4561152903723471 -0.4384748093190726 0.774402145839713
vn -0.4561152903723471 0.4384748093190726 -0.774402145839713
vn 0.4207716415817545 -0.5590980407184442 0.7143952732944083
vn -0.4207716415817545 0.5590980407184442 -0.7143952732944083
vn 0.3525814121804074 0.7192608771083723 0.598623536495321
vn -0.3525814121804074 -0.7192608771083723 -0.598623536495321
vn 0.32617221481004216 0.7661174306970697 0.5537831422750535
vn -0.32617221481004216 -0.7661174306970697 -0.5537831422750535
vn 0.8616514505367734 -0.0000019999994828443626 -0.5075005199838464
vn -0.8616514505367734 0.0000019999994828443626 0.5075005199838464
vn -0.8616484917976494 9.999996359718126e-7 0.5075055434001052
vn 0.8616484917976494 -9.999996359718126e-7 -0.5075055434001052
vn -0.8616496215065919 -0.0000029999995432862482 0.5075036253550778
vn 0.8616496215065919 0.0000029999995432862482 -0.5075036253550778
vn 0.3998832658411338 -0.6157490268981669 0.6789304158558445
vn -0.3998832658411338 0.6157490268981669 -0.6789304158558445
vn 0.35258454857708554 -0.7192582109417786 0.5986248926477454
vn -0.35258454857708554 0.7192582109417786 -0.5986248926477454
vn 0.2689849986365734 0.8479870657986942 0.45668917958125965
vn -0.2689849986365734 -0.8479870657986942 -0.45668917958125965
vn 0.2382066459010656 0.883001650992869 0.40443253849366767
vn -0.2382066459010656 -0.883001650992869 -0.40443253849366767
vn -0.8616484917980802 0 0.507505543400359
vn 0.8616484917980802 0 -0.507505543400359
vn -0.8616482228592276 0.0000010000004840182006 0.5075060000064383
vn 0.8616482228592276 -0.0000010000004840182006 -0.5075060000064383
vn 0.3261731033787555 -0.7661171697730997 0.5537829798857375
vn -0.3261731033787555 0.7661171697730997 -0.5537829798857375
vn 0.26898405969951783 -0.8479890092587439 0.45668612394503566
vn -0.26898405969951783 0.8479890092587439 -0.45668612394503566
vn 0.8616489221861043 0 -0.5075048126821308
vn -0.8616489221861043 0 0.5075048126821308
vn 0.17363073798440706 0.9396537590876599 0.29479345287746833
vn -0.17363073798440706 -0.9396537590876599 -0.29479345287746833
vn 0.139830701802914 0.9612931369288259 0.2374086766039559
vn -0.139830701802914 -0.9612931369288259 -0.2374086766039559
vn -0.8616493525735339 0.000001000000695814009 0.5075040819625095
vn 0.8616493525735339 -0.000001000000695814009 -0.5075040819625095
vn -0.861648491796357 0.0000019999992719406253 0.5075055433993441
vn 0.861648491796357 -0.0000019999992719406253 -0.5075055433993441
vn 0.23820643556420842 -0.8830018713008239 0.40443218137907594
vn -0.23820643556420842 0.8830018713008239 -0.40443218137907594
vn 0.17363073798440706 -0.9396537590876599 0.29479345287746833
vn -0.17363073798440706 0.9396537590876599 -0.29479345287746833
vn 0.8616507512186363 0.000001000000059555487 -0.5075017073107833
vn -0.8616507512186363 -0.000001000000059555487 0.5075017073107833
vn 0.07068774688039535 0.9902522454897749 0.12001555208985121
vn -0.07068774688039535 -0.9902522454897749 -0.12001555208985121
vn 0.03534385025420144 0.9975719628825452 0.060008258763892035
vn -0.03534385025420144 -0.9975719628825452 -0.060008258763892035
vn 0.8616489221856735 -0.0000010000001658929896 -0.5075048126818771
vn -0.8616489221856735 0.0000010000001658929896 0.5075048126818771
vn -0.8616500518971255 0.000001000000377685596 0.5075028946367505
vn 0.8616500518971255 -0.000001000000377685596 -0.5075028946367505
vn -0.8616500518971255 -0.000001000000377685596 0.5075028946367505
vn 0.8616500518971255 0.000001000000377685596 -0.5075028946367505
vn 0.13983168104267937 -0.961292996572853 0.23740866815843784
vn -0.13983168104267937 0.961292996572853 -0.23740866815843784
vn 0.07068774688039535 -0.9902522454897749 0.12001555208985121
vn -0.07068774688039535 0.9902522454897749 -0.12001555208985121
vn -0.03534387855954763 0.9975720217996267 -0.060007262651891845
vn 0.03534387855954763 -0.9975720217996267 0.060007262651891845
vn -0.8616503208323223 -9.99999529637479e-7 0.5075024380321304
vn 0.8616503208323223 9.99999529637479e-7 -0.5075024380321304
vn -0.03534387855954763 -0.9975720217996267 -0.060007262651891845
vn 0.03534387855954763 0.9975720217996267 0.060007262651891845
vn -0.1736308245419653 0.9396533694049657 -0.2947946440062514
vn 0.1736308245419653 -0.9396533694049657 0.2947946440062514
vn -0.13983076069376693 -0.9612933615451338 -0.23740773242053292
vn 0.13983076069376693 0.9612933615451338 0.23740773242053292
vn 0.8616511816052176 0 -0.5075009765885503
vn -0.8616511816052176 0 0.5075009765885503
vn 0.8616511816034943 0.0000020000011789436745 -0.5075009765875353
vn -0.8616511816034943 -0.0000020000011789436745 0.5075009765875353
vn -0.2382073442365125 0.8830007284097182 -0.404434141461493
vn -0.26898407452874595 0.8479873039690683 -0.4566892816315981
vn 0.26898407452874595 -0.8479873039690683 0.4566892816315981
vn 0.2382073442365125 -0.8830007284097182 0.404434141461493
vn -0.17362976980753567 -0.9396539294463225 -0.2947934801054256
vn 0.17362976980753567 0.9396539294463225 0.2947934801054256
vn -0.23820631452870142 -0.8830015198236756 -0.4044330200511975
vn 0.23820631452870142 0.8830015198236756 0.4044330200511975
vn 0.861650051893679 0.000003000001133044789 -0.5075028946347205
vn -0.861650051893679 -0.000003000001133044789 0.5075028946347205
vn 0.8616514505346192 0.000002999999224259044 -0.5075005199825776
vn -0.8616514505346192 -0.000002999999224259044 0.5075005199825776
vn -0.32617201081472863 0.7661170131312783 -0.5537838400963727
vn -0.35258253562984276 0.7192601296444117 -0.5986237728930709
vn 0.35258253562984276 -0.7192601296444117 0.5986237728930709
vn 0.32617201081472863 -0.7661170131312783 0.5537838400963727
vn -0.8616496215065919 0.0000029999995432862482 0.5075036253550778
vn 0.8616496215065919 -0.0000029999995432862482 -0.5075036253550778
vn -0.8616500518958331 -0.0000020000007553681923 0.5075028946359892
vn 0.8616500518958331 0.0000020000007553681923 -0.5075028946359892
vn -0.2689839125794425 -0.8479886281071315 -0.45668691833075287
vn 0.2689839125794425 0.8479886281071315 0.45668691833075287
vn -0.3261731033787555 -0.7661171697730997 -0.5537829798857375
vn 0.3261731033787555 0.7661171697730997 0.5537829798857375
vn -0.39988223412314394 0.615750937157271 -0.6789292910330395
vn -0.4207707651735595 0.5591011348106103 -0.7143933679904546
vn 0.4207707651735595 -0.5591011348106103 0.7143933679904546
vn 0.39988223412314394 -0.615750937157271 0.6789292910330395
vn -0.861649621508746 0.0000019999996955291654 0.5075036253563465
vn 0.861649621508746 -0.0000019999996955291654 -0.5075036253563465
vn -0.35258454857708554 -0.7192582109417786 -0.5986248926477454
vn 0.35258454857708554 0.7192582109417786 0.5986248926477454
vn -0.3998832658411338 -0.6157490268981669 -0.6789304158558445
vn 0.3998832658411338 0.6157490268981669 0.6789304158558445
vn 0.8616507512173437 -0.0000020000001191079734 -0.5075017073100219
vn -0.8616507512173437 0.0000020000001191079734 0.5075017073100219
vn -0.4705699917104759 0.3745009899878034 -0.7989448613013027
vn -0.4561145079462615 0.4384750181476455 -0.7744024884395464
vn 0.4561145079462615 -0.4384750181476455 0.7744024884395464
vn 0.4705699917104759 -0.3745009899878034 0.7989448613013027
vn -0.8616507512173437 -0.0000020000001191079734 0.5075017073100219
vn 0.8616507512173437 0.0000020000001191079734 -0.5075017073100219
vn -0.42077140632912385 -0.5590987281272985 -0.7143948738773594
vn 0.42077140632912385 0.5590987281272985 0.7143948738773594
vn -0.4561145079462615 -0.4384750181476455 -0.7744024884395464
vn 0.4561145079462615 0.4384750181476455 0.7744024884395464
vn -0.4998020431320838 0.17353807945829433 -0.848576721728166
vn -0.49241403859750904 0.24203393057719902 -0.836031094542208
vn 0.49241403859750904 -0.24203393057719902 0.836031094542208
vn 0.4998020431320838 -0.17353807945829433 0.848576721728166
vn -0.8616507512121739 -0.000004000000238191948 0.507501707306977
vn 0.8616507512121739 0.000004000000238191948 -0.507501707306977
vn -0.4705699917104759 -0.3745009899878034 -0.7989448613013027
vn 0.4705699917104759 0.3745009899878034 0.7989448613013027
vn -0.5071904323454169 -0.03501600070221347 -0.861122375177937
vn -0.5071904856224857 0.03501300438004218 -0.861122465633263
vn 0.5071904856224857 -0.03501300438004218 0.861122465633263
vn 0.5071904323454169 0.03501600070221347 0.861122375177937
vn -0.4998020431320838 -0.17353807945829433 -0.848576721728166
vn 0.4998020431320838 0.17353807945829433 0.848576721728166
vn -0.8616507512121739 0.000004000000238191948 0.507501707306977
vn 0.8616507512121739 -0.000004000000238191948 -0.507501707306977
usemtl material_0_0
f 1//1 2//2 3//3
f 3//4 2//5 1//6
f 2//7 1//8 4//9
f 4//10 1//11 2//12
f 2//2 5//13 3//3
f 3//4 5//14 2//5
f 6//2 1//1 3//3
f 3//4 1//6 6//5
f 1//8 7//15 4//9
f 4//10 7//16 1//11
f 2//7 4//9 8//17
f 8//18 4//10 2//12
f 2//7 8//17 5//19
f 5//20 8//18 2//12
f 3//3 5//13 9//21
f 9//22 5//14 3//4
f 1//8 6//23 7//15
f 7//16 6//24 1//11
f 10//25 6//2 3//3
f 3//4 6//5 10//26
f 7//27 11//4 4//28
f 4//29 11//3 7//30
f 4//28 11//4 8//31
f 8//32 11//3 4//29
f 5//19 8//17 12//33
f 12//34 8//18 5//20
f 5//19 12//33 9//35
f 9//36 12//34 5//20
f 3//3 9//21 13//2
f 13//5 9//22 3//4
f 6//23 14//37 7//15
f 7//16 14//38 6//24
f 6//23 10//39 14//37
f 14//38 10//40 6//24
f 15//41 10//25 3//3
f 3//4 10//26 15//42
f 14//43 11//4 7//27
f 7//30 11//3 14//44
f 11//4 12//45 8//31
f 8//32 12//46 11//3
f 9//35 12//33 16//47
f 16//48 12//34 9//36
f 9//35 16//47 13//49
f 13//50 16//48 9//36
f 3//3 13//2 17//32
f 17//31 13//5 3//4
f 14//37 10//39 18//51
f 18//52 10//40 14//38
f 18//51 10//39 15//53
f 15//54 10//40 18//52
f 19//55 15//41 3//3
f 3//4 15//42 19//56
f 18//57 11//4 14//43
f 14//44 11//3 18//58
f 11//4 16//59 12//45
f 12//46 16//60 11//3
f 13//49 16//47 20//61
f 20//62 16//48 13//50
f 20//61 17//63 13//49
f 13//50 17//64 20//62
f 3//3 17//32 21//29
f 21//28 17//31 3//4
f 18//51 15//53 22//65
f 22//66 15//54 18//52
f 22//65 15//53 19//67
f 19//68 15//54 22//66
f 23//55 19//55 3//3
f 3//4 19//56 23//56
f 22//69 11//4 18//57
f 18//58 11//3 22//70
f 11//4 20//71 16//59
f 16//60 20//72 11//3
f 20//61 24//73 17//63
f 17//64 24//74 20//62
f 24//73 21//75 17//63
f 17//64 21//76 24//74
f 3//3 21//29 25//77
f 25//78 21//28 3//4
f 22//65 19//67 26//79
f 26//80 19//68 22//66
f 26//79 19//67 23//81
f 23//82 19//68 26//80
f 27//13 23//55 3//3
f 3//4 23//56 27//14
f 26//83 11//4 22//69
f 22//70 11//3 26//84
f 11//4 24//85 20//71
f 20//72 24//86 11//3
f 24//73 28//87 21//75
f 21//76 28//88 24//74
f 28//87 25//89 21//75
f 21//76 25//90 28//88
f 3//3 25//77 29//91
f 29//92 25//78 3//4
f 26//79 23//81 30//93
f 30//94 23//82 26//80
f 30//93 23//81 27//95
f 27//96 23//82 30//94
f 27//13 3//3 31//97
f 31//98 3//4 27//14
f 30//99 11//4 26//83
f 26//84 11//3 30//100
f 11//4 28//101 24//85
f 24//86 28//102 11//3
f 28//87 32//103 25//89
f 25//90 32//104 28//88
f 32//103 29//105 25//89
f 25//90 29//106 32//104
f 3//3 29//91 33//102
f 33//101 29//92 3//4
f 30//93 27//95 34//107
f 34//108 27//96 30//94
f 31//97 3//3 35//13
f 35//14 3//4 31//98
f 34//107 27//95 31//106
f 31//105 27//96 34//108
f 34//99 11//4 30//99
f 30//100 11//3 34//100
f 11//4 32//109 28//101
f 28//102 32//110 11//3
f 32//103 36//108 29//105
f 29//106 36//107 32//104
f 36//108 33//111 29//105
f 29//106 33//112 36//107
f 3//3 33//102 37//91
f 37//92 33//101 3//4
f 35//13 3//3 38//72
f 38//71 3//4 35//14
f 39//104 31//106 35//113
f 35//114 31//105 39//103
f 34//107 31//106 39//104
f 39//103 31//105 34//108
f 34//99 39//42 11//4
f 11//3 39//41 34//100
f 11//4 36//92 32//109
f 32//110 36//91 11//3
f 36//108 40//94 33//111
f 33//112 40//93 36//107
f 40//94 37//115 33//111
f 33//112 37//116 40//93
f 3//3 37//91 41//117
f 41//118 37//92 3//4
f 38//72 3//3 42//119
f 42//120 3//4 38//71
f 43//121 35//113 38//122
f 38//123 35//114 43//124
f 39//104 35//113 43//121
f 43//124 35//114 39//103
f 39//42 43//118 11//4
f 11//3 43//117 39//41
f 11//4 40//92 36//92
f 36//91 40//91 11//3
f 40//94 44//125 37//115
f 37//116 44//126 40//93
f 44//125 41//127 37//115
f 37//116 41//128 44//126
f 3//3 41//117 45//129
f 45//130 41//118 3//4
f 42//119 3//3 46//131
f 46//132 3//4 42//120
f 47//133 38//122 42//134
f 42//135 38//123 47//136
f 43//121 38//122 47//133
f 47//136 38//123 43//124
f 43//118 47//137 11//4
f 11//3 47//138 43//117
f 11//4 44//139 40//92
f 40//91 44//140 11//3
f 44//125 48//141 41//127
f 41//128 48//142 44//126
f 48//141 45//143 41//127
f 41//128 45//144 48//142
f 3//3 45//129 49//25
f 49//26 45//130 3//4
f 46//131 3//3 50//119
f 50//120 3//4 46//132
f 51//145 42//134 46//146
f 46//147 42//135 51//148
f 47//133 42//134 51//145
f 51//148 42//135 47//136
f 47//137 51//149 11//4
f 11//3 51//150 47//138
f 11//4 48//109 44//139
f 44//140 48//110 11//3
f 48//141 52//151 45//143
f 45//144 52//152 48//142
f 52//151 49//153 45//143
f 45//144 49//154 52//152
f 3//3 49//25 53//41
f 53//42 49//26 3//4
f 50//119 3//3 54//155
f 54//156 3//4 50//120
f 46//146 50//157 55//158
f 55//159 50//160 46//147
f 46//146 55//158 51//145
f 51//148 55//159 46//147
f 51//149 55//161 11//4
f 11//3 55//162 51//150
f 11//4 52//130 48//109
f 48//110 52//129 11//3
f 52//151 56//163 49//153
f 49//154 56//164 52//152
f 49//153 56//163 53//165
f 53//166 56//164 49//154
f 3//3 53//41 57//162
f 57//161 53//42 3//4
f 54//155 3//3 58//3
f 58//4 3//4 54//156
f 50//157 54//167 59//168
f 59//169 54//170 50//160
f 50//157 59//168 55//158
f 55//159 59//169 50//160
f 55//161 59//171 11//4
f 11//3 59//172 55//162
f 11//4 56//6 52//130
f 52//129 56//1 11//3
f 53//165 56//163 60//173
f 60//174 56//164 53//166
f 53//165 60//173 57//11
f 57//8 60//174 53//166
f 3//3 57//162 58//3
f 58//4 57//161 3//4
f 54//167 58//175 61//176
f 61//177 58//178 54//170
f 54//167 61//176 59//168
f 59//169 61//177 54//170
f 59//171 61//118 11//4
f 11//3 61//117 59//172
f 11//4 60//156 56//6
f 56//1 60//155 11//3
f 57//11 60//173 62//179
f 62//180 60//174 57//8
f 57//11 62//179 58//175
f 58//178 62//180 57//8
f 58//175 62//179 61//176
f 61//177 62//180 58//178
f 11//4 61//118 62//181
f 62//182 61//117 11//3
f 11//4 62//181 60//156
f 60//155 62//182 11//3
