# SSTK version 0.8.0
# 53
mtllib original-53.mtl
o mesh53/mesh53-geometry#mesh53-geometry
v 0.101784 0.114057 -0.629295
v 0.094602 0.117620 -0.630265
v 0.094602 0.114057 -0.630265
v 0.101784 0.117620 -0.629295
v 0.091060 0.114057 -0.642066
v 0.097302 0.117620 -0.650243
v 0.097302 0.114057 -0.650243
v 0.091060 0.117620 -0.642066
v 0.087512 0.114057 -0.644904
v 0.091385 0.117620 -0.657387
v 0.087512 0.117620 -0.644904
v 0.091385 0.114057 -0.657387
v 0.076148 0.117620 -0.646854
v 0.076933 0.117620 -0.660916
v 0.076148 0.110494 -0.646854
v 0.076933 0.110494 -0.660916
vn -0.13384205063022486 0 0.9910026768294304
vn -0.649344884831639 0 0.7604940634501924
vn 0.649344884831639 0 -0.7604940634501924
vn 0.13384205063022486 0 -0.9910026768294304
vn -0.8822317593683923 0 0.4708153807616642
vn 0.8822317593683923 0 -0.4708153807616642
vn 1.048716831044315e-7 1 -0.0000039986243802133245
vn 0.0000021566197147374302 1 -0.000005945500728696426
vn 0.000004077278142523301 1 -0.0000028940966020425385
vn -0.000004077278142523301 -1 0.0000028940966020425385
vn -0.0000021566197147374302 -1 0.000005945500728696426
vn -1.048716831044315e-7 -1 0.0000039986243802133245
vn 0.9778627065498479 0 -0.2092475260045054
vn 0.8998940911389512 0 -0.4361085011017335
vn -0.8998940911389512 0 0.4361085011017335
vn -0.9778627065498479 0 0.2092475260045054
vn -0.7666030120822861 0 0.6421213451259554
vn 0.7666030120822861 0 -0.6421213451259554
vn 0.000006102808253314569 1 -0.000003841316855487534
vn -0.000006102808253314569 -1 0.000003841316855487534
vn -0.4099693987270758 0 0.9120992775500703
vn 0.4099693987270758 0 -0.9120992775500703
vn 0.6203849568537512 0 -0.7842974597112816
vn -0.6203849568537512 0 0.7842974597112816
vn 3.146150492931592e-7 1 -0.000011995873139872239
vn -3.146150492931592e-7 -1 0.000011995873139872239
vn 0.43440531128183113 0 -0.9007175059529682
vn -0.43440531128183113 0 0.9007175059529682
vn 1.310896038799495e-7 1 -0.000004998280475244164
vn 0.00000192065842778122 1 0.000003051404126716787
vn -0.00000192065842778122 -1 -0.000003051404126716787
vn -1.310896038799495e-7 -1 0.000004998280475244164
vn -0.16911044730213057 0 0.9855971066380387
vn 0.16911044730213057 0 -0.9855971066380387
vn 0.2372647626741945 0 -0.9714450228361655
vn -0.2372647626741945 0 0.9714450228361655
vn 0.000003867534776284441 1 0.000005103152158307299
vn -0.000003867534776284441 -1 -0.000005103152158307299
usemtl material_0_0
f 1//1 2//2 3//2
f 3//3 2//3 1//4
f 4//1 2//2 1//1
f 1//4 2//3 4//4
f 2//2 5//5 3//2
f 3//3 5//6 2//3
f 4//7 6//8 2//9
f 2//10 6//11 4//12
f 4//13 1//13 7//14
f 7//15 1//16 4//16
f 8//17 5//5 2//2
f 2//3 5//6 8//18
f 4//13 7//14 6//14
f 6//15 7//15 4//16
f 2//9 6//8 8//19
f 8//20 6//11 2//10
f 8//17 9//21 5//5
f 5//6 9//22 8//18
f 6//14 7//14 10//23
f 10//24 7//15 6//15
f 8//19 6//8 11//25
f 11//26 6//11 8//20
f 8//17 11//21 9//21
f 9//22 11//22 8//18
f 10//23 7//14 12//27
f 12//28 7//15 10//24
f 13//29 6//8 10//30
f 10//31 6//11 13//32
f 11//25 6//8 13//29
f 13//32 6//11 11//26
f 11//21 13//33 9//21
f 9//22 13//34 11//22
f 12//27 14//35 10//23
f 10//24 14//36 12//28
f 13//29 10//30 14//37
f 14//38 10//31 13//32
f 9//21 13//33 15//33
f 15//34 13//34 9//22
f 12//27 16//35 14//35
f 14//36 16//36 12//28
