# SSTK version 0.8.0
# 62
mtllib original-62.mtl
o mesh62/mesh62-geometry#mesh62-geometry
v -0.550509 0.051930 -0.290073
v -0.540183 0.017056 -0.339562
v -0.541603 0.019672 -0.307444
v -0.550715 0.050118 -0.324579
v -0.541082 0.020986 -0.273673
v -0.559397 0.084119 -0.272739
v -0.549940 0.047911 -0.341577
v -0.555527 0.080721 -0.238582
v -0.561243 0.083168 -0.309601
v -0.536822 0.013139 -0.370026
v -0.549574 0.073788 -0.202961
v -0.561119 0.080515 -0.328173
v -0.548528 0.044765 -0.358109
v -0.538619 0.021000 -0.238248
v -0.546519 0.040824 -0.374041
v -0.541474 0.063717 -0.165605
v -0.560229 0.076377 -0.346197
v -0.531519 0.007920 -0.398837
v -0.534215 0.019711 -0.201170
v -0.558592 0.070875 -0.363471
v -0.543838 0.035978 -0.389636
v -0.531822 0.051700 -0.128800
v -0.524275 0.001400 -0.425993
v -0.527869 0.017121 -0.162438
v -0.556124 0.063959 -0.380460
v -0.536354 0.023818 -0.419691
v -0.520777 0.038222 -0.092371
v -0.515089 -0.006421 -0.451497
v -0.519582 0.013230 -0.122052
v -0.548483 0.046326 -0.413362
v -0.525990 0.009310 -0.447885
v -0.508633 0.023736 -0.056698
v -0.503962 -0.015544 -0.475346
v -0.509354 0.008037 -0.080013
v -0.536911 0.025070 -0.444267
v -0.512479 -0.006558 -0.473938
v -0.496194 0.009134 -0.023434
v -0.490893 -0.025968 -0.497542
v -0.497184 0.001543 -0.036320
v -0.521036 0.002470 -0.472524
v -0.501006 -0.018787 -0.497019
v -0.483073 -0.006252 0.009026
v -0.483631 -0.031668 -0.508020
v -0.488945 -0.028743 -0.508166
v -0.475884 -0.037693 -0.518085
vn -0.9589433353097113 -0.282048191137889 0.02960570115588221
vn -0.955721990789434 -0.29375218059355157 -0.017468048489014884
vn -0.9636767335065698 -0.2670649961453317 0.0018550288412243331
vn 0.9636767335065698 0.2670649961453317 -0.0018550288412243331
vn 0.955721990789434 0.29375218059355157 0.017468048489014884
vn 0.9589433353097113 0.282048191137889 -0.02960570115588221
vn -0.9525894689378678 -0.3037320136246793 0.017893226879711607
vn 0.9525894689378678 0.3037320136246793 -0.017893226879711607
vn -0.9608298199277875 -0.2700131683449387 0.06244154112338459
vn 0.9608298199277875 0.2700131683449387 -0.06244154112338459
vn -0.9519007740612692 -0.30211391868339144 0.051108673229913255
vn 0.9519007740612692 0.30211391868339144 -0.051108673229913255
vn -0.9480343570562205 -0.3179670164938823 -0.01130638151568199
vn 0.9480343570562205 0.3179670164938823 0.01130638151568199
vn -0.9549427804020867 -0.28634897158730477 0.07802917806067962
vn 0.9549427804020867 0.28634897158730477 -0.07802917806067962
vn -0.9460379492207616 -0.32254588983130106 0.03124656120455576
vn 0.9460379492207616 0.32254588983130106 -0.03124656120455576
vn -0.9417958112706765 -0.33138005573337576 -0.05663840159426452
vn 0.9417958112706765 0.33138005573337576 0.05663840159426452
vn -0.9567084171881494 -0.2733910933595708 0.09983143068695652
vn 0.9567084171881494 0.2733910933595708 -0.09983143068695652
vn -0.940745023525773 -0.3385648917683783 0.01930323219978622
vn 0.940745023525773 0.3385648917683783 -0.01930323219978622
vn -0.941155550196913 -0.3376718549701827 -0.01428106069386759
vn 0.941155550196913 0.3376718549701827 0.01428106069386759
vn -0.9608081535248162 -0.2581620373666416 0.10099531960906888
vn 0.9608081535248162 0.2581620373666416 -0.10099531960906888
vn -0.9329596508351987 -0.35788410941900245 -0.038797604807919175
vn 0.9329596508351987 0.35788410941900245 0.038797604807919175
vn -0.9538713037043638 -0.27033000407971763 0.13058033873289318
vn 0.9538713037043638 0.27033000407971763 -0.13058033873289318
vn -0.9331702034180042 -0.35924609987747835 0.011645221149549469
vn 0.9331702034180042 0.35924609987747835 -0.011645221149549469
vn -0.9262447389640935 -0.36268206573409645 -0.10262749503026387
vn 0.9262447389640935 0.36268206573409645 0.10262749503026387
vn -0.9568032875419895 -0.25786900005626157 0.1342797369628978
vn 0.9568032875419895 0.25786900005626157 -0.1342797369628978
vn -0.9231648164374183 -0.38434401269242957 0.006811871956325431
vn 0.9231648164374183 0.38434401269242957 -0.006811871956325431
vn -0.9174287065268861 -0.39432399828347403 -0.05322736907023954
vn 0.9174287065268861 0.39432399828347403 0.05322736907023954
vn -0.9493916994427012 -0.2707750835280163 0.1591736635555499
vn 0.9493916994427012 0.2707750835280163 -0.1591736635555499
vn -0.9003735212912233 -0.41599882310174624 -0.1275637148079541
vn 0.9003735212912233 0.41599882310174624 0.1275637148079541
vn -0.9515799012213573 -0.2597871078993619 0.16433608903961763
vn 0.9515799012213573 0.2597871078993619 -0.16433608903961763
vn -0.904189024700444 -0.42709288788418176 0.005820028351281177
vn 0.904189024700444 0.42709288788418176 -0.005820028351281177
vn -0.8833363313945066 -0.46523401955066046 -0.057220911310726805
vn 0.8833363313945066 0.46523401955066046 0.057220911310726805
vn -0.9440823923567757 -0.2728699694663319 0.18506867969851107
vn 0.9440823923567757 0.2728699694663319 -0.18506867969851107
vn -0.8501642341225027 -0.5107101434808945 -0.12804657107717674
vn 0.8501642341225027 0.5107101434808945 0.12804657107717674
vn -0.9457806585317079 -0.26253114831366486 0.19124942382249743
vn 0.9457806585317079 0.26253114831366486 -0.19124942382249743
vn -0.8602555113449651 -0.5094352039640778 0.020886075808801887
vn 0.8602555113449651 0.5094352039640778 -0.020886075808801887
vn -0.8224843076986843 -0.5674158817698403 -0.0394813969455319
vn 0.8224843076986843 0.5674158817698403 0.0394813969455319
vn -0.938586439858742 -0.2751909255616124 0.2081476624942861
vn 0.938586439858742 0.2751909255616124 -0.2081476624942861
vn -0.765907930738915 -0.6374741351276857 -0.08373630439924055
vn 0.765907930738915 0.6374741351276857 0.08373630439924055
vn -0.9397693196260662 -0.26565308749853794 0.2150861757344134
vn 0.9397693196260662 0.26565308749853794 -0.2150861757344134
vn -0.7870368511154884 -0.6144650387974773 0.05482436576770612
vn 0.7870368511154884 0.6144650387974773 -0.05482436576770612
vn -0.720939986821382 -0.6925370840451694 0.025257130165549743
vn 0.720939986821382 0.6925370840451694 -0.025257130165549743
vn -0.933364516045245 -0.27676597931228 0.22854162177367238
vn 0.933364516045245 0.27676597931228 -0.22854162177367238
vn -0.6315445341344121 -0.7748961228105385 0.02622022612685167
vn 0.6315445341344121 0.7748961228105385 -0.02622022612685167
vn -0.9341503420700198 -0.2714661653177454 0.23166626750164487
vn 0.9341503420700198 0.2714661653177454 -0.23166626750164487
vn -0.7169976733789188 -0.6923202190721083 0.08128376611085956
vn 0.7169976733789188 0.6923202190721083 -0.08128376611085956
vn -0.5917857361084379 -0.7984064819025212 0.11107084313461245
vn 0.5917857361084379 0.7984064819025212 -0.11107084313461245
vn -0.9278581966192745 -0.28577309799783834 0.2396098984331524
vn 0.9278581966192745 0.28577309799783834 -0.2396098984331524
vn -0.5122810907313706 -0.8462761453669986 0.14623532357762145
vn 0.5122810907313706 0.8462761453669986 -0.14623532357762145
vn -0.4769486810975182 -0.8566579899911714 0.19661394605577712
vn 0.4769486810975182 0.8566579899911714 -0.19661394605577712
vn -0.4800257506566237 -0.8646571563869222 0.14813264534000092
vn 0.4800257506566237 0.8646571563869222 -0.14813264534000092
usemtl material_0_0
f 1//1 2//2 3//3
f 3//4 2//5 1//6
f 1//1 4//7 2//2
f 2//5 4//8 1//6
f 1//1 3//3 5//9
f 5//10 3//4 1//6
f 6//11 4//7 1//1
f 1//6 4//8 6//12
f 4//7 7//13 2//2
f 2//5 7//14 4//8
f 8//15 1//1 5//9
f 5//10 1//6 8//16
f 6//11 9//17 4//7
f 4//8 9//18 6//12
f 6//11 1//1 8//15
f 8//16 1//6 6//12
f 9//17 7//13 4//7
f 4//8 7//14 9//18
f 7//13 10//19 2//2
f 2//5 10//20 7//14
f 8//15 5//9 11//21
f 11//22 5//10 8//16
f 9//17 12//23 7//13
f 7//14 12//24 9//18
f 7//13 13//25 10//19
f 10//20 13//26 7//14
f 11//21 5//9 14//27
f 14//28 5//10 11//22
f 12//23 13//25 7//13
f 7//14 13//26 12//24
f 13//25 15//29 10//19
f 10//20 15//30 13//26
f 11//21 14//27 16//31
f 16//32 14//28 11//22
f 12//23 17//33 13//25
f 13//26 17//34 12//24
f 17//33 15//29 13//25
f 13//26 15//30 17//34
f 15//29 18//35 10//19
f 10//20 18//36 15//30
f 16//31 14//27 19//37
f 19//38 14//28 16//32
f 17//33 20//39 15//29
f 15//30 20//40 17//34
f 15//29 21//41 18//35
f 18//36 21//42 15//30
f 16//31 19//37 22//43
f 22//44 19//38 16//32
f 20//39 21//41 15//29
f 15//30 21//42 20//40
f 21//41 23//45 18//35
f 18//36 23//46 21//42
f 22//43 19//37 24//47
f 24//48 19//38 22//44
f 20//39 25//49 21//41
f 21//42 25//50 20//40
f 21//41 26//51 23//45
f 23//46 26//52 21//42
f 22//43 24//47 27//53
f 27//54 24//48 22//44
f 25//49 26//51 21//41
f 21//42 26//52 25//50
f 26//51 28//55 23//45
f 23//46 28//56 26//52
f 27//53 24//47 29//57
f 29//58 24//48 27//54
f 25//49 30//59 26//51
f 26//52 30//60 25//50
f 26//51 31//61 28//55
f 28//56 31//62 26//52
f 27//53 29//57 32//63
f 32//64 29//58 27//54
f 30//59 31//61 26//51
f 26//52 31//62 30//60
f 31//61 33//65 28//55
f 28//56 33//66 31//62
f 32//63 29//57 34//67
f 34//68 29//58 32//64
f 30//59 35//69 31//61
f 31//62 35//70 30//60
f 31//61 36//71 33//65
f 33//66 36//72 31//62
f 32//63 34//67 37//73
f 37//74 34//68 32//64
f 35//69 36//71 31//61
f 31//62 36//72 35//70
f 36//71 38//75 33//65
f 33//66 38//76 36//72
f 37//73 34//67 39//77
f 39//78 34//68 37//74
f 35//69 40//79 36//71
f 36//72 40//80 35//70
f 36//71 41//81 38//75
f 38//76 41//82 36//72
f 37//73 39//77 42//83
f 42//84 39//78 37//74
f 40//79 41//81 36//71
f 36//72 41//82 40//80
f 41//81 43//85 38//75
f 38//76 43//86 41//82
f 41//81 44//87 43//85
f 43//86 44//88 41//82
f 43//85 44//87 45//89
f 45//90 44//88 43//86
