# SSTK version 0.8.0
# 49
mtllib original-49.mtl
o mesh49/mesh49-geometry#mesh49-geometry
v 0.076933 0.081839 -0.660916
v 0.067432 0.071123 -0.661386
v 0.076933 0.088966 -0.660916
v 0.091385 0.085403 -0.657387
v 0.091385 0.088966 -0.657387
v 0.076148 0.088966 -0.646854
v 0.097302 0.085403 -0.650243
v 0.097302 0.088966 -0.650243
v 0.087512 0.088966 -0.644904
v 0.101784 0.088966 -0.629295
v 0.091060 0.088966 -0.642066
v 0.087512 0.085403 -0.644904
v 0.101784 0.085403 -0.629295
v 0.094602 0.088966 -0.630265
v 0.076148 0.081839 -0.646854
v 0.091060 0.085403 -0.642066
v 0.094602 0.085403 -0.630265
vn 0.14396026841098983 0.000009999997933286288 -0.9895834684446966
vn 0.04935194230293949 0.000010000001820559932 -0.9987814504139167
vn 0.1753320290270952 0.0000069999995196742005 -0.9845093598073316
vn -0.1753320290270952 -0.0000069999995196742005 0.9845093598073316
vn -0.04935194230293949 -0.000010000001820559932 0.9987814504139167
vn -0.14396026841098983 -0.000009999997933286288 0.9895834684446966
vn 0.4344073236939534 0.0000030000010397447166 -0.9007165353828342
vn -0.4344073236939534 -0.0000030000010397447166 0.9007165353828342
vn 0.6203877803965585 0 -0.7842952262602596
vn -0.6203877803965585 0 0.7842952262602596
vn 0 1 0
vn 0 -1 0
vn 0.8998950662114352 0 -0.43610648906925986
vn -0.8998950662114352 0 0.43610648906925986
vn 0.977862503152246 0 -0.209248476526888
vn -0.977862503152246 0 0.209248476526888
vn -0.4099693987270758 0 0.9120992775500703
vn -0.16911044730213057 0 0.9855971066380387
vn 0.4099693987270758 0 -0.9120992775500703
vn 0.16911044730213057 0 -0.9855971066380387
vn -0.7666039184386253 0 0.6421202630617925
vn 0.7666039184386253 0 -0.6421202630617925
vn -0.13384106540376856 0 0.9910028098908621
vn -0.649346545518409 0 0.7604926454761473
vn 0.13384106540376856 0 -0.9910028098908621
vn 0.649346545518409 0 -0.7604926454761473
vn -0.8822334525652297 0 0.47081220797132567
vn 0.8822334525652297 0 -0.47081220797132567
usemtl material_0_0
f 1//1 2//2 3//3
f 3//4 2//5 1//6
f 4//7 1//1 3//3
f 3//4 1//6 4//8
f 4//7 3//3 5//9
f 5//10 3//4 4//8
f 6//11 5//11 3//11
f 3//12 5//12 6//12
f 5//9 7//13 4//7
f 4//8 7//14 5//10
f 6//11 8//11 5//11
f 5//12 8//12 6//12
f 8//13 7//13 5//9
f 5//10 7//14 8//14
f 9//11 8//11 6//11
f 6//12 8//12 9//12
f 10//15 7//13 8//13
f 8//14 7//14 10//16
f 11//11 8//11 9//11
f 9//12 8//12 11//12
f 9//17 6//18 12//17
f 12//19 6//20 9//19
f 10//15 13//15 7//13
f 7//14 13//16 10//16
f 10//11 8//11 14//11
f 14//12 8//12 10//12
f 14//11 8//11 11//11
f 11//12 8//12 14//12
f 11//21 9//17 12//17
f 12//19 9//19 11//22
f 12//17 6//18 15//18
f 15//20 6//20 12//19
f 10//23 14//24 13//23
f 13//25 14//26 10//25
f 11//21 16//27 14//24
f 14//26 16//28 11//22
f 11//21 12//17 16//27
f 16//28 12//19 11//22
f 13//23 14//24 17//24
f 17//26 14//26 13//25
f 14//24 16//27 17//24
f 17//26 16//28 14//26
